<svg width="24" height="24" viewBox="0 0 24 24" fill="none" xmlns="http://www.w3.org/2000/svg">
<path d="M10.3857 16.6032V3.58731C10.3857 3.13757 10.5406 2.76085 10.8506 2.45715C11.1605 2.15344 11.5437 2.00106 12 2.00001C12.4563 1.99895 12.84 2.15133 13.151 2.45715C13.4621 2.76297 13.6165 3.13969 13.6143 3.58731V16.6032L18.296 12C18.5919 11.709 18.9686 11.5635 19.426 11.5635C19.8834 11.5635 20.2601 11.709 20.5561 12C20.852 12.291 21 12.6614 21 13.1111C21 13.5608 20.852 13.9312 20.5561 14.2222L13.13 21.5238C12.8072 21.8413 12.4305 22 12 22C11.5695 22 11.1928 21.8413 10.87 21.5238L3.44395 14.2222C3.14798 13.9312 3 13.5608 3 13.1111C3 12.6614 3.14798 12.291 3.44395 12C3.73991 11.709 4.11659 11.5635 4.57399 11.5635C5.03139 11.5635 5.40807 11.709 5.70404 12L10.3857 16.6032Z" fill="#CCCCCC"/>
</svg>
