<svg width="40" height="40" viewBox="0 0 40 40" fill="none" xmlns="http://www.w3.org/2000/svg">
<path fill-rule="evenodd" clip-rule="evenodd" d="M30.4404 6.0076C30.9798 6.04655 31.4736 6.20838 31.9209 6.49393C32.3682 6.77957 32.7305 7.14332 33.0068 7.58475C33.2832 8.02623 33.4209 8.54604 33.4209 9.14334V13.7791H35V16.8953H28.6846V13.7791H30.2627V9.22147L23.3154 12.6101C24.026 13.7268 24.5725 14.9085 24.9541 16.1551C25.3357 17.4016 25.5264 18.6871 25.5264 20.0115C25.5264 21.3359 25.3357 22.6345 24.9541 23.907C24.5725 25.1795 24.0132 26.3743 23.2764 27.491L30.2236 30.8797V26.2439H28.6846V23.1277H35V26.2439H33.4209V30.8797C33.4209 31.477 33.2832 31.9968 33.0068 32.4383C32.7305 32.8797 32.3683 33.2434 31.9209 33.5291C31.4736 33.8147 30.9798 33.9699 30.4404 33.9959C29.9011 34.0218 29.368 33.9049 28.8418 33.6453L6.7373 22.8162C6.13204 22.5305 5.69038 22.1341 5.41406 21.6277C5.13795 21.1215 5.00001 20.5957 5 20.0506C5 19.5052 5.13775 18.9723 5.41406 18.4529C5.69038 17.9336 6.13212 17.5315 6.7373 17.2459L28.8418 6.33866C29.368 6.07901 29.9011 5.96872 30.4404 6.0076ZM8.1582 20.0115L20.3945 26.0496C21.0261 25.1666 21.5134 24.2121 21.8555 23.1863C22.1975 22.1605 22.3682 21.1022 22.3682 20.0115C22.3682 18.9208 22.1975 17.8756 21.8555 16.8758C21.5134 15.876 21.0398 14.9214 20.4346 14.0125L8.1582 20.0115Z" fill="url(#paint0_linear_372_20979)"/>
<defs>
<linearGradient id="paint0_linear_372_20979" x1="4.76717" y1="26.4642" x2="22.2663" y2="41.8827" gradientUnits="userSpaceOnUse">
<stop stop-color="#7684FF"/>
<stop offset="1" stop-color="#6E209A"/>
</linearGradient>
</defs>
</svg>
