<svg width="40" height="40" viewBox="0 0 40 40" fill="none" xmlns="http://www.w3.org/2000/svg">
<path fill-rule="evenodd" clip-rule="evenodd" d="M20.0588 8.70588C21.9431 8.70588 23.4706 7.20472 23.4706 5.35294C23.4706 3.50116 21.9431 2 20.0588 2C18.1746 2 16.6471 3.50116 16.6471 5.35294C16.6471 7.20472 18.1746 8.70588 20.0588 8.70588ZM24.5293 23.0588L24.5294 38H20.5294V23.0588H24.5293ZM19.3529 23.0588V38H15.3529V23.0588H19.3529ZM24.0373 10.9412L25.3529 15.4168C24.9255 15.7191 24.647 16.2131 24.647 16.7712L24.6469 22.7059H15.353V16.7712C15.353 16.2131 15.0745 15.7191 14.6471 15.4168L15.9626 10.9412H24.0373ZM36.8824 10.9413V15.1634H26.3259C26.0945 15.1634 25.874 15.2099 25.6732 15.2941L24.4118 10.9412L36.8824 10.9413ZM15.4706 10.9412L14.2093 15.2941C14.0085 15.2099 13.788 15.1634 13.5566 15.1634H3V10.9413L15.4706 10.9412Z" fill="url(#paint0_linear_520_12531)"/>
<defs>
<linearGradient id="paint0_linear_520_12531" x1="2.73704" y1="28.3117" x2="24.6922" y2="45.3043" gradientUnits="userSpaceOnUse">
<stop stop-color="#7684FF"/>
<stop offset="1" stop-color="#6E209A"/>
</linearGradient>
</defs>
</svg>
