<svg width="40" height="40" viewBox="0 0 40 40" fill="none" xmlns="http://www.w3.org/2000/svg">
<path d="M11 23.0566C10.125 23.3619 9.40624 23.9087 8.84375 24.6973C8.2813 25.4858 8.00005 26.3762 8 27.3682C8 28.6401 8.4375 29.722 9.3125 30.6123C10.1875 31.5025 11.2501 31.9473 12.5 31.9473C13.7499 31.9473 14.8125 31.5025 15.6875 30.6123C16.5625 29.722 17 28.6401 17 27.3682V25.8418H25.8125C26.0125 25.6129 26.2565 25.4289 26.5439 25.2891C26.8314 25.1492 27.15 25.0791 27.5 25.0791C28.125 25.0791 28.6562 25.3019 29.0938 25.7471C29.5311 26.1922 29.7499 26.7324 29.75 27.3682C29.75 28.0041 29.5312 28.5451 29.0938 28.9902C28.6563 29.4354 28.125 29.6582 27.5 29.6582C27.1501 29.6582 26.8314 29.5881 26.5439 29.4482C26.2564 29.3083 26.0125 29.1235 25.8125 28.8945H19.8496C19.4996 30.6498 18.6437 32.1062 17.2812 33.2637C15.9187 34.4211 14.325 35 12.5 35C10.425 35 8.65586 34.2557 7.19336 32.7676C5.73105 31.2795 5 29.4794 5 27.3682C5.00005 25.5113 5.56861 23.8893 6.70605 22.5029C7.84353 21.1166 9.27506 20.2458 11 19.8896V23.0566ZM20.75 11.3418C21.375 11.3418 21.9063 11.5646 22.3438 12.0098C22.7812 12.4549 23 12.9959 23 13.6318V13.9561C23 14.0451 22.9748 14.1531 22.9248 14.2803L26.1875 19.8516C26.3875 19.8007 26.6002 19.7686 26.8252 19.7559C27.0501 19.7431 27.2751 19.7373 27.5 19.7373C29.575 19.7373 31.3441 20.4806 32.8066 21.9688C34.2691 23.4568 34.9999 25.2569 35 27.3682C35 29.4794 34.269 31.2795 32.8066 32.7676C31.3441 34.2557 29.575 35 27.5 35C26.1 35 24.8309 34.6498 23.6934 33.9502C22.5562 33.2507 21.6626 32.329 21.0127 31.1846H25.0254C25.3753 31.4388 25.7627 31.6297 26.1875 31.7568C26.6125 31.884 27.05 31.9473 27.5 31.9473C28.7499 31.9473 29.8125 31.5025 30.6875 30.6123C31.5625 29.722 32 28.6401 32 27.3682C31.9999 26.0963 31.5624 25.0153 30.6875 24.125C29.8125 23.2346 28.75 22.7891 27.5 22.7891C27 22.7891 26.5373 22.8591 26.1123 22.999C25.6873 23.1389 25.2871 23.3491 24.9121 23.6289L20.3379 15.8828C19.8131 15.7811 19.3753 15.5269 19.0254 15.1201C18.6754 14.7132 18.5001 14.2168 18.5 13.6318C18.5 12.9959 18.7188 12.4549 19.1562 12.0098C19.5937 11.5646 20.125 11.3418 20.75 11.3418ZM20.75 6C22.825 6 24.5941 6.74426 26.0566 8.23242C27.519 9.72052 28.25 11.5206 28.25 13.6318H25.25C25.25 12.3599 24.8125 11.278 23.9375 10.3877C23.0625 9.4975 21.9999 9.05273 20.75 9.05273C19.5001 9.05273 18.4375 9.4975 17.5625 10.3877C16.6875 11.278 16.25 12.3599 16.25 13.6318C16.2501 14.7256 16.5747 15.686 17.2246 16.5127C17.8746 17.3394 18.7002 17.8668 19.7002 18.0957L14.6377 26.6816C14.6877 26.8088 14.7189 26.9237 14.7314 27.0254C14.7439 27.127 14.75 27.2412 14.75 27.3682C14.75 28.0041 14.5312 28.5451 14.0938 28.9902C13.6563 29.4354 13.125 29.6582 12.5 29.6582C11.875 29.6582 11.3437 29.4354 10.9062 28.9902C10.4688 28.5451 10.25 28.0041 10.25 27.3682C10.2501 26.8086 10.4254 26.3249 10.7754 25.918C11.1253 25.5113 11.5501 25.2444 12.0498 25.1172L15.5752 19.1641C14.8502 18.4772 14.2816 17.657 13.8691 16.7031C13.4567 15.7493 13.25 14.7256 13.25 13.6318C13.25 11.5206 13.981 9.72052 15.4434 8.23242C16.9059 6.74426 18.675 6 20.75 6Z" fill="url(#paint0_linear_372_21054)"/>
<defs>
<linearGradient id="paint0_linear_372_21054" x1="4.76717" y1="27.1956" x2="22.8008" y2="42.5367" gradientUnits="userSpaceOnUse">
<stop stop-color="#7684FF"/>
<stop offset="1" stop-color="#6E209A"/>
</linearGradient>
</defs>
</svg>
