<svg width="23" height="22" viewBox="0 0 23 22" fill="none" xmlns="http://www.w3.org/2000/svg">
<mask id="path-1-outside-1_576_11784" maskUnits="userSpaceOnUse" x="0" y="6.25" width="23" height="15" fill="black">
<rect fill="white" y="6.25" width="23" height="15"/>
<path fill-rule="evenodd" clip-rule="evenodd" d="M10.0475 17.8506L2.31977 10.0736C2.21318 9.96631 2.13359 9.85046 2.08101 9.72603C2.02842 9.6016 2.00142 9.46715 2 9.32269C2 9.03664 2.09806 8.78635 2.29419 8.57181C2.49031 8.35727 2.74754 8.25 3.06589 8.25H19.2674C19.5872 8.25 19.8451 8.35727 20.0413 8.57181C20.2374 8.78635 20.3347 9.03664 20.3333 9.32269C20.3333 9.39421 20.2267 9.6445 20.0136 10.0736L12.2858 17.8506C12.1082 18.0294 11.9305 18.1546 11.7529 18.2261C11.5753 18.2976 11.3798 18.3333 11.1667 18.3333C10.9535 18.3333 10.7581 18.2976 10.5804 18.2261C10.4028 18.1546 10.2251 18.0294 10.0475 17.8506"/>
</mask>
<path fill-rule="evenodd" clip-rule="evenodd" d="M10.0475 17.8506L2.31977 10.0736C2.21318 9.96631 2.13359 9.85046 2.08101 9.72603C2.02842 9.6016 2.00142 9.46715 2 9.32269C2 9.03664 2.09806 8.78635 2.29419 8.57181C2.49031 8.35727 2.74754 8.25 3.06589 8.25H19.2674C19.5872 8.25 19.8451 8.35727 20.0413 8.57181C20.2374 8.78635 20.3347 9.03664 20.3333 9.32269C20.3333 9.39421 20.2267 9.6445 20.0136 10.0736L12.2858 17.8506C12.1082 18.0294 11.9305 18.1546 11.7529 18.2261C11.5753 18.2976 11.3798 18.3333 11.1667 18.3333C10.9535 18.3333 10.7581 18.2976 10.5804 18.2261C10.4028 18.1546 10.2251 18.0294 10.0475 17.8506" fill="#FF707D"/>
<path d="M2.31977 10.0736L3.73847 8.66387L2.31977 10.0736ZM2 9.3227H0V9.33253L9.67979e-05 9.34237L2 9.3227ZM20.3333 9.3227L18.3333 9.31276V9.3227H20.3333ZM20.0136 10.0736L21.4323 11.4833L21.6606 11.2535L21.8047 10.9635L20.0136 10.0736ZM12.2858 17.8506L13.7045 19.2603L12.2858 17.8506ZM10.0475 17.8506L11.4662 16.4409L3.73847 8.66387L2.31977 10.0736L0.901061 11.4833L8.62877 19.2603L10.0475 17.8506ZM2.31977 10.0736L3.73847 8.66387C3.79065 8.71638 3.86511 8.80988 3.92326 8.94751L2.08101 9.72603L0.238751 10.5045C0.402078 10.891 0.635707 11.2162 0.901061 11.4833L2.31977 10.0736ZM2.08101 9.72603L3.92326 8.94751C3.9791 9.07963 3.99894 9.20498 3.9999 9.30302L2 9.3227L9.67979e-05 9.34237C0.00390375 9.72933 0.0777494 10.1236 0.238751 10.5045L2.08101 9.72603ZM2 9.3227H4C4 9.41316 3.98349 9.52811 3.93573 9.65001C3.88818 9.77138 3.82437 9.86214 3.77033 9.92125L2.29419 8.57181L0.818039 7.22237C0.290959 7.79894 0 8.52833 0 9.3227H2ZM2.29419 8.57181L3.77033 9.92125C3.68055 10.0195 3.55575 10.1131 3.40398 10.1764C3.25645 10.2379 3.13363 10.25 3.06589 10.25V8.25V6.25C2.24565 6.25 1.43153 6.55127 0.818039 7.22237L2.29419 8.57181ZM3.06589 8.25V10.25H19.2674V8.25V6.25H3.06589V8.25ZM19.2674 8.25V10.25C19.2016 10.25 19.0798 10.2383 18.9327 10.1771C18.7812 10.1141 18.6558 10.0205 18.5651 9.92125L20.0413 8.57181L21.5174 7.22237C20.9021 6.54927 20.0861 6.25 19.2674 6.25V8.25ZM20.0413 8.57181L18.5651 9.92125C18.5102 9.86121 18.4454 9.76892 18.3974 9.64542C18.3492 9.52137 18.3329 9.40453 18.3333 9.31276L20.3333 9.3227L22.3333 9.33263C22.3373 8.53479 22.0468 7.80142 21.5174 7.22237L20.0413 8.57181ZM20.3333 9.3227H18.3333C18.3333 9.20854 18.3435 9.11635 18.3519 9.05711C18.3607 8.99526 18.371 8.94522 18.3789 8.91088C18.3941 8.84449 18.4091 8.79801 18.4148 8.78101C18.4214 8.76095 18.4254 8.75092 18.4243 8.75379C18.4235 8.75584 18.4201 8.76435 18.4133 8.78044C18.3992 8.81339 18.3769 8.86339 18.3439 8.93357C18.3113 9.00279 18.2711 9.08583 18.2224 9.1837L20.0136 10.0736L21.8047 10.9635C21.9177 10.7359 22.0176 10.5258 22.0935 10.3477C22.1305 10.2607 22.1741 10.1528 22.2119 10.0387C22.2255 9.99748 22.3333 9.69512 22.3333 9.3227H20.3333ZM20.0136 10.0736L18.5948 8.66387L10.8671 16.4409L12.2858 17.8506L13.7045 19.2603L21.4323 11.4833L20.0136 10.0736ZM12.2858 17.8506L10.8671 16.4409C10.8478 16.4603 10.8473 16.4578 10.8675 16.4435C10.8882 16.429 10.9342 16.3997 11.006 16.3707L11.7529 18.2261L12.4998 20.0814C12.9953 19.8819 13.3931 19.5738 13.7045 19.2603L12.2858 17.8506ZM11.7529 18.2261L11.006 16.3707C11.0912 16.3365 11.1529 16.3333 11.1667 16.3333V18.3333V20.3333C11.6068 20.3333 12.0593 20.2587 12.4998 20.0814L11.7529 18.2261ZM11.1667 18.3333V16.3333C11.1805 16.3333 11.2421 16.3365 11.3273 16.3707L10.5804 18.2261L9.83356 20.0814C10.2741 20.2587 10.7265 20.3333 11.1667 20.3333V18.3333ZM10.5804 18.2261L11.3273 16.3707C11.3991 16.3997 11.4451 16.429 11.4658 16.4435C11.486 16.4578 11.4855 16.4603 11.4662 16.4409L10.0475 17.8506L8.62877 19.2603C8.94025 19.5738 9.33797 19.8819 9.83356 20.0814L10.5804 18.2261Z" fill="white" mask="url(#path-1-outside-1_576_11784)"/>
</svg>
