<svg width="48" height="48" viewBox="0 0 48 48" fill="none" xmlns="http://www.w3.org/2000/svg">
<path fill-rule="evenodd" clip-rule="evenodd" d="M39 9.5C22.7076 9.5 9.5 22.7076 9.5 39H12.5C12.5 24.3645 24.3645 12.5 39 12.5V9.5ZM39 17.5056C27.2469 17.7677 17.7677 27.2469 17.5056 39H20.5065C20.7673 28.9038 28.9038 20.7673 39 20.5065V17.5056ZM39 25.5C31.5442 25.5 25.5 31.5442 25.5 39H28.5C28.5 33.201 33.201 28.5 39 28.5V25.5ZM39 33.0189C35.8088 33.2617 33.2617 35.8088 33.0189 39H39V33.0189Z" fill="white"/>
<mask id="mask0_576_1719" style="mask-type:luminance" maskUnits="userSpaceOnUse" x="9" y="9" width="30" height="30">
<path fill-rule="evenodd" clip-rule="evenodd" d="M39 9.5C22.7076 9.5 9.5 22.7076 9.5 39H12.5C12.5 24.3645 24.3645 12.5 39 12.5V9.5ZM39 17.5056C27.2469 17.7677 17.7677 27.2469 17.5056 39H20.5065C20.7673 28.9038 28.9038 20.7673 39 20.5065V17.5056ZM39 25.5C31.5442 25.5 25.5 31.5442 25.5 39H28.5C28.5 33.201 33.201 28.5 39 28.5V25.5ZM39 33.0189C35.8088 33.2617 33.2617 35.8088 33.0189 39H39V33.0189Z" fill="white"/>
</mask>
<g mask="url(#mask0_576_1719)">
</g>
</svg>
