<svg width="56" height="56" viewBox="0 0 56 56" fill="none" xmlns="http://www.w3.org/2000/svg">
<path d="M31.6001 13.2623C29.3201 15.2359 27.5505 17.5485 26.2913 20.2001C25.0321 22.8517 24.4017 25.6473 24.4001 28.5868C24.4001 32.1083 25.2705 35.4077 27.0113 38.485C28.7521 41.5622 31.1817 44.0289 34.3001 45.8848C34.8601 46.2331 35.2505 46.7075 35.4713 47.3081C35.6921 47.9087 35.6417 48.4985 35.3201 49.0774C34.9985 49.6563 34.5385 50.0534 33.9401 50.2685C33.3417 50.4837 32.7617 50.4349 32.2001 50.1223C28.2801 47.8391 25.2001 44.792 22.9601 40.981C20.7201 37.17 19.6001 33.0386 19.6001 28.5868C19.6001 25.0652 20.3201 21.7279 21.7601 18.5748C23.2001 15.4217 25.2401 12.6447 27.8801 10.2439H22.0001C21.3201 10.2439 20.7505 10.021 20.2913 9.57517C19.8321 9.12936 19.6017 8.5783 19.6001 7.92198C19.5985 7.26566 19.8289 6.7146 20.2913 6.2688C20.7537 5.823 21.3233 5.6001 22.0001 5.6001H34.0001C34.6801 5.6001 35.2505 5.823 35.7113 6.2688C36.1721 6.7146 36.4017 7.26566 36.4001 7.92198V19.5314C36.4001 20.1893 36.1697 20.7411 35.7089 21.1869C35.2481 21.6327 34.6785 21.8548 34.0001 21.8533C33.3217 21.8518 32.7521 21.6288 32.2913 21.1846C31.8305 20.7403 31.6001 20.1893 31.6001 19.5314V13.2623Z" fill="white"/>
</svg>
