<svg width="48" height="48" viewBox="0 0 48 48" fill="none" xmlns="http://www.w3.org/2000/svg">
<path d="M13.4229 8C13.4229 12.3999 17.2565 15.9838 21.9629 16H26.3105C28.5355 16 29.6821 17.1524 30.3496 17.7764L38 24.9443L35.5869 27.2002L28.8262 20.8799V40H25.4033V30.4004H21.9805V40H18.5576V18.7363C13.6114 17.3443 10 13.056 10 8H13.4229ZM24 8C25.7843 8 27.2305 9.43288 27.2305 11.2002C27.2304 12.9674 25.7842 14.4004 24 14.4004C22.2158 14.4004 20.7696 12.9674 20.7695 11.2002C20.7695 9.43288 22.2157 8 24 8Z" fill="white"/>
<mask id="mask0_576_1711" style="mask-type:luminance" maskUnits="userSpaceOnUse" x="10" y="8" width="28" height="32">
<path d="M13.4229 8C13.4229 12.3999 17.2565 15.9838 21.9629 16H26.3105C28.5355 16 29.6821 17.1524 30.3496 17.7764L38 24.9443L35.5869 27.2002L28.8262 20.8799V40H25.4033V30.4004H21.9805V40H18.5576V18.7363C13.6114 17.3443 10 13.056 10 8H13.4229ZM24 8C25.7843 8 27.2305 9.43288 27.2305 11.2002C27.2304 12.9674 25.7842 14.4004 24 14.4004C22.2158 14.4004 20.7696 12.9674 20.7695 11.2002C20.7695 9.43288 22.2157 8 24 8Z" fill="white"/>
</mask>
<g mask="url(#mask0_576_1711)">
</g>
</svg>
