<svg width="48" height="48" viewBox="0 0 48 48" fill="none" xmlns="http://www.w3.org/2000/svg">
<path fill-rule="evenodd" clip-rule="evenodd" d="M15 34.5H10.5C9.67157 34.5 9 33.8284 9 33V18C9 17.1716 9.67157 16.5 10.5 16.5H15V10.5C15 9.67157 15.6716 9 16.5 9H31.5C32.3284 9 33 9.67157 33 10.5V16.5H37.5C38.3284 16.5 39 17.1716 39 18V33C39 33.8284 38.3284 34.5 37.5 34.5H33V37.5C33 38.3284 32.3284 39 31.5 39H16.5C15.6716 39 15 38.3284 15 37.5V34.5ZM15 31.5V30C15 29.1716 15.6716 28.5 16.5 28.5H31.5C32.3284 28.5 33 29.1716 33 30V31.5H36V19.5H12V31.5H15ZM18 16.5V12H30V16.5H18ZM18 31.5V36H30V31.5H18ZM18 21H13.5V24H18V21Z" fill="white"/>
<circle cx="42" cy="33" r="6" fill="#2EB12F"/>
</svg>
