<svg width="56" height="56" viewBox="0 0 56 56" fill="none" xmlns="http://www.w3.org/2000/svg">
<path d="M24.3999 13.2623C26.6799 15.2359 28.4495 17.5485 29.7087 20.2001C30.9679 22.8517 31.5983 25.6473 31.5999 28.5868C31.5999 32.1083 30.7295 35.4077 28.9887 38.485C27.2479 41.5622 24.8183 44.0289 21.6999 45.8848C21.1399 46.2331 20.7495 46.7075 20.5287 47.3081C20.3079 47.9087 20.3583 48.4985 20.6799 49.0774C21.0015 49.6563 21.4615 50.0534 22.0599 50.2685C22.6583 50.4837 23.2383 50.4349 23.7999 50.1223C27.7199 47.8391 30.7999 44.792 33.0399 40.981C35.2799 37.17 36.3999 33.0386 36.3999 28.5868C36.3999 25.0652 35.6799 21.7279 34.2399 18.5748C32.7999 15.4217 30.7599 12.6447 28.1199 10.2439H33.9999C34.6799 10.2439 35.2495 10.021 35.7087 9.57517C36.1679 9.12936 36.3983 8.5783 36.3999 7.92198C36.4015 7.26566 36.1711 6.7146 35.7087 6.2688C35.2463 5.823 34.6767 5.6001 33.9999 5.6001H21.9999C21.3199 5.6001 20.7495 5.823 20.2887 6.2688C19.8279 6.7146 19.5983 7.26566 19.5999 7.92198V19.5314C19.5999 20.1893 19.8303 20.7411 20.2911 21.1869C20.7519 21.6327 21.3215 21.8548 21.9999 21.8533C22.6783 21.8518 23.2479 21.6288 23.7087 21.1846C24.1695 20.7403 24.3999 20.1893 24.3999 19.5314V13.2623Z" fill="white"/>
</svg>
