<svg width="48" height="48" viewBox="0 0 48 48" fill="none" xmlns="http://www.w3.org/2000/svg">
<path fill-rule="evenodd" clip-rule="evenodd" d="M38.2439 9L8 39H29V35.9962H15.2963L15.2974 35.9952L20.7402 30.5895L25.4091 25.9524C26.9087 24.4631 28.4398 22.9487 30.0024 21.4093C30.709 20.7131 31.4517 19.9799 32.2305 19.2096C32.2307 19.2094 32.2309 19.2092 32.2311 19.209L35.2185 16.2476C35.2188 16.2472 35.2192 16.2469 35.2195 16.2466V21H38.2439V9Z" fill="white"/>
<path d="M34 30H35V24H38V30H39V24H42V33H38V39H35V33H31V24H34V30Z" fill="white"/>
</svg>
