<svg width="24" height="24" viewBox="0 0 24 24" fill="none" xmlns="http://www.w3.org/2000/svg">
<path d="M14.6505 12.0049L8.3133 5.81164C8.09775 5.60098 7.99342 5.35157 8.00032 5.06339C8.00722 4.77521 8.11873 4.52608 8.33486 4.31599C8.55098 4.10589 8.80619 4.00056 9.10049 4C9.39479 3.99944 9.64972 4.10477 9.86527 4.31599L16.4827 10.8042C16.6551 10.9727 16.7844 11.1623 16.8707 11.3729C16.9569 11.5836 17 11.7942 17 12.0049C17 12.2156 16.9569 12.4262 16.8707 12.6369C16.7844 12.8475 16.6551 13.0371 16.4827 13.2056L9.84371 19.6938C9.62816 19.9045 9.37668 20.0064 9.08928 19.9997C8.80188 19.9929 8.55041 19.884 8.33486 19.6727C8.1193 19.4615 8.01153 19.2121 8.01153 18.9245C8.01153 18.6369 8.1193 18.3878 8.33486 18.1771L14.6505 12.0049Z" fill="#CCCCCC"/>
</svg>
