<svg width="108" height="116" viewBox="0 0 108 116" fill="none" xmlns="http://www.w3.org/2000/svg">
<mask id="mask0_847_32296" style="mask-type:luminance" maskUnits="userSpaceOnUse" x="12" y="16" width="84" height="84">
<rect x="12.5715" y="16.5723" width="82.8571" height="82.8571" fill="white"/>
</mask>
<g mask="url(#mask0_847_32296)">
<path d="M83.1553 33.9609C78.1965 33.9612 74.1022 38.0147 73.8174 43.1875L73.8154 43.2393L73.8047 46.1582L73.5537 46.2861L73.4824 46.3262C72.9156 46.6633 72.5801 47.435 72.5801 48.498C72.5801 48.7993 72.5839 49.0856 72.5928 49.3564L72.6094 49.751C72.6561 50.647 72.7576 51.3615 72.915 51.9111C73.0906 52.5239 73.3519 52.9744 73.6836 53.2441L73.8281 53.3613L73.8506 53.5479L73.877 53.7402C74.0979 55.2176 74.7945 56.7393 75.8555 58.0898L75.9551 58.2168V61.7041L75.9531 61.8477C75.8761 65.2899 72.9993 67.9862 69.5215 67.9863C68.9272 67.9575 68.2789 67.7938 67.4072 67.5117C67.0784 67.4053 66.5715 67.6105 66.2686 68.084C65.9756 68.5418 65.8337 68.9229 66.4717 69.1475C67.1099 69.372 67.7693 69.5155 68.4072 69.5977C68.8365 69.6529 69.2038 69.6655 69.4785 69.6543L69.5215 69.6514L69.6836 69.6494C74.0791 69.5685 77.5867 66.0407 77.5869 61.7041V59.9033L78.3086 60.4004L78.4922 60.5244C79.9685 61.4974 81.5836 62.0311 83.1553 62.0312C84.8372 62.0312 86.5617 61.4306 88.1084 60.3438L88.833 59.835V61.7041L88.835 61.8525C88.9123 66.0121 92.2163 69.3933 96.375 69.6357L96.377 68.0361C96.3646 68.0352 96.3522 68.0352 96.3398 68.0342C93.0538 67.774 90.466 65.0406 90.4658 61.7041V58.1025L90.5605 57.9775L90.6943 57.7979C91.662 56.4693 92.2787 54.9933 92.4482 53.5605L92.4707 53.3682L92.623 53.25L92.7012 53.1846C93.0087 52.9108 93.2537 52.4834 93.4229 51.9199C93.6594 51.1318 93.7754 50.0086 93.7754 48.498C93.7754 47.4099 93.401 46.6324 92.7656 46.3135L92.5107 46.1855V43.2305L92.5088 43.1719L92.4971 43.0059C92.1197 37.9235 88.0573 33.9609 83.1553 33.9609ZM83.1553 36.0205C86.9745 36.0205 90.1629 39.1883 90.417 43.2686V46.9619L90.4199 47.042C90.4615 47.7034 91.0152 48.2126 91.6699 48.2236C91.6782 48.3016 91.6826 48.3936 91.6826 48.498C91.6826 48.5634 91.6821 48.6278 91.6816 48.6914L91.6758 49.0635C91.6744 49.1236 91.6728 49.1829 91.6709 49.2412L91.6572 49.5811C91.6545 49.6357 91.6517 49.6894 91.6484 49.7422L91.626 50.0498C91.5808 50.5919 91.5093 51.0228 91.415 51.3369L91.377 51.4541L91.3428 51.5449C90.801 51.6909 90.4023 52.1803 90.4023 52.7617C90.4023 56.1102 86.7364 59.9727 83.1553 59.9727C79.5975 59.9723 75.9075 56.0688 75.8945 52.7568C75.8923 52.1931 75.5157 51.7171 74.998 51.5576C74.993 51.5447 74.9878 51.5306 74.9824 51.5156L74.9482 51.4131L74.9297 51.3525C74.8388 51.0353 74.77 50.6008 74.7266 50.0557L74.7061 49.748C74.6967 49.5884 74.689 49.4201 74.6836 49.2441L74.6758 48.8818L74.6729 48.498C74.6729 48.3948 74.6764 48.3025 74.6836 48.2227C75.3401 48.1899 75.8916 47.6547 75.8945 46.9678L75.9092 43.2686L75.9189 43.1123C76.2295 39.1102 79.3827 36.0208 83.1553 36.0205Z" fill="#A78BFA"/>
<path d="M57.967 98.6354C58.4313 98.7334 58.898 98.8209 59.3661 98.8982L60.2753 99.0484L60.5756 97.2301L59.6665 97.08C59.2253 97.0071 58.7857 96.9246 58.3482 96.8322L57.4468 96.6421L57.0657 98.4452L57.967 98.6354ZM34.6478 62.3666L34.8164 61.4607C34.8981 61.0208 34.9892 60.5823 35.0901 60.1464L35.2978 59.2488L33.5018 58.8339L33.294 59.7315C33.1872 60.1934 33.0903 60.6579 33.0037 61.1241L32.836 62.0295L34.6478 62.3666ZM52.5247 96.9717C52.9643 97.15 53.4076 97.3189 53.8545 97.4775L54.723 97.7856L55.3393 96.0487L54.4708 95.7405C54.0496 95.591 53.6315 95.4324 53.2173 95.2644L52.3634 94.9177L51.6708 96.625L52.5247 96.9717ZM34.2909 67.6892L34.2995 66.7683C34.304 66.3211 34.3185 65.8736 34.3425 65.427L34.3921 64.5063L32.5522 64.4075L32.5026 65.3282C32.4771 65.8015 32.4615 66.2754 32.4568 66.7494L32.4473 67.6708L34.2909 67.6892ZM47.4228 94.3476C47.8233 94.6014 48.2292 94.8466 48.6404 95.0822L49.441 95.5404L50.3569 93.942L49.5571 93.4832C49.1694 93.2611 48.7864 93.0302 48.4088 92.7909L47.6306 92.2972L46.6438 93.8544L47.4228 94.3476ZM34.8757 73.0616L34.7228 72.1537C34.6484 71.7128 34.584 71.2699 34.5291 70.8263L34.4158 69.9113L32.5866 70.1374L32.6999 71.0524C32.7581 71.5227 32.8268 71.9918 32.9056 72.4593L33.0591 73.368L34.8757 73.0616ZM42.9165 90.8942C43.2662 91.2154 43.6232 91.5283 43.9862 91.8332L44.6912 92.4257L45.8765 91.0143L45.1715 90.4219C44.8293 90.1346 44.4927 89.839 44.1631 89.5362L43.4851 88.9134L42.2379 90.2706L42.9165 90.8942ZM36.3899 78.2101L36.0785 77.3434C35.9276 76.9222 35.7862 76.4981 35.6542 76.0714L35.3826 75.1905L33.6219 75.7354L33.8943 76.6158C34.0343 77.0684 34.1844 77.5186 34.3445 77.9653L34.6551 78.8325L36.3899 78.2101ZM39.0744 86.6741C39.3619 87.0523 39.6575 87.4233 39.9603 87.7872L40.5495 88.4956L41.9663 87.317L41.377 86.6086C41.0915 86.2654 40.8125 85.9152 40.5413 85.5584L39.9835 84.825L38.5166 85.9406L39.0744 86.6741ZM38.7901 83.0231L38.3324 82.2234C38.1096 81.8347 37.8955 81.4416 37.6906 81.045L37.2673 80.2265L35.6298 81.0722L36.053 81.8907C36.2702 82.3111 36.4966 82.728 36.7328 83.14L37.1912 83.9392L38.7901 83.0231Z" fill="#A78BFA"/>
<path d="M36.3511 63.7552L37.9925 62.9173L37.5736 62.0966L35.6126 58.2548L35.225 57.4953L34.4378 57.823L30.3182 59.538L29.4675 59.8921L30.1758 61.5935L31.0265 61.2394L34.3583 59.853L35.9321 62.9345L36.3511 63.7552Z" fill="#A78BFA"/>
<path d="M65.2703 66.0908C63.8473 63.6183 62.1686 61.2551 60.2427 58.9918C58.2014 56.5925 56.0807 54.5875 53.7848 52.9466L52.8669 52.3043C52.8031 52.261 52.7468 52.2246 52.6912 52.1909L52.5188 52.0936C52.2709 51.9631 52.0565 51.7558 51.7997 51.4036L50.3422 49.4147C48.2799 46.6226 46.9385 44.9258 45.3193 43.0956C44.0326 41.6413 42.7363 40.3393 41.3955 39.1704L40.6674 38.5517L34.5899 33.5084C34.2021 33.1833 33.8378 32.8761 33.4502 32.5477C31.6249 31.0011 29.871 29.2848 27.6127 26.8955C25.0975 24.2342 22.8848 21.6734 20.8986 19.0953C19.8936 17.791 18.5795 17.8276 17.5796 19.096C16.126 20.9411 16.1417 23.3993 17.6282 25.214L20.6384 28.8716L20.6027 28.8776C19.1407 29.1815 18.0362 30.452 18.0321 32.1059L18.0366 32.2984C18.1032 33.6659 18.924 34.6891 20.2366 35.1856L26.2476 37.4445L27.0327 37.7449C27.2629 37.8335 27.5205 37.9958 27.8143 38.2325L27.9441 38.3414C28.0092 38.3981 28.077 38.4604 28.1585 38.5382L28.8358 39.1982L28.8978 39.256C29.2019 39.5361 29.3802 39.8488 29.6734 40.5863L32.9289 48.8231C33.4108 50.0284 33.8048 50.9967 34.2503 52.0731C35.1833 54.3281 36.7823 56.1466 38.9495 57.4961L40.3144 58.3361L43.7783 60.4079C43.8785 60.4673 43.9241 60.5233 43.9793 60.6635C45.7103 65.0556 47.824 68.8542 50.4637 72.1569L50.9086 72.7028C51.0357 72.8558 51.1544 72.9944 51.2925 73.1508L52.0363 73.9705C59.0891 81.4843 62.8395 88.7866 63.3305 95.8758L63.5904 99.6685L65.4291 99.5439L65.1691 95.7484C64.6563 88.3459 60.8643 80.8292 53.8398 73.2037L53.0183 72.3139L52.7825 72.0529C52.6055 71.8552 52.4705 71.6988 52.3258 71.5248C49.6107 68.257 47.453 64.4512 45.694 59.988C45.5188 59.5429 45.2594 59.1957 44.8857 58.9312L44.6692 58.7936L41.884 57.1319C41.4589 56.8757 41.0781 56.6441 40.7052 56.4151L39.9236 55.9316C38.0739 54.7799 36.7344 53.2564 35.9532 51.3684L34.9363 48.8773L31.4754 40.1338C31.0651 39.0722 30.7979 38.5449 30.2819 38.0302L29.4092 37.1842C29.2482 37.0311 29.1233 36.9211 28.9721 36.7987C28.5403 36.4508 28.1308 36.1928 27.6941 36.0248L20.8886 33.4619C20.2328 33.2138 19.9065 32.807 19.8773 32.2088C19.825 31.1319 20.6994 30.4338 21.7405 30.7135L21.9346 30.7617L22.3826 30.8575L23.1051 31.0169L23.697 29.7503L23.1723 29.05L19.054 24.0463C18.1615 22.9568 18.1103 21.546 18.902 20.4056L19.1996 20.0044C19.2653 19.9265 19.2698 20.0009 19.4387 20.2201C21.465 22.8503 23.7177 25.4573 26.2733 28.1614C28.4305 30.4437 30.1456 32.1327 31.9059 33.652L33.5733 35.0609L39.6364 40.0917C41.1094 41.3223 42.5272 42.721 43.939 44.3167L44.5453 45.0113C46.2044 46.9388 47.706 48.9136 50.3104 52.489C50.668 52.9795 51.0243 53.342 51.4649 53.6131L51.7483 53.775C51.7802 53.7948 51.8158 53.8182 51.8593 53.848L52.2125 54.0964C54.5705 55.7049 56.7416 57.7208 58.8391 60.1861C60.8789 62.5832 62.6272 65.0916 64.0748 67.7242C64.2292 68.0047 64.4451 68.1747 64.7601 68.3488L65.0812 68.5099L65.687 68.8064C65.9774 68.961 66.3758 69.1184 66.8137 69.2595L67.379 67.5054C67.0931 67.4133 66.8338 67.3143 66.6522 67.229L66.1168 66.9634L65.6515 66.7358C65.6314 66.7247 65.6278 66.7234 65.6458 66.7568L65.2703 66.0908Z" fill="#A78BFA"/>
<path d="M59.948 81.048C58.297 78.4464 56.2603 75.8316 53.8397 73.2039L53.0182 72.3141L52.7824 72.0532C52.6054 71.8554 52.4704 71.6991 52.3257 71.525C49.6106 68.2572 47.4529 64.4514 45.6939 59.9883C45.5186 59.5432 45.2593 59.196 44.8856 58.9314L44.6691 58.7938L41.8838 57.1321C41.4588 56.8759 41.078 56.6444 40.705 56.4153L39.9235 55.9319C38.0737 54.7801 36.7342 53.2567 35.953 51.3686L34.9362 48.8775L31.4753 40.1341C31.0649 39.0724 30.7978 38.5451 30.2818 38.0304L29.4091 37.1844C29.2481 37.0314 29.1232 36.9213 28.972 36.7989C28.5402 36.451 28.1307 36.193 27.6939 36.025L20.8885 33.4621C20.2327 33.214 19.9063 32.8072 19.8772 32.2091C19.8249 31.1321 20.6993 30.4341 21.7404 30.7137L21.9345 30.7619L22.3825 30.8577L23.105 31.0171L23.6968 29.7505L23.1722 29.0502L19.0538 24.0466C18.1614 22.957 18.1102 21.5463 18.9018 20.4059L19.1995 20.0046C19.2652 19.9267 19.2697 20.0012 19.4385 20.2203C21.4649 22.8506 23.7176 25.4575 26.2732 28.1616C28.4304 30.4439 30.1454 32.1329 31.9058 33.6522L33.5732 35.0611L39.6362 40.092C41.1092 41.3225 42.527 42.7212 43.9389 44.317L44.5451 45.0115C46.2042 46.9391 47.7059 48.9138 50.3102 52.4893C50.6678 52.9797 51.0241 53.3423 51.4648 53.6133L51.7482 53.7752C51.7801 53.795 51.8156 53.8184 51.8591 53.8483L52.2124 54.0966C54.5704 55.7052 56.7415 57.721 58.8389 60.1863C60.8788 62.5834 62.627 65.0919 64.0747 67.7244C64.2291 68.005 64.445 68.175 64.76 68.349L65.0811 68.5102L65.6869 68.8067C65.9773 68.9612 66.3756 69.1186 66.8135 69.2598C66.8135 69.2598 63.0882 85.9963 59.948 81.048Z" fill="url(#paint0_linear_847_32296)"/>
</g>
<defs>
<linearGradient id="paint0_linear_847_32296" x1="-25.1953" y1="40.7139" x2="44.8704" y2="97.2554" gradientUnits="userSpaceOnUse">
<stop stop-color="#A78BFA" stop-opacity="0.8"/>
<stop offset="1" stop-color="#A78BFA" stop-opacity="0.01"/>
</linearGradient>
</defs>
</svg>
