<svg width="116" height="116" viewBox="0 0 116 116" fill="none" xmlns="http://www.w3.org/2000/svg">
<mask id="mask0_847_32243" style="mask-type:luminance" maskUnits="userSpaceOnUse" x="16" y="16" width="84" height="84">
<rect x="16.5715" y="16.5723" width="82.8571" height="82.8571" fill="white"/>
</mask>
<g mask="url(#mask0_847_32243)">
<path d="M46.8257 65.9156C47.1772 65.8035 47.527 65.6703 47.7654 65.5447C48.2946 65.266 48.8334 65.0875 48.9569 64.8655C50.4137 62.2442 52.1469 59.8094 54.0979 57.5408C56.0324 55.2909 58.1792 53.2538 60.6515 51.5849C60.8557 51.4468 61.0521 51.2927 61.2698 51.1789C61.6872 50.9615 61.9899 50.6361 62.2656 50.262C64.2411 47.5784 66.226 44.9023 68.4503 42.4144C69.766 40.943 71.1656 39.5564 72.6873 38.2986C75.0486 36.3461 77.4359 34.4253 79.7835 32.4568C81.7987 30.7672 83.6574 28.9081 85.4733 27.007C87.7634 24.6093 89.9568 22.1271 91.9936 19.5111C92.6149 18.7132 93.1924 18.7705 93.7889 19.5191C94.9283 20.9503 94.9219 22.8343 93.7526 24.2468C92.4477 25.8239 91.1341 27.394 89.8251 28.9674C89.7557 29.0512 89.6935 29.1408 89.6277 29.2274C89.6426 29.2587 89.6571 29.2896 89.6716 29.3206C89.8645 29.2785 90.0599 29.2435 90.2506 29.1929C91.8238 28.7748 93.2399 29.8773 93.1599 31.5071C93.1121 32.4781 92.5236 33.1384 91.6145 33.4787C89.4337 34.2949 87.2452 35.0902 85.0686 35.9179C84.7124 36.0535 84.3773 36.2796 84.0767 36.5192C83.6916 36.8276 83.356 37.1969 82.9908 37.5308C82.3665 38.1 82.1215 38.8785 81.8211 39.6252C80.4232 43.1005 79.0658 46.5922 77.6205 50.0474C76.7718 52.077 75.3223 53.648 73.4482 54.8027C71.918 55.7454 70.3672 56.6555 68.8171 57.5659C68.5356 57.731 68.3691 57.9448 68.2507 58.2425C66.6316 62.3074 64.5494 66.105 61.7245 69.4692C61.3878 69.8698 61.0304 70.2531 60.6743 70.6369C53.7567 77.9293 50.0538 85.0633 49.5655 92.0391C49.4808 93.2496 49.3974 94.454 49.3153 95.6525" fill="url(#paint0_linear_847_32243)"/>
<path d="M31.3687 33.1328C36.1418 33.1329 40.083 36.9941 40.3569 41.9209L40.3589 41.9697L40.3696 44.749L40.6099 44.8711L40.6792 44.9092C41.2248 45.2302 41.5483 45.9651 41.5483 46.9775C41.5483 47.2645 41.5442 47.537 41.5356 47.7949L41.519 48.1709C41.4741 49.024 41.3766 49.7042 41.2251 50.2275C41.0562 50.811 40.8049 51.2401 40.4858 51.4971L40.3462 51.6094L40.3247 51.7871L40.2993 51.9707C40.0866 53.3778 39.4163 54.8271 38.395 56.1133L38.2993 56.2334V59.5547L38.3013 59.6914C38.3753 62.9699 41.1441 65.5381 44.4917 65.5381C45.0637 65.5106 45.6878 65.3546 46.5269 65.0859C46.8433 64.9848 47.331 65.18 47.6226 65.6309C47.9045 66.0668 48.0412 66.4307 47.4272 66.6445C46.8129 66.8584 46.178 66.994 45.564 67.0723C45.1508 67.1249 44.7972 67.1366 44.5327 67.126L44.4917 67.124L44.3354 67.1221C40.1047 67.045 36.7281 63.6849 36.728 59.5547V57.8398L36.0337 58.3135L35.8569 58.4316C34.4359 59.3582 32.8814 59.8672 31.3687 59.8672C29.7498 59.8672 28.0898 59.2949 26.6011 58.2598L25.9038 57.7744V59.5547L25.9028 59.6963C25.8284 63.6577 22.6478 66.8785 18.645 67.1094L18.6431 65.5859C18.6551 65.5851 18.6672 65.5839 18.6792 65.583C21.842 65.3352 24.3324 62.7324 24.3325 59.5547V56.125L24.2417 56.0059L24.1128 55.834C23.1816 54.5689 22.5875 53.1642 22.4243 51.7998L22.4028 51.6162L22.2563 51.5029L22.1812 51.4404C21.8854 51.1798 21.6496 50.7736 21.4868 50.2373C21.2591 49.4867 21.147 48.4164 21.147 46.9775C21.147 45.941 21.5078 45.2002 22.1196 44.8965L22.3647 44.7754V41.9609L22.3667 41.9053L22.3774 41.7471C22.7406 36.9067 26.6504 33.1328 31.3687 33.1328ZM31.3687 35.0938C27.6926 35.0938 24.6239 38.1111 24.3794 41.9971V45.5146L24.3774 45.5918C24.3372 46.2215 23.8034 46.7063 23.1733 46.7168C23.1654 46.7909 23.1616 46.8783 23.1616 46.9775C23.1616 47.0398 23.1612 47.1015 23.1616 47.1621L23.1675 47.5156C23.1688 47.573 23.1706 47.6299 23.1724 47.6855L23.186 48.0088C23.1887 48.061 23.1917 48.1126 23.1948 48.1631L23.2153 48.4551C23.2588 48.9717 23.3277 49.3824 23.4185 49.6816L23.4556 49.793L23.4888 49.8789C24.0101 50.0179 24.393 50.4845 24.3931 51.0381C24.3931 54.2271 27.9218 57.9053 31.3687 57.9053C34.7931 57.9052 38.3454 54.1875 38.3579 51.0332C38.3602 50.4966 38.7221 50.0435 39.2202 49.8916C39.2251 49.8792 39.2306 49.8658 39.2358 49.8516L39.2681 49.7539L39.2856 49.6963C39.3731 49.3942 39.4392 48.9801 39.481 48.4609L39.5015 48.168C39.5104 48.016 39.5177 47.856 39.5229 47.6885L39.5308 47.3428L39.5337 46.9775C39.5337 46.8794 39.5298 46.7918 39.5229 46.7158C38.8909 46.6846 38.3605 46.174 38.3579 45.5195L38.3433 41.9971L38.3335 41.8486C38.0346 38.037 34.9999 35.0938 31.3687 35.0938Z" fill="#2FFF82"/>
<path d="M55.6035 94.7343C55.159 94.827 54.7125 94.9103 54.2643 94.9836L53.393 95.1257L53.1082 93.384L53.9795 93.2418C54.4022 93.1727 54.8234 93.0947 55.2427 93.0072L56.1065 92.8264L56.4675 94.5548L55.6035 94.7343ZM78.0526 60.1279L77.8875 59.2615C77.8075 58.8408 77.7182 58.4215 77.6197 58.0047L77.4167 57.1463L79.1348 56.7401L79.3378 57.5985C79.4423 58.0407 79.5371 58.4861 79.622 58.9324L79.7871 59.7988L78.0526 60.1279ZM60.8199 93.1602C60.3984 93.329 59.9727 93.4881 59.5441 93.6383L58.7118 93.9303L58.1283 92.2647L58.9607 91.9727C59.3649 91.8311 59.7663 91.6812 60.1639 91.5221L60.9828 91.1934L61.6383 92.8324L60.8199 93.1602ZM78.4068 65.2217L78.3964 64.3393C78.3915 63.9113 78.377 63.4834 78.3531 63.0559L78.3035 62.1748L80.0656 62.0756L80.1152 62.9567C80.1406 63.4104 80.1554 63.8651 80.1606 64.3194L80.171 65.2018L78.4068 65.2217ZM65.7176 90.6748C65.3325 90.9155 64.9422 91.1478 64.5469 91.3712L63.7785 91.8049L62.9097 90.2685L63.6781 89.8348C64.0509 89.6241 64.4193 89.4048 64.7824 89.1779L65.5309 88.7103L66.4661 90.2072L65.7176 90.6748ZM77.8433 70.3658L77.991 69.4964C78.0629 69.0742 78.1255 68.6502 78.1783 68.2254L78.2872 67.3495L80.0386 67.5681L79.9302 68.4432C79.8742 68.8939 79.8073 69.3436 79.7311 69.7916L79.5829 70.6618L77.8433 70.3658ZM70.0543 87.3965C69.7174 87.7017 69.3737 87.9994 69.0241 88.289L68.3445 88.8514L67.2189 87.4916L67.8985 86.9292C68.228 86.6563 68.5522 86.3758 68.8697 86.0881L69.5232 85.496L70.7083 86.8036L70.0543 87.3965ZM76.379 75.2905L76.6791 74.4607C76.8253 74.058 76.9629 73.6526 77.0906 73.2444L77.354 72.4013L79.0389 72.9284L78.7747 73.771C78.6391 74.2045 78.4936 74.6355 78.3384 75.0632L78.0375 75.8924L76.379 75.2905ZM73.79 83.3437C73.5129 83.7045 73.2281 84.0585 72.9363 84.4055L72.3683 85.0812L71.0171 83.9452L71.5851 83.2695C71.8603 82.9423 72.1289 82.6084 72.3902 82.2682L72.9284 81.5686L74.3274 82.6436L73.79 83.3437ZM74.0561 79.8859L74.4995 79.1224C74.7152 78.751 74.9226 78.3759 75.1209 77.997L75.53 77.2147L77.0933 78.0331L76.6842 78.8154C76.4739 79.2172 76.2544 79.615 76.0257 80.0087L75.5823 80.7722L74.0561 79.8859Z" fill="#2FFF82"/>
<path d="M76.4109 61.5161L74.8424 60.7069L75.2469 59.9226L77.1344 56.2637L77.5057 55.5438L78.2548 55.8523L82.2199 57.4857L83.0358 57.8218L82.3636 59.4537L81.5476 59.1176L78.3323 57.7936L76.8155 60.7318L76.4109 61.5161Z" fill="#2FFF82"/>
<path d="M46.5575 65.0742C46.8881 64.9688 47.182 64.8539 47.354 64.7633C47.3636 64.7582 47.3636 64.7582 47.3732 64.7532C47.5552 64.6581 48.1358 64.3875 48.2212 64.3409C48.2508 64.3247 48.2448 64.3293 48.1854 64.4362C49.6379 61.8225 51.3893 59.3361 53.4286 56.9648C55.5445 54.5039 57.7489 52.4787 60.157 50.8532C60.1966 50.8264 60.2268 50.8054 60.3048 50.7503L60.3148 50.7433C60.5627 50.5684 60.6845 50.4883 60.8619 50.3957C61.1012 50.2709 61.3076 50.0735 61.5548 49.7381C64.3939 45.8813 65.895 43.9476 67.7923 41.8255C69.2077 40.2426 70.6352 38.8492 72.1248 37.6178C72.9058 36.972 73.541 36.451 74.9381 35.3083C74.9512 35.2976 74.9512 35.2976 74.9643 35.2869C77.0928 33.5459 78.0439 32.763 79.2164 31.7799C80.9732 30.3069 82.6614 28.6723 84.835 26.3968C87.2558 23.8623 89.3855 21.4235 91.2972 18.9682C92.2626 17.7284 93.5184 17.763 94.4792 18.9688C95.8807 20.7293 95.8656 23.0774 94.4324 24.8088C93.7226 25.6666 93.129 26.3801 91.8837 27.8741C91.8272 27.942 91.8272 27.942 91.7706 28.0098C91.7108 28.0816 91.6538 28.15 91.5993 28.2153L91.5431 28.2828L91.6169 28.2956C92.999 28.6004 94.0395 29.8002 94.0454 31.3609L94.0411 31.5499C93.9768 32.8565 93.1858 33.8321 91.9236 34.3046C91.2114 34.5711 90.6401 34.7831 89.36 35.2568C89.3442 35.2626 89.3442 35.2626 89.3285 35.2684C87.3705 35.9929 86.4768 36.3258 85.3824 36.7421C85.1598 36.8268 84.9114 36.9816 84.6282 37.2074C84.4579 37.3438 84.319 37.4732 84.0113 37.7745C84.0073 37.7784 84.0073 37.7784 84.0033 37.7823C83.8026 37.9789 83.7082 38.0698 83.5852 38.1822C83.2663 38.473 83.0916 38.8 82.7599 39.649L82.7558 39.6597C82.6993 39.8044 82.6731 39.8709 82.6397 39.9539C82.6156 40.0139 82.5917 40.0732 82.568 40.1321L82.3563 40.6598C82.2376 40.956 82.1143 41.2645 81.9716 41.6221L81.7902 42.0772C81.6618 42.3995 81.5172 42.7626 81.3489 43.1855L81.3246 43.2465C79.9041 46.8159 79.2616 48.4101 78.4345 50.3872C77.5359 52.5361 75.9966 54.2684 73.911 55.5534C73.7801 55.634 73.6514 55.713 73.5234 55.7914L73.1394 56.0255C72.1764 56.6108 71.1598 57.2127 69.4299 58.2287C69.3706 58.2635 69.3706 58.2635 69.3113 58.2983C69.2876 58.3122 69.2876 58.3122 69.2634 58.3264C69.1665 58.3833 69.123 58.436 69.0704 58.5683C67.3114 62.9845 65.1421 66.7707 62.4 70.0363C62.1245 70.3641 61.8907 70.6225 61.3912 71.161L61.36 71.1946C61.3406 71.2155 61.3406 71.2155 61.3144 71.2436C54.527 78.3988 50.9181 85.3516 50.4457 92.1001C50.361 93.3101 50.2776 94.5141 50.1956 95.7121L48.4347 95.5916C48.5168 94.3926 48.6003 93.1877 48.685 91.9768C49.1892 84.7737 52.9862 77.4584 60.0271 70.0362L60.0661 69.9942C60.0817 69.9774 60.0817 69.9774 60.0973 69.9606C60.2573 69.7881 60.3885 69.646 60.5016 69.5221L60.7068 69.2952C60.8317 69.1554 60.9371 69.0336 61.0485 68.901C63.6615 65.7892 65.7379 62.1653 67.4306 57.9155C67.6239 57.4298 67.9228 57.0666 68.37 56.8042C68.3937 56.7903 68.3937 56.7903 68.4175 56.7764L68.4614 56.7506C68.4833 56.7377 68.4965 56.7299 68.536 56.7067C70.2576 55.6956 71.2678 55.0976 72.2217 54.5179L72.6018 54.2861C72.7285 54.2086 72.8558 54.1304 72.9852 54.0507C74.7659 52.9536 76.0549 51.503 76.8062 49.7061C76.8694 49.555 76.9316 49.4061 76.9931 49.2584L77.1761 48.8176C77.8433 47.2063 78.486 45.6061 79.6848 42.5939L79.709 42.5328C80.2145 41.2627 80.5065 40.5304 80.789 39.8261L80.9304 39.4739L81.0022 39.2952C81.0327 39.2195 81.0564 39.1593 81.1117 39.0175C81.1138 39.0122 81.1138 39.0122 81.1159 39.0068C81.5441 37.9106 81.8107 37.4116 82.3952 36.8787C82.4976 36.7852 82.582 36.7039 82.7683 36.5214C82.7723 36.5175 82.7723 36.5175 82.7763 36.5136C83.1256 36.1714 83.2936 36.015 83.5265 35.8285C83.9417 35.4975 84.3353 35.2521 84.7547 35.0924C85.856 34.6736 86.7531 34.3394 88.7161 33.6131C88.7318 33.6073 88.7318 33.6073 88.7475 33.6014C89.7517 33.2299 90.3187 33.0197 90.8598 32.8179L91.1548 32.7078L91.305 32.6516C91.9373 32.4149 92.2505 32.0286 92.2783 31.4632C92.3284 30.4431 91.4853 29.7771 90.4771 30.0451C90.3519 30.0784 90.2461 30.1019 90.0543 30.1414L90.0312 30.1461C89.9419 30.1645 89.9419 30.1645 89.8597 30.1821L89.1718 30.3322L88.8726 29.6949C88.8512 29.6492 88.8512 29.6492 88.8308 29.6061L88.5998 29.121L88.9247 28.6931C88.9511 28.658 88.9511 28.658 88.9822 28.6159C89.0568 28.5146 89.0928 28.4672 89.1466 28.4024C89.5031 27.9738 89.8159 27.5984 90.4149 26.8797C90.4714 26.8119 90.4714 26.8119 90.5279 26.7441C91.7719 25.2516 92.3645 24.5393 93.0727 23.6834C93.9721 22.5969 93.9813 21.1771 93.0986 20.0684C93.0764 20.0406 93.0568 20.0151 93.0393 19.9919L92.9569 19.8807C92.8621 19.7553 92.874 19.816 92.6898 20.0526C90.7394 22.5577 88.5711 25.0406 86.1113 27.6159C83.8966 29.9344 82.166 31.6101 80.3504 33.1324C79.1706 34.1216 78.2158 34.9075 76.0817 36.6531C76.0687 36.6638 76.0687 36.6638 76.0556 36.6745C74.6609 37.8152 74.0274 38.3349 73.2494 38.9781C71.8316 40.1501 70.467 41.4822 69.1081 43.0019C67.2594 45.0697 65.7833 46.9711 62.9759 50.7849C62.5824 51.3187 62.1908 51.6935 61.6783 51.9604C61.5944 52.0043 61.5165 52.0555 61.3325 52.1854L61.3225 52.1924C61.2388 52.2514 61.198 52.2799 61.1451 52.3156C58.8754 53.8478 56.7856 55.7677 54.7668 58.1156C52.8036 60.3983 51.1212 62.7871 49.728 65.2938C49.5787 65.5623 49.3711 65.7239 49.0673 65.8898C48.9201 65.9702 48.3195 66.2501 48.1907 66.3175L48.1765 66.3249C47.8976 66.4718 47.5147 66.6215 47.0937 66.7558L46.5575 65.0742Z" fill="#2FFF82"/>
</g>
<defs>
<linearGradient id="paint0_linear_847_32243" x1="70.4131" y1="109.197" x2="135.627" y2="77.6487" gradientUnits="userSpaceOnUse">
<stop stop-color="#2FFF82" stop-opacity="0.01"/>
<stop offset="1" stop-color="#2FFF82" stop-opacity="0.8"/>
</linearGradient>
</defs>
</svg>
