<svg width="116" height="116" viewBox="0 0 116 116" fill="none" xmlns="http://www.w3.org/2000/svg">
<mask id="mask0_847_32113" style="mask-type:luminance" maskUnits="userSpaceOnUse" x="16" y="16" width="84" height="84">
<rect x="16.5715" y="16.5723" width="82.8571" height="82.8571" fill="white"/>
</mask>
<g mask="url(#mask0_847_32113)">
<mask id="mask1_847_32113" style="mask-type:luminance" maskUnits="userSpaceOnUse" x="16" y="16" width="84" height="86">
<path fill-rule="evenodd" clip-rule="evenodd" d="M99.4285 16.5723H16.5713V101.501H99.4285V16.5723Z" fill="white"/>
</mask>
<g mask="url(#mask1_847_32113)">
<path d="M84.5222 32.1338L84.5524 32.1006L84.5622 32.0811L84.7388 31.8064L85.1046 31.2617L85.619 30.5169L85.954 30.0424L86.3154 29.5397L86.6963 29.0207L87.0172 28.5925C87.4274 28.0512 87.8484 27.5188 88.2455 27.0551L88.4141 26.8607C88.6039 26.6449 88.7787 26.4373 88.939 26.2368L89.1243 25.9996C90.6405 24.0114 90.6541 22.723 89.5663 21.0141C88.712 19.6721 87.9057 19.511 87.4626 19.9454L87.3087 20.0988L87.128 20.2831L86.8138 20.6098L86.4575 20.9866L85.9359 21.5463L85.524 21.994L84.9677 22.6059L84.4273 23.2093L84.0479 23.6395L83.7028 24.0376L83.4971 24.2794L83.3149 24.4982L83.186 24.6569L83.1586 24.693L83.0777 24.794C82.3711 25.6555 81.0758 24.6138 81.7585 23.7331L81.8511 23.6155L81.9156 23.529C82.6951 22.4427 82.9949 20.8264 82.6419 20.2848L82.6091 20.2399C82.3495 19.9236 81.7132 19.887 81.4828 20.1334L81.4416 20.1871L80.2934 21.8948L80.0188 22.3075L79.6412 22.8819L79.408 23.2418L79.1864 23.5886C79.1503 23.6455 79.1145 23.7021 79.079 23.7585C78.5767 24.5563 78.1537 25.2736 77.7956 25.9427L77.7052 26.1157C77.6908 26.144 77.6767 26.1721 77.663 26.2L77.5837 26.3661C77.571 26.3936 77.5586 26.4211 77.5464 26.4485L77.476 26.6138L77.4103 26.7819C77.3891 26.8387 77.3686 26.8964 77.3485 26.9555L77.2894 27.1373C77.2701 27.1995 77.2511 27.2636 77.2323 27.33L77.1761 27.5363L77.1199 27.7589L77.0334 28.1292L76.9729 28.4043L76.8756 28.866C76.8519 28.9803 76.8283 29.0911 76.8045 29.1984L76.7326 29.5105C76.3939 30.9213 75.998 31.7104 75.105 32.496L74.135 33.3152L71.4536 35.5418L68.241 38.202C66.89 39.329 65.5898 40.61 64.2949 42.0714L63.9684 42.4429L63.6478 42.8135L63.3308 43.1862L63.1202 43.4374L62.8039 43.8201L62.4847 44.2128L62.2692 44.4815L61.8286 45.0396L61.3703 45.631L60.8887 46.2625L60.3783 46.9411L59.5461 48.0626L58.4516 49.5561C58.1078 50.0269 57.7653 50.3692 57.334 50.621L57.1606 50.7173L57.0682 50.7758L56.7065 51.0288C54.5439 52.502 52.5528 54.3482 50.6292 56.606C48.7585 58.8013 47.1553 61.0985 45.8277 63.5093C45.7096 63.7236 45.546 63.8699 45.3315 64.0044L45.296 64.0257L45.1423 64.1089L44.9442 64.2096L44.3483 64.5016C44.0821 64.6431 43.7169 64.7872 43.3154 64.9164C43.1461 64.9709 42.964 64.9704 42.795 64.9149C41.3926 64.4547 40.1027 64.4481 38.896 64.8853L38.7456 64.9422L44.5866 92.6481L44.8251 89.1719C45.2996 82.33 48.8357 75.3824 55.3886 68.3341L55.6982 68.0018L56.0844 67.5792L56.3663 67.2626L56.5584 67.0382L56.6059 66.9814C59.0958 63.9889 61.0744 60.5037 62.6875 56.4165C62.8575 55.9855 63.1133 55.6545 63.4874 55.4075L63.7321 55.2593L65.4066 54.2641L66.4401 53.6438L67.1159 53.2331L67.8716 52.7674L67.9811 52.6994C69.6774 51.6447 70.9054 50.2499 71.6215 48.5217L71.9778 47.6578L72.8311 45.5505L75.7286 38.2313L75.7833 38.0912L75.8879 37.831C76.1941 37.088 76.4393 36.6734 76.8732 36.2555L77.0772 36.0633L77.5311 35.6183L77.7094 35.4491L77.8153 35.3531L77.9185 35.2639L78.0254 35.1756C78.0618 35.1464 78.1324 35.112 78.2258 35.0748L78.3482 35.0289C78.3702 35.0211 78.393 35.0132 78.4163 35.0053L78.6418 34.9325L78.8876 34.8593L79.2928 34.7471L79.834 34.6083L79.9756 34.5747C81.0609 34.2692 82.0486 33.8704 82.9795 33.3056C83.5128 32.9821 84.0076 32.6136 84.46 32.1954C84.4799 32.177 84.5007 32.1565 84.5222 32.1338Z" fill="url(#paint0_linear_847_32113)"/>
<path d="M90.99 20.0996C89.6167 17.9424 87.6165 17.5091 86.3503 18.666L86.282 18.7304L86.1306 18.8808L85.8806 19.1367L85.5906 19.4385L85.156 19.8984L84.4529 20.6552L84.4509 20.623C84.3992 20.0515 84.2268 19.5416 83.9138 19.1601C82.9825 18.0254 81.003 17.9359 80.1052 19.1445L80.0486 19.2256L79.2566 20.4013L78.6101 21.3691L78.2253 21.9541L77.987 22.3222L77.6501 22.8515L77.3142 23.3926C76.9892 23.9233 76.6974 24.4229 76.4353 24.9013L76.2497 25.2461L76.1433 25.4551L76.0466 25.6572C75.8704 26.0374 75.7368 26.4016 75.612 26.8408L75.5593 27.0342L75.4939 27.2871L75.4617 27.4199L75.3962 27.7031L75.2937 28.1728L75.1892 28.6718L75.1257 28.956C74.8556 30.137 74.593 30.6854 73.9919 31.2177L73.9177 31.2822L73.2429 31.8506L72.0105 32.8808L68.5173 35.7685L67.1609 36.8965C65.8505 37.9896 64.5904 39.2153 63.3435 40.5947L62.9197 41.0703L62.5867 41.4502L62.2595 41.8301L61.9363 42.2129L61.613 42.6015L61.2888 42.998L60.9597 43.4072L60.6247 43.8301L60.281 44.2715L59.9255 44.7324L59.5564 45.2168L59.0388 45.9052L58.196 47.041L57.0886 48.5527C56.8534 48.8748 56.6566 49.064 56.4294 49.1836L56.3747 49.2129L56.2712 49.2724L56.2195 49.3047L56.1667 49.3388L56.0486 49.4189L55.907 49.5185L55.4587 49.8301C55.1581 50.0408 54.8604 50.2582 54.5661 50.4824C54.4946 50.0185 54.3654 49.5242 54.1745 48.9746L53.987 48.4453L53.8777 48.123C53.8117 47.9262 53.7444 47.725 53.6726 47.5263L53.5613 47.2304C53.2618 46.4737 53.2403 45.6854 53.4968 44.7617L53.5427 44.6064C54.8929 40.2016 52.6458 35.2966 48.4275 33.4394C44.0411 31.5083 39.6179 31.3342 35.28 32.9209C32.0789 34.0926 29.828 36.312 28.5896 39.5176C27.1664 43.1996 27.1418 46.7501 28.5163 50.0703C28.8621 50.9056 29.3562 51.7003 29.863 52.4697L30.3552 53.2099C31.5346 54.9864 31.941 56.5667 31.6345 58.1816C31.3299 59.7844 30.7911 60.8032 29.8913 61.4677L29.8415 61.499L29.655 61.6211L29.5564 61.6894L29.3865 61.8125L29.2585 61.9082L29.0476 62.0742L28.8943 62.2002L28.7331 62.3379L28.5642 62.4873L28.3884 62.6504C28.3586 62.6784 28.3279 62.7063 28.2976 62.7353L28.112 62.917L27.9206 63.1113L27.7839 63.2549L27.6453 63.4052L27.5056 63.5625L27.364 63.7256L27.1492 63.9824L27.0046 64.1631L26.8591 64.3496C26.8349 64.3813 26.8111 64.414 26.7869 64.4463L26.6413 64.6435L26.4958 64.8476C26.4475 64.9167 26.3995 64.9871 26.3513 65.0586L26.2068 65.2773L26.0622 65.5029L25.9197 65.7353C25.8486 65.8535 25.7787 65.9749 25.7087 66.0986L25.5691 66.3496C25.5462 66.3919 25.5235 66.4346 25.5007 66.4775L25.364 66.7402C25.3191 66.8288 25.2743 66.9186 25.2302 67.0097L25.0994 67.2881C25.0561 67.3817 25.0127 67.477 24.9704 67.5732L24.8454 67.8662C24.8249 67.9154 24.8042 67.9648 24.7839 68.0146L24.6638 68.3193C23.617 71.045 23.0016 74.6951 23.6023 79.4648L23.6941 80.1738L23.74 80.5224L23.8347 81.206L23.9304 81.872L24.0271 82.5224L24.1511 83.3135L24.2761 84.0801L24.3767 84.6767L24.4783 85.2578L24.5798 85.8261L24.7341 86.6513L24.8874 87.4472L25.0408 88.2148L25.2429 89.1963L25.4421 90.1328L25.779 91.6718L26.1775 93.4824L26.3171 94.1318L26.4451 94.7529L26.5242 95.1523L26.6326 95.7295L26.697 96.1006L26.7546 96.4619L26.8064 96.8135C27.0216 98.3752 27.0229 99.6625 26.6785 100.891L26.6384 101.026L28.0076 101.439C28.4427 100.002 28.4742 98.5761 28.2605 96.8857L28.2117 96.5195C28.1939 96.396 28.1751 96.271 28.155 96.1445L28.0915 95.7597L28.0212 95.3652L27.9451 94.9609L27.8201 94.332L27.6833 93.6767L27.4841 92.7578L26.989 90.5107L26.7449 89.3838L26.5456 88.4345L26.3953 87.6924L26.2429 86.9238L26.0906 86.126L25.989 85.5771L25.8884 85.0156L25.7878 84.4394L25.6882 83.8496L25.5886 83.2451L25.491 82.625L25.3943 81.9902L25.2986 81.3388L25.1589 80.332L25.0671 79.6396L25.0222 79.2871C24.3822 74.2069 25.1953 70.5112 26.3855 67.914L26.5163 67.6347C26.649 67.3601 26.7862 67.0987 26.9255 66.8496L27.0652 66.6045C27.1121 66.5244 27.1595 66.4455 27.2068 66.3681L27.3494 66.1396L27.4939 65.9189L27.6531 65.6836L27.8132 65.459C27.8666 65.3855 27.9202 65.3134 27.9734 65.2431L28.1326 65.0371C28.1854 64.9701 28.2384 64.9046 28.2908 64.8408L28.447 64.6543L28.6023 64.4756L28.6785 64.3906L28.8298 64.2265L28.9773 64.0713L29.1228 63.9248L29.2976 63.7539L29.4665 63.5967L29.6589 63.4248L29.8386 63.2724L30.0564 63.0967C31.8377 62.19 32.8621 60.5465 33.1804 58.0801C33.4445 56.0361 32.9001 54.0684 31.6052 52.3779L31.4861 52.2246C28.0244 47.8997 28.6436 41.8238 31.0447 38.0556C32.2326 36.1908 33.9784 34.9113 36.3826 34.1445C40.4996 32.8317 44.5263 33.1557 48.3484 35.1074C51.0138 36.469 52.7757 39.8025 52.447 42.8603C52.4114 43.1929 52.3142 43.5169 52.2107 43.832L52.0622 44.2842C51.7079 45.4087 51.7155 46.5032 52.0857 47.625L52.1404 47.7861C52.3132 48.267 52.472 48.7588 52.6238 49.2441L52.9529 50.3017L53.0456 50.5947C53.0561 50.6269 53.0654 50.6604 53.072 50.6933C53.1429 51.0662 53.1632 51.3825 53.1316 51.6513C51.9224 52.6982 50.761 53.8707 49.6277 55.1738L49.3445 55.5019L49.0232 55.8828C48.0031 57.1055 47.062 58.3606 46.1999 59.6484C45.4666 59.4302 44.717 59.1742 44.0574 58.9336L43.7722 58.8291L43.5476 58.7539C43.5085 58.7601 43.4588 58.7758 43.4255 58.7959C43.3846 58.9986 43.3236 59.1936 43.2595 59.3838L43.1316 59.7588L43.1013 59.8506L42.9441 60.3828C42.8104 60.8393 42.6709 61.3394 42.5788 61.8232L42.5339 62.084L42.405 63.0508C40.9771 62.7399 39.6042 62.8195 38.3035 63.2949L38.1267 63.3623L38.7458 64.9414L38.8962 64.8847C40.1028 64.4477 41.3924 64.4549 42.7947 64.915C42.9636 64.9705 43.1459 64.9704 43.3152 64.916C43.6664 64.8029 43.9902 64.6788 44.2439 64.5547L44.3484 64.501L44.9441 64.209L45.1423 64.1084L45.2956 64.0254L45.3318 64.0039C45.5461 63.8694 45.7098 63.723 45.8279 63.5088C47.1554 61.0981 48.7581 58.8006 50.6286 56.6054C52.4686 54.4458 54.371 52.6629 56.4255 51.2226L56.7068 51.0283L57.0681 50.7754L57.1609 50.7168L57.3337 50.6211C57.7258 50.3921 58.0451 50.0877 58.3581 49.6806L58.4519 49.5556L59.5456 48.0625L60.3786 46.9404L60.8884 46.2617L61.3699 45.6308L61.8288 45.039L62.2693 44.4814L62.4851 44.2129L62.8035 43.8193L63.1199 43.4365L63.3308 43.1855L63.6482 42.8135L63.9685 42.4424L64.2947 42.0713C65.4899 40.7223 66.6903 39.5271 67.9304 38.4648L68.241 38.2011L71.4538 35.541L74.1345 33.3144L75.1052 32.4961C75.9651 31.7396 76.3642 30.9791 76.6951 29.664L76.7322 29.5097L76.8044 29.1982L76.9724 28.4043L77.0329 28.1289L77.1199 27.7588L77.1755 27.5361L77.2322 27.3301L77.2898 27.1367L77.3484 26.9551L77.3786 26.8672L77.4099 26.7812L77.4763 26.6133L77.5466 26.4482L77.5837 26.3662L77.6628 26.1992L77.7048 26.1152L77.7956 25.9424C78.114 25.3477 78.4838 24.715 78.9148 24.0215L79.1863 23.5879L79.4079 23.2412L79.6413 22.8818L80.0183 22.3076L80.2937 21.8945L81.4411 20.1865L81.4831 20.1328C81.701 19.9004 82.2799 19.9202 82.5622 20.1894L82.6091 20.2392L82.6423 20.2842C82.9845 20.8093 82.7126 22.3456 81.9851 23.4287L81.9158 23.5283L81.8513 23.6152L81.7585 23.7324C81.0885 24.5967 82.3237 25.6166 83.0378 24.8398L83.0779 24.7939L83.1589 24.6924L83.1863 24.6562L83.3152 24.498L83.4968 24.2793L83.7029 24.0371L84.0476 23.6396L84.4275 23.209L84.9675 22.6054L85.5242 21.9941L85.9363 21.5459L86.4578 20.9863L86.8132 20.6093L87.1277 20.2832L87.3083 20.0986L87.4626 19.9453C87.9057 19.5109 88.7119 19.6717 89.5661 21.0136C90.6316 22.6875 90.6405 23.9581 89.2156 25.8779L89.1238 25.999L88.9392 26.2363C88.819 26.3867 88.6902 26.5413 88.5535 26.7002L88.2458 27.0547C87.9055 27.4521 87.5467 27.9005 87.1931 28.3613L87.0173 28.5918L86.696 29.0205L86.3152 29.539L85.9538 30.042L85.6189 30.5166L85.1042 31.2617L84.739 31.8056L84.5622 32.081L84.5525 32.1006L84.5222 32.1338C84.5007 32.1564 84.4796 32.1769 84.4597 32.1953C84.0074 32.6134 83.5124 32.9822 82.9792 33.3056C82.1201 33.8268 81.2123 34.2063 80.2244 34.5019L79.9753 34.5742L79.8337 34.6084L79.2927 34.747L78.8874 34.8593L78.6413 34.9316L78.4158 35.0049L78.3484 35.0283L78.2253 35.0742C78.1508 35.1039 78.0911 35.1323 78.0515 35.1572L78.0251 35.1748L77.9187 35.2636L77.8152 35.3525L77.7097 35.4492L77.531 35.6181L77.0769 36.0625L76.8728 36.2549C76.466 36.6466 76.2259 37.0361 75.9451 37.6953L75.8874 37.831L75.7829 38.0908L72.8308 45.5498L71.9773 47.6572L71.6218 48.5215C70.9313 50.1879 69.7643 51.5444 68.1609 52.5849L67.8718 52.7666L67.116 53.2324L66.4402 53.6435L65.406 54.2636L63.7322 55.2588L63.487 55.4072C63.1132 55.6542 62.8572 55.985 62.6872 56.416C61.1263 60.3711 59.2231 63.7626 56.8454 66.6894L56.5583 67.0381L56.366 67.2627L56.0847 67.5791L55.698 68.001L55.3884 68.334C54.4055 69.3912 53.4903 70.4464 52.6433 71.499L52.2253 72.0244C47.7601 77.7224 45.2922 83.3539 44.8445 88.915L44.8249 89.1718L44.5867 92.6474L46.2732 92.7627L46.5115 89.289C46.7055 86.4927 47.4538 83.6599 48.7605 80.791C49.0011 82.4934 49.1348 84.2634 49.1609 86.1015L49.1638 86.4463L49.1619 86.8056C49.1605 86.9277 49.1588 87.0525 49.156 87.1787L49.1413 87.6601L49.116 88.2558L49.0867 88.7636L49.074 88.9687L49.0447 89.3799L49.0027 89.8965L48.9451 90.5127L48.8904 91.0195L48.8445 91.4179L48.7937 91.8086L48.7273 92.2812L48.6423 92.8232L48.5661 93.249C48.5351 93.414 48.5033 93.5728 48.4704 93.7236L48.404 94.0146C48.3362 94.2949 48.2646 94.542 48.1911 94.747L48.154 94.8457C47.6411 96.1639 47.4291 97.8428 47.4363 99.8808C47.4373 100.181 47.4421 100.481 47.4519 100.787L47.4704 101.251C47.4811 101.486 47.494 101.725 47.5095 101.972L47.5437 102.476L47.5847 103.003L47.6326 103.559L47.8191 105.566L47.8513 105.979L47.862 106.15L47.8718 106.37L49.5613 106.318L49.5544 106.154L49.5388 105.877L49.5232 105.666L49.4929 105.302L49.3161 103.411L49.2703 102.873L49.2302 102.362L49.197 101.876C49.182 101.638 49.1692 101.408 49.1589 101.183L49.1423 100.738C49.1329 100.446 49.1277 100.16 49.1267 99.875C49.1205 98.1118 49.2925 96.6752 49.6755 95.6074L49.7292 95.4638C49.9209 94.9713 50.0944 94.2727 50.2449 93.458L50.3122 93.0742C50.3453 92.8785 50.3775 92.6773 50.4079 92.4717L50.4665 92.0547L50.5222 91.6279L50.573 91.1933L50.6208 90.7529L50.6648 90.3086L50.7038 89.8623L50.739 89.416L50.7693 88.9717L50.7956 88.5312L50.8171 88.0957L50.8337 87.6689L50.8406 87.459L50.8494 87.0468L50.8523 86.8457L50.8542 86.4531L50.8503 86.0761C50.8114 83.3386 50.5432 80.7376 50.0447 78.2744C51.677 75.3834 53.8692 72.4558 56.6238 69.4922L56.8679 69.2304L57.1179 68.959L57.4724 68.5683L57.6951 68.3144L57.9031 68.0693C60.5159 64.9289 62.5825 61.2876 64.2585 57.041C64.3016 56.9319 64.3387 56.879 64.406 56.832L64.4421 56.8086L65.6638 56.084L67.1951 55.1679L67.7751 54.8164L68.8708 54.1426C70.7946 52.9463 72.2308 51.3468 73.0974 49.372L73.1824 49.1738L73.5408 48.3047L74.0495 47.0537L74.7322 45.3496L77.1892 39.1396L77.3943 38.6162L77.4773 38.4131L77.5554 38.2343L77.6296 38.0781C77.7588 37.8171 77.8781 37.6448 78.031 37.4922L78.2029 37.3301L78.6882 36.8554L78.8386 36.7119L78.9245 36.6338L78.9958 36.5713L79.0691 36.5517L80.0056 36.3232C80.1497 36.2862 80.2898 36.2488 80.4314 36.209C81.6526 35.8652 82.7771 35.4106 83.8533 34.7578C84.4806 34.3772 85.0662 33.9416 85.6042 33.4443C85.6504 33.4016 85.6968 33.3559 85.7419 33.3086L85.8093 33.2363L86.237 32.6025L86.9509 31.5693L87.2859 31.0947L87.7927 30.3916L88.1091 29.9619L88.2771 29.7363L88.5964 29.3164C88.9159 28.9009 89.2341 28.5032 89.5329 28.1543L89.8044 27.8418C92.3673 24.8697 92.6298 22.6757 90.99 20.0996ZM45.1443 60.8916L45.3533 60.9638C45.1762 61.2515 45.0032 61.5412 44.8337 61.832L44.5818 62.2695L44.4079 62.5801L44.2097 62.6806L43.9529 62.8056L44.0066 62.3291C44.0755 61.6916 44.157 61.4096 44.3288 61.0879L44.4021 60.956L44.5593 60.6943L45.1443 60.8916Z" fill="#2FFF82"/>
<path d="M54.2053 99.0169C53.8016 99.1792 53.3939 99.332 52.9833 99.4763L52.1865 99.7566L51.626 98.1628L52.4232 97.8817C52.8101 97.7457 53.1941 97.6015 53.5746 97.4485L54.3588 97.1332L54.9895 98.7015L54.2053 99.0169ZM69.4888 62.5538L69.191 61.7633C69.0465 61.3793 68.8941 60.9978 68.733 60.6204L68.4006 59.8439L69.9555 59.1799L70.2866 59.957C70.4574 60.357 70.6198 60.761 70.773 61.1681L71.0708 61.9586L69.4888 62.5538ZM58.858 96.6485C58.4893 96.8793 58.115 97.1018 57.7365 97.3161L57.0015 97.733L56.1682 96.2621L56.9041 95.8456C57.2608 95.6436 57.6131 95.4338 57.9606 95.2162L58.6773 94.7672L59.5735 96.2L58.858 96.6485ZM70.6642 67.3027L70.5087 66.4718C70.433 66.0688 70.3481 65.6675 70.2548 65.2681L70.063 64.4452L71.7084 64.0604L71.9011 64.8837C72 65.3072 72.0894 65.7331 72.1696 66.1605L72.3255 66.9905L70.6642 67.3027ZM63.0505 93.4673C62.7288 93.7604 62.4002 94.0463 62.066 94.3246L61.4162 94.8657L60.3349 93.5665L60.9847 93.0254C61.2996 92.7632 61.6089 92.4942 61.912 92.2181L62.5368 91.6484L63.6749 92.8985L63.0505 93.4673ZM70.9946 72.2478L70.9884 71.4028C70.985 70.9927 70.9726 70.5827 70.9511 70.1733L70.9073 69.3293L72.5948 69.2404L72.6395 70.0847C72.6622 70.5191 72.6753 70.9543 72.6788 71.3893L72.685 72.2344L70.9946 72.2478ZM66.5708 89.6327C66.3061 89.9783 66.0341 90.3178 65.7547 90.6506L65.2113 91.2984L63.9167 90.212L64.46 89.5643C64.7234 89.2506 64.9796 88.9306 65.229 88.6049L65.743 87.934L67.0847 88.9618L66.5708 89.6327ZM70.4492 77.1393L70.5916 76.3065C70.6607 75.9021 70.7215 75.4966 70.7726 75.0901L70.8783 74.2513L72.5552 74.4623L72.4495 75.3011C72.3952 75.7323 72.3315 76.1626 72.2581 76.5917L72.1157 77.4245L70.4492 77.1393ZM69.3918 85.1713C69.1928 85.5589 68.9852 85.9414 68.7701 86.3184L68.3516 87.0521L66.8834 86.2146L67.3019 85.4809C67.5047 85.1254 67.7006 84.765 67.8883 84.3995L68.2746 83.6468L69.7781 84.4187L69.3918 85.1713ZM69.0477 81.868L69.3342 81.0731C69.4737 80.6863 69.6047 80.2971 69.7267 79.9061L69.9779 79.0993L71.592 79.603L71.3399 80.4094C71.2106 80.8239 71.072 81.2362 70.9242 81.6461L70.6377 82.4411L69.0477 81.868Z" fill="#2FFF82"/>
<path d="M68.1815 64.1124L66.5657 63.6162L66.8138 62.8083L67.974 59.0307L68.2034 58.2839L68.9659 58.454L72.9595 59.3447L73.7844 59.5287L73.4164 61.1784L72.5916 60.9945L69.3612 60.2747L68.4296 63.3045L68.1815 64.1124Z" fill="#2FFF82"/>
</g>
</g>
<defs>
<linearGradient id="paint0_linear_847_32113" x1="-14.1129" y1="41.5029" x2="73.6551" y2="91.5433" gradientUnits="userSpaceOnUse">
<stop stop-color="#2FFF82" stop-opacity="0.8"/>
<stop offset="1" stop-color="#2FFF82" stop-opacity="0.01"/>
</linearGradient>
</defs>
</svg>
