<svg width="116" height="116" viewBox="0 0 116 116" fill="none" xmlns="http://www.w3.org/2000/svg">
<mask id="mask0_847_32273" style="mask-type:luminance" maskUnits="userSpaceOnUse" x="16" y="16" width="84" height="84">
<rect x="16.5715" y="16.5723" width="82.8571" height="82.8571" fill="white"/>
</mask>
<g mask="url(#mask0_847_32273)">
<mask id="mask1_847_32273" style="mask-type:luminance" maskUnits="userSpaceOnUse" x="16" y="16" width="84" height="86">
<path fill-rule="evenodd" clip-rule="evenodd" d="M16.5715 16.5723H99.4287V101.501H16.5715V16.5723Z" fill="white"/>
</mask>
<g mask="url(#mask1_847_32273)">
<path d="M31.4778 32.1338L31.4476 32.1006L31.4378 32.0811L31.2612 31.8064L30.8954 31.2617L30.381 30.5169L30.046 30.0424L29.6846 29.5397L29.3037 29.0207L28.9828 28.5925C28.5726 28.0512 28.1516 27.5188 27.7545 27.0551L27.5859 26.8607C27.3961 26.6449 27.2213 26.4373 27.061 26.2368L26.8757 25.9996C25.3595 24.0114 25.3459 22.723 26.4337 21.0141C27.288 19.6721 28.0943 19.511 28.5374 19.9454L28.6913 20.0988L28.872 20.2831L29.1862 20.6098L29.5425 20.9866L30.0641 21.5463L30.476 21.994L31.0323 22.6059L31.5727 23.2093L31.9521 23.6395L32.2972 24.0376L32.5029 24.2794L32.6851 24.4982L32.814 24.6569L32.8414 24.693L32.9223 24.794C33.6289 25.6555 34.9242 24.6138 34.2415 23.7331L34.1489 23.6155L34.0844 23.529C33.3049 22.4427 33.0051 20.8264 33.3581 20.2848L33.3909 20.2399C33.6505 19.9236 34.2868 19.887 34.5172 20.1334L34.5584 20.1871L35.7066 21.8948L35.9812 22.3075L36.3588 22.8819L36.592 23.2418L36.8136 23.5886C36.8497 23.6455 36.8855 23.7021 36.921 23.7585C37.4233 24.5563 37.8463 25.2736 38.2044 25.9427L38.2948 26.1157C38.3092 26.144 38.3233 26.1721 38.337 26.2L38.4163 26.3661C38.429 26.3936 38.4414 26.4211 38.4536 26.4485L38.524 26.6138L38.5897 26.7819C38.6109 26.8387 38.6314 26.8964 38.6515 26.9555L38.7106 27.1373C38.7299 27.1995 38.7489 27.2636 38.7677 27.33L38.8239 27.5363L38.8801 27.7589L38.9666 28.1292L39.0271 28.4043L39.1244 28.866C39.1481 28.9803 39.1717 29.0911 39.1955 29.1984L39.2674 29.5105C39.6061 30.9213 40.002 31.7104 40.895 32.496L41.865 33.3152L44.5464 35.5418L47.759 38.202C49.11 39.329 50.4102 40.61 51.7051 42.0714L52.0316 42.4429L52.3522 42.8135L52.6692 43.1862L52.8798 43.4374L53.1961 43.8201L53.5153 44.2128L53.7308 44.4815L54.1714 45.0396L54.6297 45.631L55.1113 46.2625L55.6217 46.9411L56.4539 48.0626L57.5484 49.5561C57.8922 50.0269 58.2347 50.3692 58.666 50.621L58.8394 50.7173L58.9318 50.7758L59.2935 51.0288C61.4561 52.502 63.4472 54.3482 65.3708 56.606C67.2415 58.8013 68.8447 61.0985 70.1723 63.5093C70.2904 63.7236 70.454 63.8699 70.6685 64.0044L70.704 64.0257L70.8577 64.1089L71.0558 64.2096L71.6517 64.5016C71.9179 64.6431 72.2831 64.7872 72.6846 64.9164C72.8539 64.9709 73.036 64.9704 73.205 64.9149C74.6074 64.4547 75.8973 64.4481 77.104 64.8853L77.2544 64.9422L71.4134 92.6481L71.1749 89.1719C70.7004 82.33 67.1643 75.3824 60.6114 68.3341L60.3018 68.0018L59.9156 67.5792L59.6337 67.2626L59.4416 67.0382L59.3941 66.9814C56.9042 63.9889 54.9256 60.5037 53.3125 56.4165C53.1425 55.9855 52.8867 55.6545 52.5126 55.4075L52.2679 55.2593L50.5934 54.2641L49.5599 53.6438L48.8841 53.2331L48.1284 52.7674L48.0189 52.6994C46.3226 51.6447 45.0946 50.2499 44.3785 48.5217L44.0222 47.6578L43.1689 45.5505L40.2714 38.2313L40.2167 38.0912L40.1121 37.831C39.8059 37.088 39.5607 36.6734 39.1268 36.2555L38.9228 36.0633L38.4689 35.6183L38.2906 35.4491L38.1847 35.3531L38.0815 35.2639L37.9746 35.1756C37.9382 35.1464 37.8676 35.112 37.7742 35.0748L37.6518 35.0289C37.6298 35.0211 37.607 35.0132 37.5837 35.0053L37.3582 34.9325L37.1124 34.8593L36.7072 34.7471L36.166 34.6083L36.0244 34.5747C34.9391 34.2692 33.9514 33.8704 33.0205 33.3056C32.4872 32.9821 31.9924 32.6136 31.54 32.1954C31.5201 32.177 31.4993 32.1565 31.4778 32.1338Z" fill="url(#paint0_linear_847_32273)"/>
<path d="M25.01 20.0996C26.3833 17.9424 28.3835 17.5091 29.6497 18.666L29.718 18.7304L29.8694 18.8808L30.1194 19.1367L30.4094 19.4385L30.844 19.8984L31.5471 20.6552L31.5491 20.623C31.6008 20.0515 31.7732 19.5416 32.0862 19.1601C33.0175 18.0254 34.997 17.9359 35.8948 19.1445L35.9514 19.2256L36.7434 20.4013L37.3899 21.3691L37.7747 21.9541L38.013 22.3222L38.3499 22.8515L38.6858 23.3926C39.0108 23.9233 39.3026 24.4229 39.5647 24.9013L39.7503 25.2461L39.8567 25.4551L39.9534 25.6572C40.1296 26.0374 40.2632 26.4016 40.388 26.8408L40.4407 27.0342L40.5061 27.2871L40.5383 27.4199L40.6038 27.7031L40.7063 28.1728L40.8108 28.6718L40.8743 28.956C41.1444 30.137 41.407 30.6854 42.0081 31.2177L42.0823 31.2822L42.7571 31.8506L43.9895 32.8808L47.4827 35.7685L48.8391 36.8965C50.1495 37.9896 51.4096 39.2153 52.6565 40.5947L53.0803 41.0703L53.4133 41.4502L53.7405 41.8301L54.0637 42.2129L54.387 42.6015L54.7112 42.998L55.0403 43.4072L55.3753 43.8301L55.719 44.2715L56.0745 44.7324L56.4436 45.2168L56.9612 45.9052L57.804 47.041L58.9114 48.5527C59.1466 48.8748 59.3434 49.064 59.5706 49.1836L59.6253 49.2129L59.7288 49.2724L59.7805 49.3047L59.8333 49.3388L59.9514 49.4189L60.093 49.5185L60.5413 49.8301C60.8419 50.0408 61.1396 50.2582 61.4339 50.4824C61.5054 50.0185 61.6346 49.5242 61.8255 48.9746L62.013 48.4453L62.1223 48.123C62.1883 47.9262 62.2556 47.725 62.3274 47.5263L62.4387 47.2304C62.7382 46.4737 62.7597 45.6854 62.5032 44.7617L62.4573 44.6064C61.1071 40.2016 63.3542 35.2966 67.5725 33.4394C71.9589 31.5083 76.3821 31.3342 80.72 32.9209C83.9211 34.0926 86.172 36.312 87.4104 39.5176C88.8336 43.1996 88.8582 46.7501 87.4837 50.0703C87.1379 50.9056 86.6438 51.7003 86.137 52.4697L85.6448 53.2099C84.4654 54.9864 84.059 56.5667 84.3655 58.1816C84.6701 59.7844 85.2089 60.8032 86.1087 61.4677L86.1585 61.499L86.345 61.6211L86.4436 61.6894L86.6135 61.8125L86.7415 61.9082L86.9524 62.0742L87.1057 62.2002L87.2669 62.3379L87.4358 62.4873L87.6116 62.6504C87.6414 62.6784 87.6721 62.7063 87.7024 62.7353L87.888 62.917L88.0794 63.1113L88.2161 63.2549L88.3547 63.4052L88.4944 63.5625L88.636 63.7256L88.8508 63.9824L88.9954 64.1631L89.1409 64.3496C89.1651 64.3813 89.1889 64.414 89.2131 64.4463L89.3587 64.6435L89.5042 64.8476C89.5525 64.9167 89.6005 64.9871 89.6487 65.0586L89.7932 65.2773L89.9378 65.5029L90.0803 65.7353C90.1514 65.8535 90.2213 65.9749 90.2913 66.0986L90.4309 66.3496C90.4538 66.3919 90.4765 66.4346 90.4993 66.4775L90.636 66.7402C90.6809 66.8288 90.7257 66.9186 90.7698 67.0097L90.9006 67.2881C90.9439 67.3817 90.9873 67.477 91.0296 67.5732L91.1546 67.8662C91.1751 67.9154 91.1958 67.9648 91.2161 68.0146L91.3362 68.3193C92.383 71.045 92.9984 74.6951 92.3977 79.4648L92.3059 80.1738L92.26 80.5224L92.1653 81.206L92.0696 81.872L91.9729 82.5224L91.8489 83.3135L91.7239 84.0801L91.6233 84.6767L91.5217 85.2578L91.4202 85.8261L91.2659 86.6513L91.1126 87.4472L90.9592 88.2148L90.7571 89.1963L90.5579 90.1328L90.221 91.6718L89.8225 93.4824L89.6829 94.1318L89.5549 94.7529L89.4758 95.1523L89.3674 95.7295L89.303 96.1006L89.2454 96.4619L89.1936 96.8135C88.9784 98.3752 88.9771 99.6625 89.3215 100.891L89.3616 101.026L87.9924 101.439C87.5573 100.002 87.5258 98.5761 87.7395 96.8857L87.7883 96.5195C87.8061 96.396 87.8249 96.271 87.845 96.1445L87.9085 95.7597L87.9788 95.3652L88.0549 94.9609L88.1799 94.332L88.3167 93.6767L88.5159 92.7578L89.011 90.5107L89.2551 89.3838L89.4544 88.4345L89.6047 87.6924L89.7571 86.9238L89.9094 86.126L90.011 85.5771L90.1116 85.0156L90.2122 84.4394L90.3118 83.8496L90.4114 83.2451L90.509 82.625L90.6057 81.9902L90.7014 81.3388L90.8411 80.332L90.9329 79.6396L90.9778 79.2871C91.6178 74.2069 90.8047 70.5112 89.6145 67.914L89.4837 67.6347C89.351 67.3601 89.2138 67.0987 89.0745 66.8496L88.9348 66.6045C88.8879 66.5244 88.8405 66.4455 88.7932 66.3681L88.6506 66.1396L88.5061 65.9189L88.3469 65.6836L88.1868 65.459C88.1334 65.3855 88.0798 65.3134 88.0266 65.2431L87.8674 65.0371C87.8146 64.9701 87.7616 64.9046 87.7092 64.8408L87.553 64.6543L87.3977 64.4756L87.3215 64.3906L87.1702 64.2265L87.0227 64.0713L86.8772 63.9248L86.7024 63.7539L86.5335 63.5967L86.3411 63.4248L86.1614 63.2724L85.9436 63.0967C84.1623 62.19 83.1379 60.5465 82.8196 58.0801C82.5555 56.0361 83.0999 54.0684 84.3948 52.3779L84.5139 52.2246C87.9756 47.8997 87.3564 41.8238 84.9553 38.0556C83.7674 36.1908 82.0216 34.9113 79.6174 34.1445C75.5004 32.8317 71.4737 33.1557 67.6516 35.1074C64.9862 36.469 63.2243 39.8025 63.553 42.8603C63.5886 43.1929 63.6858 43.5169 63.7893 43.832L63.9378 44.2842C64.2921 45.4087 64.2845 46.5032 63.9143 47.625L63.8596 47.7861C63.6868 48.267 63.528 48.7588 63.3762 49.2441L63.0471 50.3017L62.9544 50.5947C62.9439 50.6269 62.9346 50.6604 62.928 50.6933C62.8571 51.0662 62.8368 51.3825 62.8684 51.6513C64.0776 52.6982 65.239 53.8707 66.3723 55.1738L66.6555 55.5019L66.9768 55.8828C67.9969 57.1055 68.938 58.3606 69.8001 59.6484C70.5334 59.4302 71.283 59.1742 71.9426 58.9336L72.2278 58.8291L72.4524 58.7539C72.4915 58.7601 72.5412 58.7758 72.5745 58.7959C72.6154 58.9986 72.6764 59.1936 72.7405 59.3838L72.8684 59.7588L72.8987 59.8506L73.0559 60.3828C73.1896 60.8393 73.3291 61.3394 73.4212 61.8232L73.4661 62.084L73.595 63.0508C75.0229 62.7399 76.3958 62.8195 77.6965 63.2949L77.8733 63.3623L77.2542 64.9414L77.1038 64.8847C75.8972 64.4477 74.6076 64.4549 73.2053 64.915C73.0364 64.9705 72.8541 64.9704 72.6848 64.916C72.3336 64.8029 72.0098 64.6788 71.7561 64.5547L71.6516 64.501L71.0559 64.209L70.8577 64.1084L70.7044 64.0254L70.6682 64.0039C70.4539 63.8694 70.2902 63.723 70.1721 63.5088C68.8446 61.0981 67.2419 58.8006 65.3714 56.6054C63.5314 54.4458 61.629 52.6629 59.5745 51.2226L59.2932 51.0283L58.9319 50.7754L58.8391 50.7168L58.6663 50.6211C58.2742 50.3921 57.9549 50.0877 57.6419 49.6806L57.5481 49.5556L56.4544 48.0625L55.6214 46.9404L55.1116 46.2617L54.6301 45.6308L54.1712 45.039L53.7307 44.4814L53.5149 44.2129L53.1965 43.8193L52.8801 43.4365L52.6692 43.1855L52.3518 42.8135L52.0315 42.4424L51.7053 42.0713C50.5101 40.7223 49.3097 39.5271 48.0696 38.4648L47.759 38.2011L44.5462 35.541L41.8655 33.3144L40.8948 32.4961C40.0349 31.7396 39.6358 30.9791 39.3049 29.664L39.2678 29.5097L39.1956 29.1982L39.0276 28.4043L38.9671 28.1289L38.8801 27.7588L38.8245 27.5361L38.7678 27.3301L38.7102 27.1367L38.6516 26.9551L38.6214 26.8672L38.5901 26.7812L38.5237 26.6133L38.4534 26.4482L38.4163 26.3662L38.3372 26.1992L38.2952 26.1152L38.2044 25.9424C37.886 25.3477 37.5162 24.715 37.0852 24.0215L36.8137 23.5879L36.5921 23.2412L36.3587 22.8818L35.9817 22.3076L35.7063 21.8945L34.5589 20.1865L34.5169 20.1328C34.299 19.9004 33.7201 19.9202 33.4378 20.1894L33.3909 20.2392L33.3577 20.2842C33.0155 20.8093 33.2874 22.3456 34.0149 23.4287L34.0842 23.5283L34.1487 23.6152L34.2415 23.7324C34.9115 24.5967 33.6763 25.6166 32.9622 24.8398L32.9221 24.7939L32.8411 24.6924L32.8137 24.6562L32.6848 24.498L32.5032 24.2793L32.2971 24.0371L31.9524 23.6396L31.5725 23.209L31.0325 22.6054L30.4758 21.9941L30.0637 21.5459L29.5422 20.9863L29.1868 20.6093L28.8723 20.2832L28.6917 20.0986L28.5374 19.9453C28.0943 19.5109 27.2881 19.6717 26.4339 21.0136C25.3684 22.6875 25.3595 23.9581 26.7844 25.8779L26.8762 25.999L27.0608 26.2363C27.181 26.3867 27.3098 26.5413 27.4465 26.7002L27.7542 27.0547C28.0945 27.4521 28.4533 27.9005 28.8069 28.3613L28.9827 28.5918L29.304 29.0205L29.6848 29.539L30.0462 30.042L30.3811 30.5166L30.8958 31.2617L31.261 31.8056L31.4378 32.081L31.4475 32.1006L31.4778 32.1338C31.4993 32.1564 31.5204 32.1769 31.5403 32.1953C31.9926 32.6134 32.4876 32.9822 33.0208 33.3056C33.8799 33.8268 34.7877 34.2063 35.7756 34.5019L36.0247 34.5742L36.1663 34.6084L36.7073 34.747L37.1126 34.8593L37.3587 34.9316L37.5842 35.0049L37.6516 35.0283L37.7747 35.0742C37.8492 35.1039 37.9089 35.1323 37.9485 35.1572L37.9749 35.1748L38.0813 35.2636L38.1848 35.3525L38.2903 35.4492L38.469 35.6181L38.9231 36.0625L39.1272 36.2549C39.534 36.6466 39.7741 37.0361 40.0549 37.6953L40.1126 37.831L40.2171 38.0908L43.1692 45.5498L44.0227 47.6572L44.3782 48.5215C45.0687 50.1879 46.2357 51.5444 47.8391 52.5849L48.1282 52.7666L48.884 53.2324L49.5598 53.6435L50.594 54.2636L52.2678 55.2588L52.513 55.4072C52.8868 55.6542 53.1428 55.985 53.3128 56.416C54.8737 60.3711 56.7769 63.7626 59.1546 66.6894L59.4417 67.0381L59.634 67.2627L59.9153 67.5791L60.302 68.001L60.6116 68.334C61.5945 69.3912 62.5097 70.4464 63.3567 71.499L63.7747 72.0244C68.2399 77.7224 70.7078 83.3539 71.1555 88.915L71.1751 89.1718L71.4133 92.6474L69.7268 92.7627L69.4885 89.289C69.2945 86.4927 68.5462 83.6599 67.2395 80.791C66.9989 82.4934 66.8652 84.2634 66.8391 86.1015L66.8362 86.4463L66.8381 86.8056C66.8395 86.9277 66.8412 87.0525 66.844 87.1787L66.8587 87.6601L66.884 88.2558L66.9133 88.7636L66.926 88.9687L66.9553 89.3799L66.9973 89.8965L67.0549 90.5127L67.1096 91.0195L67.1555 91.4179L67.2063 91.8086L67.2727 92.2812L67.3577 92.8232L67.4339 93.249C67.4649 93.414 67.4967 93.5728 67.5296 93.7236L67.596 94.0146C67.6638 94.2949 67.7354 94.542 67.8089 94.747L67.846 94.8457C68.3589 96.1639 68.5709 97.8428 68.5637 99.8808C68.5627 100.181 68.5579 100.481 68.5481 100.787L68.5296 101.251C68.5189 101.486 68.506 101.725 68.4905 101.972L68.4563 102.476L68.4153 103.003L68.3674 103.559L68.1809 105.566L68.1487 105.979L68.138 106.15L68.1282 106.37L66.4387 106.318L66.4456 106.154L66.4612 105.877L66.4768 105.666L66.5071 105.302L66.6839 103.411L66.7297 102.873L66.7698 102.362L66.803 101.876C66.818 101.638 66.8308 101.408 66.8411 101.183L66.8577 100.738C66.8671 100.446 66.8723 100.16 66.8733 99.875C66.8795 98.1118 66.7075 96.6752 66.3245 95.6074L66.2708 95.4638C66.0791 94.9713 65.9056 94.2727 65.7551 93.458L65.6878 93.0742C65.6547 92.8785 65.6225 92.6773 65.5921 92.4717L65.5335 92.0547L65.4778 91.6279L65.427 91.1933L65.3792 90.7529L65.3352 90.3086L65.2962 89.8623L65.261 89.416L65.2307 88.9717L65.2044 88.5312L65.1829 88.0957L65.1663 87.6689L65.1594 87.459L65.1506 87.0468L65.1477 86.8457L65.1458 86.4531L65.1497 86.0761C65.1886 83.3386 65.4568 80.7376 65.9553 78.2744C64.323 75.3834 62.1308 72.4558 59.3762 69.4922L59.1321 69.2304L58.8821 68.959L58.5276 68.5683L58.3049 68.3144L58.0969 68.0693C55.4841 64.9289 53.4175 61.2876 51.7415 57.041C51.6984 56.9319 51.6613 56.879 51.594 56.832L51.5579 56.8086L50.3362 56.084L48.8049 55.1679L48.2249 54.8164L47.1292 54.1426C45.2054 52.9463 43.7692 51.3468 42.9026 49.372L42.8176 49.1738L42.4592 48.3047L41.9505 47.0537L41.2678 45.3496L38.8108 39.1396L38.6057 38.6162L38.5227 38.4131L38.4446 38.2343L38.3704 38.0781C38.2412 37.8171 38.1219 37.6448 37.969 37.4922L37.7971 37.3301L37.3118 36.8554L37.1614 36.7119L37.0755 36.6338L37.0042 36.5713L36.9309 36.5517L35.9944 36.3232C35.8503 36.2862 35.7102 36.2488 35.5686 36.209C34.3474 35.8652 33.2229 35.4106 32.1467 34.7578C31.5194 34.3772 30.9338 33.9416 30.3958 33.4443C30.3496 33.4016 30.3032 33.3559 30.2581 33.3086L30.1907 33.2363L29.763 32.6025L29.0491 31.5693L28.7141 31.0947L28.2073 30.3916L27.8909 29.9619L27.7229 29.7363L27.4036 29.3164C27.0841 28.9009 26.7659 28.5032 26.4671 28.1543L26.1956 27.8418C23.6327 24.8697 23.3702 22.6757 25.01 20.0996ZM70.8557 60.8916L70.6467 60.9638C70.8238 61.2515 70.9968 61.5412 71.1663 61.832L71.4182 62.2695L71.5921 62.5801L71.7903 62.6806L72.0471 62.8056L71.9934 62.3291C71.9245 61.6916 71.843 61.4096 71.6712 61.0879L71.5979 60.956L71.4407 60.6943L70.8557 60.8916Z" fill="#A78BFA"/>
<path d="M61.7947 99.0169C62.1984 99.1792 62.6061 99.332 63.0167 99.4763L63.8135 99.7566L64.374 98.1628L63.5768 97.8817C63.1899 97.7457 62.8059 97.6015 62.4254 97.4485L61.6412 97.1332L61.0105 98.7015L61.7947 99.0169ZM46.5112 62.5538L46.809 61.7633C46.9535 61.3793 47.1059 60.9978 47.267 60.6204L47.5994 59.8439L46.0445 59.1799L45.7134 59.957C45.5426 60.357 45.3802 60.761 45.227 61.1681L44.9292 61.9586L46.5112 62.5538ZM57.142 96.6485C57.5107 96.8793 57.885 97.1018 58.2635 97.3161L58.9985 97.733L59.8318 96.2621L59.0959 95.8456C58.7392 95.6436 58.3869 95.4338 58.0394 95.2162L57.3227 94.7672L56.4265 96.2L57.142 96.6485ZM45.3358 67.3027L45.4913 66.4718C45.567 66.0688 45.6519 65.6675 45.7452 65.2681L45.937 64.4452L44.2916 64.0604L44.0989 64.8837C44 65.3072 43.9106 65.7331 43.8304 66.1605L43.6745 66.9905L45.3358 67.3027ZM52.9495 93.4673C53.2712 93.7604 53.5998 94.0463 53.934 94.3246L54.5838 94.8657L55.6651 93.5665L55.0153 93.0254C54.7004 92.7632 54.3911 92.4942 54.088 92.2181L53.4632 91.6484L52.3251 92.8985L52.9495 93.4673ZM45.0054 72.2478L45.0116 71.4028C45.015 70.9927 45.0274 70.5827 45.0489 70.1733L45.0927 69.3293L43.4052 69.2404L43.3605 70.0847C43.3378 70.5191 43.3247 70.9543 43.3212 71.3893L43.315 72.2344L45.0054 72.2478ZM49.4292 89.6327C49.6939 89.9783 49.9659 90.3178 50.2453 90.6506L50.7887 91.2984L52.0833 90.212L51.54 89.5643C51.2766 89.2506 51.0204 88.9306 50.771 88.6049L50.257 87.934L48.9153 88.9618L49.4292 89.6327ZM45.5508 77.1393L45.4084 76.3065C45.3393 75.9021 45.2785 75.4966 45.2274 75.0901L45.1217 74.2513L43.4448 74.4623L43.5505 75.3011C43.6048 75.7323 43.6685 76.1626 43.7419 76.5917L43.8843 77.4245L45.5508 77.1393ZM46.6082 85.1713C46.8072 85.5589 47.0148 85.9414 47.2299 86.3184L47.6484 87.0521L49.1166 86.2146L48.6981 85.4809C48.4953 85.1254 48.2994 84.765 48.1117 84.3995L47.7254 83.6468L46.2219 84.4187L46.6082 85.1713ZM46.9523 81.868L46.6658 81.0731C46.5263 80.6863 46.3953 80.2971 46.2733 79.9061L46.0221 79.0993L44.408 79.603L44.6601 80.4094C44.7894 80.8239 44.928 81.2362 45.0758 81.6461L45.3623 82.4411L46.9523 81.868Z" fill="#A78BFA"/>
<path d="M47.8185 64.1124L49.4343 63.6162L49.1862 62.8083L48.026 59.0307L47.7966 58.2839L47.0341 58.454L43.0405 59.3447L42.2156 59.5287L42.5836 61.1784L43.4084 60.9945L46.6388 60.2747L47.5704 63.3045L47.8185 64.1124Z" fill="#A78BFA"/>
</g>
</g>
<defs>
<linearGradient id="paint0_linear_847_32273" x1="122.425" y1="41.7407" x2="41.5841" y2="87.9396" gradientUnits="userSpaceOnUse">
<stop stop-color="#A78BFA" stop-opacity="0.8"/>
<stop offset="1" stop-color="#A78BFA" stop-opacity="0.01"/>
</linearGradient>
</defs>
</svg>
