<svg width="24" height="24" viewBox="0 0 24 24" fill="none" xmlns="http://www.w3.org/2000/svg">
<path d="M10.3857 7.39682L5.70404 12C5.40807 12.291 5.03139 12.4365 4.57399 12.4365C4.11659 12.4365 3.73991 12.291 3.44395 12C3.14798 11.709 3 11.3386 3 10.8889C3 10.4392 3.14798 10.0688 3.44395 9.77778L10.87 2.47619C11.1928 2.15873 11.5695 2 12 2C12.4305 2 12.8072 2.15873 13.13 2.47619L20.5561 9.77778C20.852 10.0688 21 10.4392 21 10.8889C21 11.3386 20.852 11.709 20.5561 12C20.2601 12.291 19.8834 12.4365 19.426 12.4365C18.9686 12.4365 18.5919 12.291 18.296 12L13.6143 7.39682V20.4127C13.6143 20.8624 13.4594 21.2397 13.1494 21.5444C12.8395 21.8492 12.4563 22.0011 12 22C11.5437 21.9989 11.1605 21.8466 10.8506 21.5429C10.5406 21.2391 10.3857 20.8624 10.3857 20.4127V7.39682Z" fill="#CCCCCC"/>
</svg>
