<svg width="24" height="24" viewBox="0 0 24 24" fill="none" xmlns="http://www.w3.org/2000/svg">
<path fill-rule="evenodd" clip-rule="evenodd" d="M8.07974 12.7436C8.2818 12.9441 8.53245 13.0444 8.83168 13.0444C9.13021 13.0451 9.38086 12.9452 9.58363 12.7446C9.7864 12.5441 9.88779 12.2959 9.88779 12V5.55092L11.868 7.50914C12.0792 7.71871 12.3256 7.81897 12.6073 7.80992C12.8889 7.80087 13.1353 7.70061 13.3465 7.50914C13.5571 7.30026 13.6669 7.05657 13.676 6.77807C13.6852 6.49957 13.5842 6.25588 13.3729 6.047L9.57096 2.28722C9.46535 2.18139 9.35093 2.10724 9.22772 2.06477C9.10451 2.0223 8.9725 2.00071 8.83168 2.00002C8.69087 1.99932 8.55886 2.0209 8.43564 2.06477C8.31243 2.10863 8.19802 2.18278 8.09241 2.28722L4.31683 6.02089C4.10561 6.23046 4 6.47868 4 6.76554C4 7.05239 4.10561 7.30026 4.31683 7.50914C4.52876 7.70061 4.77976 7.79634 5.06983 7.79634C5.35991 7.79634 5.60176 7.70061 5.79538 7.50914L7.77558 5.55092V12C7.77628 12.2952 7.87767 12.5431 8.07974 12.7436ZM14.7723 21.9352C14.8955 21.9784 15.0275 22 15.1683 22C15.3091 22.0006 15.4411 21.9791 15.5644 21.9352C15.6876 21.8913 15.802 21.8172 15.9076 21.7127L19.6832 17.9791C19.8944 17.7709 20 17.523 20 17.2355C20 16.9479 19.8944 16.6997 19.6832 16.4908C19.4727 16.2994 19.222 16.2036 18.9312 16.2036C18.6404 16.2036 18.3982 16.2994 18.2046 16.4908L16.2244 18.4491V12C16.2258 11.7055 16.1248 11.4576 15.9213 11.2564C15.7178 11.0552 15.4668 10.9549 15.1683 10.9556C14.8698 10.9563 14.6191 11.0566 14.4164 11.2564C14.2136 11.4562 14.1122 11.7041 14.1122 12V18.4491L12.132 16.4908C11.9208 16.2813 11.6744 16.181 11.3927 16.1901C11.1111 16.1991 10.8647 16.2994 10.6535 16.4908C10.4429 16.6997 10.3331 16.9434 10.324 17.2219C10.3148 17.5004 10.4158 17.7441 10.6271 17.953L14.429 21.7127C14.5347 21.8179 14.6491 21.892 14.7723 21.9352Z" fill="#CCCCCC"/>
</svg>
