<svg width="160" height="560" viewBox="0 0 160 560" fill="none" xmlns="http://www.w3.org/2000/svg">
<path d="M0.33695 206.577C2.01143 202.842 3.55501 194.086 2.52512 188.29C1.49523 182.495 0.336156 153.13 3.55344 145.403C6.77154 137.676 2.91043 123.382 11.5348 109.344C20.1592 95.307 39.8572 95.8202 39.8572 95.8202C39.8572 95.8202 58.3935 89.7657 60.967 86.0305C63.5405 82.2961 62.2553 66.0688 62.2553 66.0688C57.2351 62.3345 56.7206 51.3851 56.7206 51.3851C56.7206 51.3851 56.3337 53.3173 54.4024 52.0292C52.471 50.7418 51.8281 37.7341 52.3426 36.5753C52.858 35.4164 55.0453 35.8027 55.0453 35.8027C55.0453 35.8027 51.9573 18.8028 57.2351 10.0459C62.513 1.28898 74.9993 0 79.8903 0C84.7812 0 97.2675 1.28898 102.545 10.0459C107.823 18.8028 104.735 35.8027 104.735 35.8027C104.735 35.8027 106.923 35.4164 107.438 36.5753C107.953 37.7341 107.309 50.7418 105.378 52.0292C103.447 53.3173 103.06 51.3851 103.06 51.3851C103.06 51.3851 102.545 62.3345 97.5252 66.0688C97.5252 66.0688 96.2408 82.2961 98.8135 86.0305C101.387 89.7657 119.923 95.8202 119.923 95.8202C119.923 95.8202 139.621 95.307 148.246 109.344C156.87 123.382 153.009 137.676 156.227 145.403C159.445 153.13 158.285 182.495 157.255 188.29C156.226 194.086 157.769 202.842 159.444 206.577C161.118 210.312 155.967 271.487 156.74 279.858C157.513 288.229 160.217 310.768 159.187 312.699C158.157 314.631 151.335 331.888 144.255 332.92C144.255 332.92 139.105 336.652 137.303 335.494C135.502 334.335 137.69 331.758 137.69 331.758C137.69 331.758 136.276 332.018 135.373 331.115C134.472 330.215 142.196 322.745 142.196 322.745C142.196 322.745 138.333 324.419 137.047 322.874C135.76 321.328 146.958 315.404 148.889 311.026C150.821 306.647 148.246 303.813 148.246 303.813L145.028 305.358C145.028 305.358 141.938 315.533 139.75 315.66C137.562 315.791 136.146 315.791 137.948 303.813C137.948 303.813 135.375 294.928 137.433 290.935C139.491 286.943 141.809 285.913 141.809 281.663C141.809 277.412 135.501 255.263 133.442 243.028C131.384 230.794 135.245 206.968 133.185 202.332C131.126 197.697 128.682 186.745 128.552 178.889C128.423 171.033 126.364 160.602 124.432 158.026C122.501 155.45 125.282 172.966 120.994 184.17C116.705 195.374 119.667 214.819 121.726 223.191C123.787 231.562 130.608 278.569 131.251 295.697C131.894 312.826 127.004 376.316 127.648 385.46C128.291 394.604 132.667 407.483 132.667 433.755C132.667 460.027 128.291 462.214 124.558 473.162C120.826 484.11 117.092 512.571 117.478 517.851C117.478 517.851 119.747 521.585 119.835 523.775C119.925 525.964 119.797 528.668 120.569 531.373C121.34 534.078 129.194 553.14 126.877 555.843C124.558 558.548 110.914 558.805 106.151 558.419C106.151 558.419 104.993 560.607 100.23 559.835C95.467 559.063 96.11 542.317 97.5268 533.562C98.9436 524.807 94.8224 522.619 96.11 517.08C97.3983 511.541 99.845 509.094 100.102 506.648C100.359 504.202 102.289 475.738 98.942 461.96C95.5955 448.179 96.11 427.186 99.3289 417.914C102.547 408.642 97.782 403.49 94.307 392.286C90.8329 381.082 89.0292 353.909 89.0292 341.93C89.0292 329.954 85.0397 321.582 83.1084 314.628C81.177 307.674 81.4347 297.628 81.4347 297.628L79.8903 296.966L78.3459 297.628C78.3459 297.628 78.6035 307.674 76.6722 314.628C74.7408 321.582 70.7505 329.954 70.7505 341.93C70.7505 353.909 68.9476 381.082 65.4735 392.286C61.9985 403.49 57.2335 408.642 60.4516 417.914C63.6697 427.186 64.1851 448.179 60.8385 461.96C57.492 475.738 59.4218 504.202 59.6786 506.648C59.9355 509.094 62.3822 511.541 63.6698 517.08C64.9581 522.619 60.837 524.807 62.2538 533.562C63.6698 542.317 64.3135 559.063 59.5502 559.835C54.7877 560.607 53.6294 558.419 53.6294 558.419C48.8668 558.805 35.2222 558.548 32.904 555.843C30.5865 553.14 38.4404 534.078 39.2118 531.373C39.984 528.668 39.8555 525.964 39.9452 523.775C40.0348 521.585 42.3022 517.851 42.3022 517.851C42.6883 512.571 38.9557 484.11 35.2223 473.162C31.4896 462.214 27.1132 460.027 27.1132 433.755C27.1132 407.483 31.4896 394.604 32.1326 385.46C32.7764 376.316 27.8862 312.826 28.5292 295.697C29.173 278.569 35.9945 231.562 38.0534 223.191C40.114 214.819 43.0752 195.374 38.7868 184.17C34.4985 172.966 37.2796 155.45 35.3474 158.026C33.4169 160.602 31.358 171.033 31.2287 178.889C31.0987 186.745 28.6552 197.697 26.5954 202.332C24.5357 206.968 28.3967 230.794 26.3385 243.028C24.2804 255.263 17.971 277.412 17.971 281.663C17.971 285.913 20.2893 286.943 22.3474 290.935C24.4056 294.928 21.8321 303.813 21.8321 303.813C23.6334 315.791 22.219 315.791 20.0308 315.66C17.8426 315.533 14.753 305.358 14.753 305.358L11.5348 303.813C11.5348 303.813 8.95975 306.647 10.8911 311.026C12.8232 315.404 24.0203 321.328 22.7336 322.874C21.4468 324.419 17.5841 322.745 17.5841 322.745C17.5841 322.745 25.3087 330.215 24.4072 331.115C23.5057 332.018 22.0906 331.758 22.0906 331.758C22.0906 331.758 24.2788 334.335 22.4767 335.494C20.6754 336.652 15.526 332.92 15.526 332.92C8.44682 331.888 1.62367 314.631 0.593786 312.699C-0.436101 310.768 2.26748 288.229 3.0405 279.858C3.81352 271.487 -1.33753 210.312 0.33695 206.577Z" fill="#7F7F81"/>
</svg>
