<svg width="40" height="40" viewBox="0 0 40 40" fill="none" xmlns="http://www.w3.org/2000/svg">
<path d="M9.95082 22.3269C10.0974 22.4735 10.3173 22.5468 10.5371 22.5468C10.757 22.5468 10.9769 22.4368 11.1234 22.2536L15.0077 17.6365V38.1205C15.0077 38.5603 15.3742 38.9267 15.8139 38.9267H18.4889C18.9286 38.9267 19.2951 38.5603 19.2951 38.1205V26.2845H20.4311V38.1938C20.4311 38.6336 20.7975 39 21.2372 39H23.9122C24.352 39 24.7184 38.6336 24.7184 38.1938V17.6731L28.7493 22.3269C29.0424 22.6567 29.5554 22.6567 29.8852 22.3635L29.9219 22.3269L31.8274 20.3848C32.1205 20.0916 32.1205 19.6152 31.8274 19.3221L26.1475 13.0193C24.9749 11.7367 23.2893 10.9672 21.567 10.9672H18.0858C16.3269 11.0039 14.6779 11.7367 13.5053 13.0193L7.8621 19.3587C7.56895 19.6519 7.56895 20.1283 7.8621 20.4214L9.95082 22.3269ZM15.4108 5.43394C15.4108 7.8891 17.3896 9.86789 19.8081 9.86789C22.2266 9.86789 24.2054 7.8891 24.2054 5.43394C24.2054 2.97878 22.2266 1 19.8081 1C17.3896 1 15.4108 2.97878 15.4108 5.43394Z" fill="url(#paint0_linear_570_13583)"/>
<defs>
<linearGradient id="paint0_linear_570_13583" x1="7.45283" y1="28.7735" x2="27.2249" y2="39.2158" gradientUnits="userSpaceOnUse">
<stop stop-color="#7684FF"/>
<stop offset="1" stop-color="#6E209A"/>
</linearGradient>
</defs>
</svg>
