<svg width="40" height="40" viewBox="0 0 40 40" fill="none" xmlns="http://www.w3.org/2000/svg">
<path d="M20 5C22.0749 5 24.0247 5.39419 25.8496 6.18164C27.6746 6.96914 29.2623 8.0377 30.6123 9.3877C31.9623 10.7377 33.0309 12.3254 33.8184 14.1504C34.6058 15.9753 35 17.9251 35 20C35 22.0749 34.6058 24.0247 33.8184 25.8496C33.0309 27.6746 31.9623 29.2623 30.6123 30.6123C29.2623 31.9623 27.6746 33.0309 25.8496 33.8184C24.0247 34.6058 22.0749 35 20 35C17.9251 35 15.9753 34.6058 14.1504 33.8184C12.3254 33.0309 10.7377 31.9623 9.3877 30.6123C8.0377 29.2623 6.96914 27.6746 6.18164 25.8496C5.39419 24.0247 5 22.0749 5 20C5 17.9251 5.39419 15.9753 6.18164 14.1504C6.96914 12.3254 8.0377 10.7377 9.3877 9.3877C10.7377 8.0377 12.3254 6.96914 14.1504 6.18164C15.9753 5.39419 17.9251 5 20 5ZM11.5254 28.4746C12.6504 29.5996 13.9438 30.4686 15.4062 31.0811C16.8687 31.6936 18.4 32 20 32C23.35 32 26.1877 30.8377 28.5127 28.5127C30.8377 26.1877 32 23.35 32 20C32 18.4 31.6936 16.8687 31.0811 15.4062C30.4686 13.9438 29.5996 12.6504 28.4746 11.5254L11.5254 28.4746ZM27.5 26H20V23.75H27.5V26ZM14 14H11V16.25H14V19.25H16.25V16.25H19.25V14H16.25V11H14V14Z" fill="url(#paint0_linear_372_21050)"/>
<defs>
<linearGradient id="paint0_linear_372_21050" x1="4.76717" y1="26.9264" x2="23.3112" y2="42.1759" gradientUnits="userSpaceOnUse">
<stop stop-color="#7684FF"/>
<stop offset="1" stop-color="#6E209A"/>
</linearGradient>
</defs>
</svg>
