<svg width="116" height="116" viewBox="0 0 116 116" fill="none" xmlns="http://www.w3.org/2000/svg">
<mask id="mask0_847_32083" style="mask-type:luminance" maskUnits="userSpaceOnUse" x="16" y="16" width="84" height="84">
<rect x="16.5713" y="16.5723" width="82.8571" height="82.8571" fill="white"/>
</mask>
<g mask="url(#mask0_847_32083)">
<path d="M46.8252 65.9156C47.1768 65.8035 47.5266 65.6703 47.7649 65.5447C48.2941 65.266 48.8329 65.0875 48.9564 64.8655C50.4133 62.2442 52.1464 59.8094 54.0974 57.5408C56.0319 55.2909 58.1787 53.2538 60.6511 51.5849C60.8553 51.4468 61.0516 51.2927 61.2693 51.1789C61.6867 50.9615 61.9894 50.6361 62.2651 50.262C64.2406 47.5784 66.2255 44.9023 68.4499 42.4144C69.7655 40.943 71.1651 39.5564 72.6868 38.2986C75.0481 36.3461 77.4354 34.4253 79.783 32.4568C81.7983 30.7672 83.6569 28.9081 85.4728 27.007C87.763 24.6093 89.9563 22.1271 91.9931 19.5111C92.6144 18.7132 93.1919 18.7705 93.7884 19.5191C94.9278 20.9503 94.9214 22.8343 93.7521 24.2468C92.4472 25.8239 91.1336 27.394 89.8247 28.9674C89.7552 29.0512 89.693 29.1408 89.6272 29.2274C89.6421 29.2587 89.6566 29.2896 89.6712 29.3206C89.864 29.2785 90.0594 29.2435 90.2501 29.1929C91.8233 28.7748 93.2394 29.8773 93.1594 31.5071C93.1116 32.4781 92.5231 33.1384 91.614 33.4787C89.4332 34.2949 87.2447 35.0902 85.0681 35.9179C84.7119 36.0535 84.3768 36.2796 84.0762 36.5192C83.6911 36.8276 83.3556 37.1969 82.9903 37.5308C82.366 38.1 82.121 38.8785 81.8206 39.6252C80.4227 43.1005 79.0653 46.5922 77.62 50.0474C76.7713 52.077 75.3219 53.648 73.4477 54.8027C71.9175 55.7454 70.3667 56.6555 68.8166 57.5659C68.5351 57.731 68.3687 57.9448 68.2502 58.2425C66.6311 62.3074 64.5489 66.105 61.724 69.4692C61.3873 69.8698 61.0299 70.2531 60.6738 70.6369C53.7562 77.9293 50.0533 85.0633 49.565 92.0391C49.4803 93.2496 49.3969 94.454 49.3148 95.6525" fill="url(#paint0_linear_847_32083)"/>
<path d="M31.3682 33.1328C36.1413 33.1329 40.0825 36.9941 40.3564 41.9209L40.3584 41.9697L40.3691 44.749L40.6094 44.8711L40.6787 44.9092C41.2243 45.2302 41.5479 45.9651 41.5479 46.9775C41.5478 47.2645 41.5437 47.537 41.5352 47.7949L41.5186 48.1709C41.4736 49.024 41.3761 49.7042 41.2246 50.2275C41.0557 50.811 40.8044 51.2401 40.4854 51.4971L40.3457 51.6094L40.3242 51.7871L40.2988 51.9707C40.0861 53.3778 39.4158 54.8271 38.3945 56.1133L38.2988 56.2334V59.5547L38.3008 59.6914C38.3748 62.9699 41.1436 65.5381 44.4912 65.5381C45.0633 65.5106 45.6874 65.3546 46.5264 65.0859C46.8428 64.9848 47.3306 65.18 47.6221 65.6309C47.904 66.0668 48.0407 66.4307 47.4268 66.6445C46.8124 66.8584 46.1775 66.994 45.5635 67.0723C45.1503 67.1249 44.7967 67.1366 44.5322 67.126L44.4912 67.124L44.335 67.1221C40.1042 67.045 36.7276 63.6849 36.7275 59.5547V57.8398L36.0332 58.3135L35.8564 58.4316C34.4354 59.3582 32.8809 59.8672 31.3682 59.8672C29.7493 59.8672 28.0893 59.2949 26.6006 58.2598L25.9033 57.7744V59.5547L25.9023 59.6963C25.8279 63.6577 22.6473 66.8785 18.6445 67.1094L18.6426 65.5859C18.6546 65.5851 18.6667 65.5839 18.6787 65.583C21.8416 65.3352 24.3319 62.7324 24.332 59.5547V56.125L24.2412 56.0059L24.1123 55.834C23.1811 54.5689 22.587 53.1642 22.4238 51.7998L22.4023 51.6162L22.2559 51.5029L22.1807 51.4404C21.8849 51.1798 21.6491 50.7736 21.4863 50.2373C21.2586 49.4867 21.1465 48.4164 21.1465 46.9775C21.1465 45.941 21.5073 45.2002 22.1191 44.8965L22.3643 44.7754V41.9609L22.3662 41.9053L22.377 41.7471C22.7401 36.9067 26.6499 33.1328 31.3682 33.1328ZM31.3682 35.0938C27.6921 35.0938 24.6234 38.1111 24.3789 41.9971V45.5146L24.377 45.5918C24.3367 46.2215 23.8029 46.7063 23.1729 46.7168C23.165 46.7909 23.1611 46.8783 23.1611 46.9775C23.1611 47.0398 23.1607 47.1015 23.1611 47.1621L23.167 47.5156C23.1684 47.573 23.1701 47.6299 23.1719 47.6855L23.1855 48.0088C23.1882 48.061 23.1912 48.1126 23.1943 48.1631L23.2148 48.4551C23.2583 48.9717 23.3272 49.3824 23.418 49.6816L23.4551 49.793L23.4883 49.8789C24.0096 50.0179 24.3925 50.4845 24.3926 51.0381C24.3926 54.2271 27.9213 57.9053 31.3682 57.9053C34.7926 57.9052 38.3449 54.1875 38.3574 51.0332C38.3598 50.4966 38.7217 50.0435 39.2197 49.8916C39.2246 49.8792 39.2301 49.8658 39.2354 49.8516L39.2676 49.7539L39.2852 49.6963C39.3726 49.3942 39.4387 48.9801 39.4805 48.4609L39.501 48.168C39.5099 48.016 39.5173 47.856 39.5225 47.6885L39.5303 47.3428L39.5332 46.9775C39.5332 46.8794 39.5293 46.7918 39.5225 46.7158C38.8904 46.6846 38.36 46.174 38.3574 45.5195L38.3428 41.9971L38.333 41.8486C38.0341 38.037 34.9994 35.0938 31.3682 35.0938Z" fill="#FF6B8A"/>
<path d="M55.6035 94.7343C55.159 94.827 54.7125 94.9103 54.2643 94.9836L53.393 95.1257L53.1082 93.384L53.9795 93.2418C54.4022 93.1727 54.8234 93.0947 55.2427 93.0072L56.1065 92.8264L56.4675 94.5548L55.6035 94.7343ZM78.0526 60.1279L77.8875 59.2615C77.8075 58.8408 77.7182 58.4215 77.6197 58.0047L77.4167 57.1463L79.1348 56.7401L79.3378 57.5985C79.4423 58.0407 79.5371 58.4861 79.622 58.9324L79.7871 59.7988L78.0526 60.1279ZM60.8199 93.1602C60.3984 93.329 59.9727 93.4881 59.5441 93.6383L58.7118 93.9303L58.1283 92.2647L58.9607 91.9727C59.3649 91.8311 59.7663 91.6812 60.1639 91.5221L60.9828 91.1934L61.6383 92.8324L60.8199 93.1602ZM78.4068 65.2217L78.3964 64.3393C78.3915 63.9113 78.377 63.4834 78.3531 63.0559L78.3035 62.1748L80.0656 62.0756L80.1152 62.9567C80.1406 63.4104 80.1554 63.8651 80.1606 64.3194L80.171 65.2018L78.4068 65.2217ZM65.7176 90.6748C65.3325 90.9155 64.9422 91.1478 64.5469 91.3712L63.7785 91.8049L62.9097 90.2685L63.6781 89.8348C64.0509 89.6241 64.4193 89.4048 64.7824 89.1779L65.5309 88.7103L66.4661 90.2072L65.7176 90.6748ZM77.8433 70.3658L77.991 69.4964C78.0629 69.0742 78.1255 68.6502 78.1783 68.2254L78.2872 67.3495L80.0386 67.5681L79.9302 68.4432C79.8742 68.8939 79.8073 69.3436 79.7311 69.7916L79.5829 70.6618L77.8433 70.3658ZM70.0543 87.3965C69.7174 87.7017 69.3737 87.9994 69.0241 88.289L68.3445 88.8514L67.2189 87.4916L67.8985 86.9292C68.228 86.6563 68.5522 86.3758 68.8697 86.0881L69.5232 85.496L70.7083 86.8036L70.0543 87.3965ZM76.379 75.2905L76.6791 74.4607C76.8253 74.058 76.9629 73.6526 77.0906 73.2444L77.354 72.4013L79.0389 72.9284L78.7747 73.771C78.6391 74.2045 78.4936 74.6355 78.3384 75.0632L78.0375 75.8924L76.379 75.2905ZM73.79 83.3437C73.5129 83.7045 73.2281 84.0585 72.9363 84.4055L72.3683 85.0812L71.0171 83.9452L71.5851 83.2695C71.8603 82.9423 72.1289 82.6084 72.3902 82.2682L72.9284 81.5686L74.3274 82.6436L73.79 83.3437ZM74.0561 79.8859L74.4995 79.1224C74.7152 78.751 74.9226 78.3759 75.1209 77.997L75.53 77.2147L77.0933 78.0331L76.6842 78.8154C76.4739 79.2172 76.2544 79.615 76.0257 80.0087L75.5823 80.7722L74.0561 79.8859Z" fill="#FF6B8A"/>
<path d="M76.4107 61.5161L74.8421 60.7069L75.2467 59.9226L77.1341 56.2637L77.5055 55.5438L78.2545 55.8523L82.2196 57.4857L83.0356 57.8218L82.3634 59.4537L81.5474 59.1176L78.3321 57.7936L76.8153 60.7318L76.4107 61.5161Z" fill="#FF6B8A"/>
<path d="M46.5572 65.0742C46.8879 64.9688 47.1818 64.8539 47.3538 64.7633C47.3634 64.7582 47.3634 64.7582 47.373 64.7532C47.555 64.6581 48.1356 64.3875 48.2209 64.3409C48.2506 64.3247 48.2446 64.3293 48.1851 64.4362C49.6377 61.8225 51.3891 59.3361 53.4283 56.9648C55.5442 54.5039 57.7487 52.4787 60.1567 50.8532C60.1964 50.8264 60.2265 50.8054 60.3046 50.7503L60.3145 50.7433C60.5624 50.5684 60.6843 50.4883 60.8616 50.3957C61.101 50.2709 61.3074 50.0735 61.5545 49.7381C64.3937 45.8813 65.8948 43.9476 67.7921 41.8255C69.2075 40.2426 70.6349 38.8492 72.1246 37.6178C72.9056 36.972 73.5408 36.451 74.9379 35.3083C74.951 35.2976 74.951 35.2976 74.964 35.2869C77.0926 33.5459 78.0436 32.763 79.2161 31.7799C80.973 30.3069 82.6611 28.6723 84.8348 26.3968C87.2556 23.8623 89.3853 21.4235 91.2969 18.9682C92.2624 17.7284 93.5182 17.763 94.4789 18.9688C95.8805 20.7293 95.8654 23.0774 94.4321 24.8088C93.7223 25.6666 93.1288 26.3801 91.8835 27.8741C91.8269 27.942 91.8269 27.942 91.7704 28.0098C91.7105 28.0816 91.6535 28.15 91.5991 28.2153L91.5429 28.2828L91.6166 28.2956C92.9987 28.6004 94.0393 29.8002 94.0452 31.3609L94.0409 31.5499C93.9766 32.8565 93.1856 33.8321 91.9234 34.3046C91.2112 34.5711 90.6398 34.7831 89.3597 35.2568C89.344 35.2626 89.344 35.2626 89.3283 35.2684C87.3702 35.9929 86.4766 36.3258 85.3821 36.7421C85.1595 36.8268 84.9111 36.9816 84.628 37.2074C84.4577 37.3438 84.3187 37.4732 84.0111 37.7745C84.0071 37.7784 84.0071 37.7784 84.0031 37.7823C83.8024 37.9789 83.708 38.0698 83.585 38.1822C83.2661 38.473 83.0914 38.8 82.7597 39.649L82.7555 39.6597C82.699 39.8044 82.6728 39.8709 82.6395 39.9539C82.6153 40.0139 82.5915 40.0732 82.5678 40.1321L82.356 40.6598C82.2374 40.956 82.1141 41.2645 81.9714 41.6221L81.79 42.0772C81.6615 42.3995 81.517 42.7626 81.3487 43.1855L81.3244 43.2465C79.9038 46.8159 79.2613 48.4101 78.4343 50.3872C77.5357 52.5361 75.9964 54.2684 73.9107 55.5534C73.7799 55.634 73.6512 55.713 73.5231 55.7914L73.1392 56.0255C72.1761 56.6108 71.1595 57.2127 69.4296 58.2287C69.3703 58.2635 69.3703 58.2635 69.3111 58.2983C69.2873 58.3122 69.2873 58.3122 69.2632 58.3264C69.1662 58.3833 69.1228 58.436 69.0702 58.5683C67.3112 62.9845 65.1418 66.7707 62.3997 70.0363C62.1243 70.3641 61.8905 70.6225 61.3909 71.161L61.3597 71.1946C61.3403 71.2155 61.3403 71.2155 61.3142 71.2436C54.5267 78.3988 50.9178 85.3516 50.4455 92.1001C50.3608 93.3101 50.2774 94.5141 50.1954 95.7121L48.4345 95.5916C48.5166 94.3926 48.6 93.1877 48.6848 91.9768C49.189 84.7737 52.986 77.4584 60.0269 70.0362L60.0658 69.9942C60.0814 69.9774 60.0814 69.9774 60.097 69.9606C60.2571 69.7881 60.3883 69.646 60.5013 69.5221L60.7065 69.2952C60.8314 69.1554 60.9369 69.0336 61.0483 68.901C63.6612 65.7892 65.7376 62.1653 67.4303 57.9155C67.6236 57.4298 67.9226 57.0666 68.3698 56.8042C68.3935 56.7903 68.3935 56.7903 68.4172 56.7764L68.4611 56.7506C68.4831 56.7377 68.4963 56.7299 68.5358 56.7067C70.2574 55.6956 71.2676 55.0976 72.2214 54.5179L72.6015 54.2861C72.7283 54.2086 72.8555 54.1304 72.9849 54.0507C74.7656 52.9536 76.0546 51.503 76.806 49.7061C76.8692 49.555 76.9313 49.4061 76.9928 49.2584L77.1759 48.8176C77.8431 47.2063 78.4857 45.6061 79.6845 42.5939L79.7088 42.5328C80.2143 41.2627 80.5063 40.5304 80.7887 39.8261L80.9301 39.4739L81.002 39.2952C81.0324 39.2195 81.0561 39.1593 81.1115 39.0175C81.1136 39.0122 81.1136 39.0122 81.1157 39.0068C81.5439 37.9106 81.8105 37.4116 82.395 36.8787C82.4973 36.7852 82.5818 36.7039 82.7681 36.5214C82.7721 36.5175 82.7721 36.5175 82.7761 36.5136C83.1254 36.1714 83.2934 36.015 83.5262 35.8285C83.9414 35.4975 84.3351 35.2521 84.7545 35.0924C85.8558 34.6736 86.7528 34.3394 88.7158 33.6131C88.7315 33.6073 88.7315 33.6073 88.7473 33.6014C89.7514 33.2299 90.3185 33.0197 90.8595 32.8179L91.1545 32.7078L91.3047 32.6516C91.9371 32.4149 92.2502 32.0286 92.278 31.4632C92.3281 30.4431 91.485 29.7771 90.4769 30.0451C90.3517 30.0784 90.2459 30.1019 90.054 30.1414L90.0309 30.1461C89.9416 30.1645 89.9416 30.1645 89.8594 30.1821L89.1715 30.3322L88.8724 29.6949C88.851 29.6492 88.851 29.6492 88.8305 29.6061L88.5996 29.121L88.9245 28.6931C88.9509 28.658 88.9509 28.658 88.9819 28.6159C89.0565 28.5146 89.0926 28.4672 89.1463 28.4024C89.5028 27.9738 89.8156 27.5984 90.4146 26.8797C90.4711 26.8119 90.4711 26.8119 90.5277 26.7441C91.7716 25.2516 92.3643 24.5393 93.0724 23.6834C93.9719 22.5969 93.981 21.1771 93.0983 20.0684C93.0762 20.0406 93.0565 20.0151 93.0391 19.9919L92.9567 19.8807C92.8619 19.7553 92.8737 19.816 92.6896 20.0526C90.7391 22.5577 88.5708 25.0406 86.1111 27.6159C83.8963 29.9344 82.1658 31.6101 80.3501 33.1324C79.1704 34.1216 78.2156 34.9075 76.0815 36.6531C76.0684 36.6638 76.0684 36.6638 76.0553 36.6745C74.6607 37.8152 74.0271 38.3349 73.2492 38.9781C71.8313 40.1501 70.4667 41.4822 69.1078 43.0019C67.2591 45.0697 65.783 46.9711 62.9756 50.7849C62.5822 51.3187 62.1905 51.6935 61.6781 51.9604C61.5942 52.0043 61.5163 52.0555 61.3322 52.1854L61.3222 52.1924C61.2386 52.2514 61.1978 52.2799 61.1449 52.3156C58.8751 53.8478 56.7853 55.7677 54.7666 58.1156C52.8034 60.3983 51.1209 62.7871 49.7277 65.2938C49.5784 65.5623 49.3708 65.7239 49.0671 65.8898C48.9198 65.9702 48.3193 66.2501 48.1905 66.3175L48.1763 66.3249C47.8973 66.4718 47.5144 66.6215 47.0934 66.7558L46.5572 65.0742Z" fill="#FF6B8A"/>
</g>
<defs>
<linearGradient id="paint0_linear_847_32083" x1="70.4126" y1="109.197" x2="135.626" y2="77.6487" gradientUnits="userSpaceOnUse">
<stop stop-color="#FF6B8A" stop-opacity="0.01"/>
<stop offset="1" stop-color="#FF6B8A" stop-opacity="0.8"/>
</linearGradient>
</defs>
</svg>
