<svg width="108" height="116" viewBox="0 0 108 116" fill="none" xmlns="http://www.w3.org/2000/svg">
<mask id="mask0_847_32052" style="mask-type:luminance" maskUnits="userSpaceOnUse" x="12" y="16" width="84" height="84">
<rect x="12.5713" y="16.5723" width="82.8571" height="82.8571" fill="white"/>
</mask>
<g mask="url(#mask0_847_32052)">
<path d="M83.1553 33.9609C78.1965 33.9612 74.1022 38.0147 73.8174 43.1875L73.8154 43.2393L73.8047 46.1582L73.5537 46.2861L73.4824 46.3262C72.9156 46.6633 72.5801 47.435 72.5801 48.498C72.5801 48.7993 72.5839 49.0856 72.5928 49.3564L72.6094 49.751C72.6561 50.647 72.7576 51.3615 72.915 51.9111C73.0906 52.5239 73.3519 52.9744 73.6836 53.2441L73.8281 53.3613L73.8506 53.5479L73.877 53.7402C74.0979 55.2176 74.7945 56.7393 75.8555 58.0898L75.9551 58.2168V61.7041L75.9531 61.8477C75.8761 65.2899 72.9993 67.9862 69.5215 67.9863C68.9272 67.9575 68.2789 67.7938 67.4072 67.5117C67.0784 67.4053 66.5715 67.6105 66.2686 68.084C65.9756 68.5418 65.8337 68.9229 66.4717 69.1475C67.1099 69.372 67.7693 69.5155 68.4072 69.5977C68.8365 69.6529 69.2038 69.6655 69.4785 69.6543L69.5215 69.6514L69.6836 69.6494C74.0791 69.5685 77.5867 66.0407 77.5869 61.7041V59.9033L78.3086 60.4004L78.4922 60.5244C79.9685 61.4974 81.5836 62.0311 83.1553 62.0312C84.8372 62.0312 86.5617 61.4306 88.1084 60.3438L88.833 59.835V61.7041L88.835 61.8525C88.9123 66.0121 92.2163 69.3933 96.375 69.6357L96.377 68.0361C96.3646 68.0352 96.3522 68.0352 96.3398 68.0342C93.0538 67.774 90.466 65.0406 90.4658 61.7041V58.1025L90.5605 57.9775L90.6943 57.7979C91.662 56.4693 92.2787 54.9933 92.4482 53.5605L92.4707 53.3682L92.623 53.25L92.7012 53.1846C93.0087 52.9108 93.2537 52.4834 93.4229 51.9199C93.6594 51.1318 93.7754 50.0086 93.7754 48.498C93.7754 47.4099 93.401 46.6324 92.7656 46.3135L92.5107 46.1855V43.2305L92.5088 43.1719L92.4971 43.0059C92.1197 37.9235 88.0573 33.9609 83.1553 33.9609ZM83.1553 36.0205C86.9745 36.0205 90.1629 39.1883 90.417 43.2686V46.9619L90.4199 47.042C90.4615 47.7034 91.0152 48.2126 91.6699 48.2236C91.6782 48.3016 91.6826 48.3936 91.6826 48.498C91.6826 48.5634 91.6821 48.6278 91.6816 48.6914L91.6758 49.0635C91.6744 49.1236 91.6728 49.1829 91.6709 49.2412L91.6572 49.5811C91.6545 49.6357 91.6517 49.6894 91.6484 49.7422L91.626 50.0498C91.5808 50.5919 91.5093 51.0228 91.415 51.3369L91.377 51.4541L91.3428 51.5449C90.801 51.6909 90.4023 52.1803 90.4023 52.7617C90.4023 56.1102 86.7364 59.9727 83.1553 59.9727C79.5975 59.9723 75.9075 56.0688 75.8945 52.7568C75.8923 52.1931 75.5157 51.7171 74.998 51.5576C74.993 51.5447 74.9878 51.5306 74.9824 51.5156L74.9482 51.4131L74.9297 51.3525C74.8388 51.0353 74.77 50.6008 74.7266 50.0557L74.7061 49.748C74.6967 49.5884 74.689 49.4201 74.6836 49.2441L74.6758 48.8818L74.6729 48.498C74.6729 48.3948 74.6764 48.3025 74.6836 48.2227C75.3401 48.1899 75.8916 47.6547 75.8945 46.9678L75.9092 43.2686L75.9189 43.1123C76.2295 39.1102 79.3827 36.0208 83.1553 36.0205Z" fill="#FF6B8A"/>
<path d="M57.967 98.6354C58.4313 98.7334 58.898 98.8209 59.3661 98.8982L60.2753 99.0484L60.5756 97.2301L59.6665 97.08C59.2253 97.0071 58.7857 96.9246 58.3482 96.8322L57.4468 96.6421L57.0657 98.4452L57.967 98.6354ZM34.6478 62.3666L34.8164 61.4607C34.8981 61.0208 34.9892 60.5823 35.0901 60.1464L35.2978 59.2488L33.5018 58.8339L33.294 59.7315C33.1872 60.1934 33.0903 60.6579 33.0037 61.1241L32.836 62.0295L34.6478 62.3666ZM52.5247 96.9717C52.9643 97.15 53.4076 97.3189 53.8545 97.4775L54.723 97.7856L55.3393 96.0487L54.4708 95.7405C54.0496 95.591 53.6315 95.4324 53.2173 95.2644L52.3634 94.9177L51.6708 96.625L52.5247 96.9717ZM34.2909 67.6892L34.2995 66.7683C34.304 66.3211 34.3185 65.8736 34.3425 65.427L34.3921 64.5063L32.5522 64.4075L32.5026 65.3282C32.4771 65.8015 32.4615 66.2754 32.4568 66.7494L32.4473 67.6708L34.2909 67.6892ZM47.4228 94.3476C47.8233 94.6014 48.2292 94.8466 48.6404 95.0822L49.441 95.5404L50.3569 93.942L49.5571 93.4832C49.1694 93.2611 48.7864 93.0302 48.4088 92.7909L47.6306 92.2972L46.6438 93.8544L47.4228 94.3476ZM34.8757 73.0616L34.7228 72.1537C34.6484 71.7128 34.584 71.2699 34.5291 70.8263L34.4158 69.9113L32.5866 70.1374L32.6999 71.0524C32.7581 71.5227 32.8268 71.9918 32.9056 72.4593L33.0591 73.368L34.8757 73.0616ZM42.9165 90.8942C43.2662 91.2154 43.6232 91.5283 43.9862 91.8332L44.6912 92.4257L45.8765 91.0143L45.1715 90.4219C44.8293 90.1346 44.4927 89.839 44.1631 89.5362L43.4851 88.9134L42.2379 90.2706L42.9165 90.8942ZM36.3899 78.2101L36.0785 77.3434C35.9276 76.9222 35.7862 76.4981 35.6542 76.0714L35.3826 75.1905L33.6219 75.7354L33.8943 76.6158C34.0343 77.0684 34.1844 77.5186 34.3445 77.9653L34.6551 78.8325L36.3899 78.2101ZM39.0744 86.6741C39.3619 87.0523 39.6575 87.4233 39.9603 87.7872L40.5495 88.4956L41.9663 87.317L41.377 86.6086C41.0915 86.2654 40.8125 85.9152 40.5413 85.5584L39.9835 84.825L38.5166 85.9406L39.0744 86.6741ZM38.7901 83.0231L38.3324 82.2234C38.1096 81.8347 37.8955 81.4416 37.6906 81.045L37.2673 80.2265L35.6298 81.0722L36.053 81.8907C36.2702 82.3111 36.4966 82.728 36.7328 83.14L37.1912 83.9392L38.7901 83.0231Z" fill="#FF6B8A"/>
<path d="M36.3513 63.7552L37.9928 62.9173L37.5738 62.0966L35.6129 58.2548L35.2252 57.4953L34.438 57.823L30.3184 59.538L29.4677 59.8921L30.176 61.5935L31.0267 61.2394L34.3585 59.853L35.9324 62.9345L36.3513 63.7552Z" fill="#FF6B8A"/>
<path d="M65.2706 66.0908C63.8476 63.6183 62.1689 61.2551 60.2429 58.9918C58.2016 56.5925 56.0809 54.5875 53.785 52.9466L52.8671 52.3043C52.8033 52.261 52.7471 52.2246 52.6914 52.1909L52.5191 52.0936C52.2712 51.9631 52.0568 51.7558 51.8 51.4036L50.3425 49.4147C48.2802 46.6226 46.9387 44.9258 45.3195 43.0956C44.0329 41.6413 42.7366 40.3393 41.3957 39.1704L40.6677 38.5517L34.5902 33.5084C34.2023 33.1833 33.838 32.8761 33.4504 32.5477C31.6252 31.0011 29.8712 29.2848 27.6129 26.8955C25.0978 24.2342 22.885 21.6734 20.8988 19.0953C19.8939 17.791 18.5797 17.8276 17.5798 19.096C16.1263 20.9411 16.1419 23.3993 17.6284 25.214L20.6386 28.8716L20.603 28.8776C19.141 29.1815 18.0364 30.452 18.0324 32.1059L18.0368 32.2984C18.1034 33.6659 18.9243 34.6891 20.2368 35.1856L26.2478 37.4445L27.0329 37.7449C27.2632 37.8335 27.5207 37.9958 27.8145 38.2325L27.9443 38.3414C28.0094 38.3981 28.0773 38.4604 28.1588 38.5382L28.836 39.1982L28.8981 39.256C29.2021 39.5361 29.3804 39.8488 29.6737 40.5863L32.9292 48.8231C33.411 50.0284 33.805 50.9967 34.2505 52.0731C35.1836 54.3281 36.7826 56.1466 38.9498 57.4961L40.3146 58.3361L43.7785 60.4079C43.8788 60.4673 43.9243 60.5233 43.9796 60.6635C45.7106 65.0556 47.8242 68.8542 50.4639 72.1569L50.9088 72.7028C51.036 72.8558 51.1546 72.9944 51.2927 73.1508L52.0366 73.9705C59.0893 81.4843 62.8398 88.7866 63.3308 95.8758L63.5906 99.6685L65.4293 99.5439L65.1693 95.7484C64.6566 88.3459 60.8645 80.8292 53.8401 73.2037L53.0185 72.3139L52.7827 72.0529C52.6058 71.8552 52.4708 71.6988 52.3261 71.5248C49.6109 68.257 47.4533 64.4512 45.6943 59.988C45.519 59.5429 45.2597 59.1957 44.886 58.9312L44.6695 58.7936L41.8842 57.1319C41.4592 56.8757 41.0783 56.6441 40.7054 56.4151L39.9239 55.9316C38.0741 54.7799 36.7346 53.2564 35.9534 51.3684L34.9365 48.8773L31.4757 40.1338C31.0653 39.0722 30.7982 38.5449 30.2822 38.0302L29.4095 37.1842C29.2485 37.0311 29.1236 36.9211 28.9723 36.7987C28.5406 36.4508 28.1311 36.1928 27.6943 36.0248L20.8888 33.4619C20.233 33.2138 19.9067 32.807 19.8776 32.2088C19.8253 31.1319 20.6997 30.4338 21.7408 30.7135L21.9349 30.7617L22.3828 30.8575L23.1054 31.0169L23.6972 29.7503L23.1726 29.05L19.0542 24.0463C18.1618 22.9568 18.1106 21.546 18.9022 20.4056L19.1998 20.0044C19.2655 19.9265 19.2701 20.0009 19.4389 20.2201C21.4653 22.8503 23.718 25.4573 26.2735 28.1614C28.4308 30.4437 30.1458 32.1327 31.9062 33.652L33.5736 35.0609L39.6366 40.0917C41.1096 41.3223 42.5274 42.721 43.9393 44.3167L44.5455 45.0113C46.2046 46.9388 47.7063 48.9136 50.3106 52.489C50.6682 52.9795 51.0245 53.342 51.4652 53.6131L51.7486 53.775C51.7805 53.7948 51.816 53.8182 51.8595 53.848L52.2128 54.0964C54.5707 55.7049 56.7419 57.7208 58.8393 60.1861C60.8792 62.5832 62.6274 65.0916 64.0751 67.7242C64.2295 68.0047 64.4454 68.1747 64.7604 68.3488L65.0815 68.5099L65.6873 68.8064C65.9776 68.961 66.376 69.1184 66.8139 69.2595L67.3792 67.5054C67.0934 67.4133 66.834 67.3143 66.6524 67.229L66.1171 66.9634L65.6518 66.7358C65.6316 66.7247 65.628 66.7234 65.646 66.7568L65.2706 66.0908Z" fill="#FF6B8A"/>
<path d="M59.9482 81.048C58.2972 78.4464 56.2605 75.8316 53.8399 73.2039L53.0184 72.3141L52.7826 72.0532C52.6056 71.8554 52.4706 71.6991 52.3259 71.525C49.6108 68.2572 47.4531 64.4514 45.6941 59.9883C45.5189 59.5432 45.2595 59.196 44.8858 58.9314L44.6693 58.7938L41.8841 57.1321C41.459 56.8759 41.0782 56.6444 40.7053 56.4153L39.9237 55.9319C38.074 54.7801 36.7345 53.2567 35.9533 51.3686L34.9364 48.8775L31.4755 40.1341C31.0652 39.0724 30.798 38.5451 30.282 38.0304L29.4094 37.1844C29.2483 37.0314 29.1234 36.9213 28.9722 36.7989C28.5404 36.451 28.1309 36.193 27.6942 36.025L20.8887 33.4621C20.2329 33.214 19.9066 32.8072 19.8774 32.2091C19.8251 31.1321 20.6995 30.4341 21.7406 30.7137L21.9347 30.7619L22.3827 30.8577L23.1052 31.0171L23.6971 29.7505L23.1724 29.0502L19.0541 24.0466C18.1616 22.957 18.1104 21.5463 18.9021 20.4059L19.1997 20.0046C19.2654 19.9267 19.27 20.0012 19.4388 20.2203C21.4651 22.8506 23.7178 25.4575 26.2734 28.1616C28.4306 30.4439 30.1457 32.1329 31.906 33.6522L33.5734 35.0611L39.6365 40.092C41.1095 41.3225 42.5273 42.7212 43.9391 44.317L44.5454 45.0115C46.2045 46.9391 47.7061 48.9138 50.3105 52.4893C50.6681 52.9797 51.0244 53.3423 51.465 53.6133L51.7484 53.7752C51.7803 53.795 51.8159 53.8184 51.8594 53.8483L52.2126 54.0966C54.5706 55.7052 56.7417 57.721 58.8392 60.1863C60.879 62.5834 62.6273 65.0919 64.0749 67.7244C64.2293 68.005 64.4452 68.175 64.7602 68.349L65.0813 68.5102L65.6871 68.8067C65.9775 68.9612 66.3759 69.1186 66.8138 69.2598C66.8138 69.2598 63.0884 85.9963 59.9482 81.048Z" fill="url(#paint0_linear_847_32052)"/>
</g>
<defs>
<linearGradient id="paint0_linear_847_32052" x1="-25.1951" y1="40.7139" x2="44.8706" y2="97.2554" gradientUnits="userSpaceOnUse">
<stop stop-color="#FF6B8A" stop-opacity="0.8"/>
<stop offset="1" stop-color="#FF6B8A" stop-opacity="0.01"/>
</linearGradient>
</defs>
</svg>
