<svg width="116" height="116" viewBox="0 0 116 116" fill="none" xmlns="http://www.w3.org/2000/svg">
<mask id="mask0_847_32327" style="mask-type:luminance" maskUnits="userSpaceOnUse" x="16" y="16" width="84" height="84">
<rect x="16.5713" y="16.5723" width="82.8571" height="82.8571" fill="white"/>
</mask>
<g mask="url(#mask0_847_32327)">
<mask id="mask1_847_32327" style="mask-type:luminance" maskUnits="userSpaceOnUse" x="16" y="16" width="84" height="86">
<path fill-rule="evenodd" clip-rule="evenodd" d="M16.5713 16.5723H99.4284V101.501H16.5713V16.5723Z" fill="white"/>
</mask>
<g mask="url(#mask1_847_32327)">
<path d="M31.4778 32.1338L31.4476 32.1006L31.4378 32.0811L31.2612 31.8064L30.8954 31.2617L30.381 30.5169L30.046 30.0424L29.6846 29.5397L29.3037 29.0207L28.9828 28.5925C28.5726 28.0512 28.1516 27.5188 27.7545 27.0551L27.5859 26.8607C27.3961 26.6449 27.2213 26.4373 27.061 26.2368L26.8757 25.9996C25.3595 24.0114 25.3459 22.723 26.4337 21.0141C27.288 19.6721 28.0943 19.511 28.5374 19.9454L28.6913 20.0988L28.872 20.2831L29.1862 20.6098L29.5425 20.9866L30.0641 21.5463L30.476 21.994L31.0323 22.6059L31.5727 23.2093L31.9521 23.6395L32.2972 24.0376L32.5029 24.2794L32.6851 24.4982L32.814 24.6569L32.8414 24.693L32.9223 24.794C33.6289 25.6555 34.9242 24.6138 34.2415 23.7331L34.1489 23.6155L34.0844 23.529C33.3049 22.4427 33.0051 20.8264 33.3581 20.2848L33.3909 20.2399C33.6505 19.9236 34.2868 19.887 34.5172 20.1334L34.5584 20.1871L35.7066 21.8948L35.9812 22.3075L36.3588 22.8819L36.592 23.2418L36.8136 23.5886C36.8497 23.6455 36.8855 23.7021 36.921 23.7585C37.4233 24.5563 37.8463 25.2736 38.2044 25.9427L38.2948 26.1157C38.3092 26.144 38.3233 26.1721 38.337 26.2L38.4163 26.3661C38.429 26.3936 38.4414 26.4211 38.4536 26.4485L38.524 26.6138L38.5897 26.7819C38.6109 26.8387 38.6314 26.8964 38.6515 26.9555L38.7106 27.1373C38.7299 27.1995 38.7489 27.2636 38.7677 27.33L38.8239 27.5363L38.8801 27.7589L38.9666 28.1292L39.0271 28.4043L39.1244 28.866C39.1481 28.9803 39.1717 29.0911 39.1955 29.1984L39.2674 29.5105C39.6061 30.9213 40.002 31.7104 40.895 32.496L41.865 33.3152L44.5464 35.5418L47.759 38.202C49.11 39.329 50.4102 40.61 51.7051 42.0714L52.0316 42.4429L52.3522 42.8135L52.6692 43.1862L52.8798 43.4374L53.1961 43.8201L53.5153 44.2128L53.7308 44.4815L54.1714 45.0396L54.6297 45.631L55.1113 46.2625L55.6217 46.9411L56.4539 48.0626L57.5484 49.5561C57.8922 50.0269 58.2347 50.3692 58.666 50.621L58.8394 50.7173L58.9318 50.7758L59.2935 51.0288C61.4561 52.502 63.4472 54.3482 65.3708 56.606C67.2415 58.8013 68.8447 61.0985 70.1723 63.5093C70.2904 63.7236 70.454 63.8699 70.6685 64.0044L70.704 64.0257L70.8577 64.1089L71.0558 64.2096L71.6517 64.5016C71.9179 64.6431 72.2831 64.7872 72.6846 64.9164C72.8539 64.9709 73.036 64.9704 73.205 64.9149C74.6074 64.4547 75.8973 64.4481 77.104 64.8853L77.2544 64.9422L71.4134 92.6481L71.1749 89.1719C70.7004 82.33 67.1643 75.3824 60.6114 68.3341L60.3018 68.0018L59.9156 67.5792L59.6337 67.2626L59.4416 67.0382L59.3941 66.9814C56.9042 63.9889 54.9256 60.5037 53.3125 56.4165C53.1425 55.9855 52.8867 55.6545 52.5126 55.4075L52.2679 55.2593L50.5934 54.2641L49.5599 53.6438L48.8841 53.2331L48.1284 52.7674L48.0189 52.6994C46.3226 51.6447 45.0946 50.2499 44.3785 48.5217L44.0222 47.6578L43.1689 45.5505L40.2714 38.2313L40.2167 38.0912L40.1121 37.831C39.8059 37.088 39.5607 36.6734 39.1268 36.2555L38.9228 36.0633L38.4689 35.6183L38.2906 35.4491L38.1847 35.3531L38.0815 35.2639L37.9746 35.1756C37.9382 35.1464 37.8676 35.112 37.7742 35.0748L37.6518 35.0289C37.6298 35.0211 37.607 35.0132 37.5837 35.0053L37.3582 34.9325L37.1124 34.8593L36.7072 34.7471L36.166 34.6083L36.0244 34.5747C34.9391 34.2692 33.9514 33.8704 33.0205 33.3056C32.4872 32.9821 31.9924 32.6136 31.54 32.1954C31.5201 32.177 31.4993 32.1565 31.4778 32.1338Z" fill="url(#paint0_linear_847_32327)"/>
<path d="M25.0098 20.0996C26.3831 17.9424 28.3832 17.5091 29.6494 18.666L29.7178 18.7304L29.8692 18.8808L30.1192 19.1367L30.4092 19.4385L30.8438 19.8984L31.5469 20.6552L31.5488 20.623C31.6006 20.0515 31.773 19.5416 32.0859 19.1601C33.0172 18.0254 34.9967 17.9359 35.8945 19.1445L35.9512 19.2256L36.7432 20.4013L37.3897 21.3691L37.7744 21.9541L38.0127 22.3222L38.3496 22.8515L38.6856 23.3926C39.0106 23.9233 39.3023 24.4229 39.5645 24.9013L39.75 25.2461L39.8565 25.4551L39.9531 25.6572C40.1294 26.0374 40.263 26.4016 40.3877 26.8408L40.4404 27.0342L40.5059 27.2871L40.5381 27.4199L40.6035 27.7031L40.7061 28.1728L40.8106 28.6718L40.874 28.956C41.1441 30.137 41.4067 30.6854 42.0078 31.2177L42.082 31.2822L42.7568 31.8506L43.9893 32.8808L47.4824 35.7685L48.8389 36.8965C50.1492 37.9896 51.4094 39.2153 52.6563 40.5947L53.0801 41.0703L53.4131 41.4502L53.7402 41.8301L54.0635 42.2129L54.3867 42.6015L54.7109 42.998L55.0401 43.4072L55.375 43.8301L55.7188 44.2715L56.0742 44.7324L56.4434 45.2168L56.9609 45.9052L57.8037 47.041L58.9111 48.5527C59.1463 48.8748 59.3431 49.064 59.5703 49.1836L59.625 49.2129L59.7285 49.2724L59.7803 49.3047L59.833 49.3388L59.9512 49.4189L60.0928 49.5185L60.541 49.8301C60.8417 50.0408 61.1393 50.2582 61.4336 50.4824C61.5052 50.0185 61.6344 49.5242 61.8252 48.9746L62.0127 48.4453L62.1221 48.123C62.1881 47.9262 62.2553 47.725 62.3272 47.5263L62.4385 47.2304C62.738 46.4737 62.7595 45.6854 62.5029 44.7617L62.457 44.6064C61.1068 40.2016 63.3539 35.2966 67.5723 33.4394C71.9587 31.5083 76.3818 31.3342 80.7197 32.9209C83.9209 34.0926 86.1717 36.312 87.4102 39.5176C88.8333 43.1996 88.8579 46.7501 87.4834 50.0703C87.1377 50.9056 86.6436 51.7003 86.1367 52.4697L85.6445 53.2099C84.4652 54.9864 84.0588 56.5667 84.3652 58.1816C84.6699 59.7844 85.2086 60.8032 86.1084 61.4677L86.1582 61.499L86.3447 61.6211L86.4434 61.6894L86.6133 61.8125L86.7412 61.9082L86.9522 62.0742L87.1055 62.2002L87.2666 62.3379L87.4356 62.4873L87.6113 62.6504C87.6412 62.6784 87.6718 62.7063 87.7022 62.7353L87.8877 62.917L88.0791 63.1113L88.2158 63.2549L88.3545 63.4052L88.4942 63.5625L88.6358 63.7256L88.8506 63.9824L88.9951 64.1631L89.1406 64.3496C89.1648 64.3813 89.1887 64.414 89.2129 64.4463L89.3584 64.6435L89.5039 64.8476C89.5522 64.9167 89.6003 64.9871 89.6484 65.0586L89.793 65.2773L89.9375 65.5029L90.0801 65.7353C90.1512 65.8535 90.2211 65.9749 90.291 66.0986L90.4307 66.3496C90.4536 66.3919 90.4763 66.4346 90.499 66.4775L90.6358 66.7402C90.6807 66.8288 90.7254 66.9186 90.7695 67.0097L90.9004 67.2881C90.9436 67.3817 90.987 67.477 91.0293 67.5732L91.1543 67.8662C91.1748 67.9154 91.1956 67.9648 91.2158 68.0146L91.3359 68.3193C92.3828 71.045 92.9981 74.6951 92.3975 79.4648L92.3057 80.1738L92.2598 80.5224L92.1651 81.206L92.0693 81.872L91.9727 82.5224L91.8486 83.3135L91.7236 84.0801L91.6231 84.6767L91.5215 85.2578L91.4199 85.8261L91.2656 86.6513L91.1123 87.4472L90.959 88.2148L90.7568 89.1963L90.5576 90.1328L90.2207 91.6718L89.8223 93.4824L89.6826 94.1318L89.5547 94.7529L89.4756 95.1523L89.3672 95.7295L89.3027 96.1006L89.2451 96.4619L89.1934 96.8135C88.9781 98.3752 88.9768 99.6625 89.3213 100.891L89.3613 101.026L87.9922 101.439C87.557 100.002 87.5255 98.5761 87.7393 96.8857L87.7881 96.5195C87.8058 96.396 87.8247 96.271 87.8447 96.1445L87.9082 95.7597L87.9785 95.3652L88.0547 94.9609L88.1797 94.332L88.3164 93.6767L88.5156 92.7578L89.0108 90.5107L89.2549 89.3838L89.4541 88.4345L89.6045 87.6924L89.7568 86.9238L89.9092 86.126L90.0108 85.5771L90.1113 85.0156L90.2119 84.4394L90.3115 83.8496L90.4111 83.2451L90.5088 82.625L90.6055 81.9902L90.7012 81.3388L90.8408 80.332L90.9326 79.6396L90.9776 79.2871C91.6175 74.2069 90.8045 70.5112 89.6143 67.914L89.4834 67.6347C89.3507 67.3601 89.2136 67.0987 89.0742 66.8496L88.9346 66.6045C88.8877 66.5244 88.8403 66.4455 88.793 66.3681L88.6504 66.1396L88.5059 65.9189L88.3467 65.6836L88.1865 65.459C88.1332 65.3855 88.0796 65.3134 88.0264 65.2431L87.8672 65.0371C87.8144 64.9701 87.7614 64.9046 87.709 64.8408L87.5527 64.6543L87.3975 64.4756L87.3213 64.3906L87.1699 64.2265L87.0225 64.0713L86.877 63.9248L86.7022 63.7539L86.5332 63.5967L86.3408 63.4248L86.1611 63.2724L85.9434 63.0967C84.162 62.19 83.1376 60.5465 82.8193 58.0801C82.5553 56.0361 83.0997 54.0684 84.3945 52.3779L84.5137 52.2246C87.9754 47.8997 87.3561 41.8238 84.9551 38.0556C83.7672 36.1908 82.0213 34.9113 79.6172 34.1445C75.5001 32.8317 71.4735 33.1557 67.6514 35.1074C64.986 36.469 63.224 39.8025 63.5527 42.8603C63.5883 43.1929 63.6856 43.5169 63.7891 43.832L63.9375 44.2842C64.2919 45.4087 64.2843 46.5032 63.9141 47.625L63.8594 47.7861C63.6865 48.267 63.5277 48.7588 63.376 49.2441L63.0469 50.3017L62.9541 50.5947C62.9436 50.6269 62.9343 50.6604 62.9277 50.6933C62.8568 51.0662 62.8366 51.3825 62.8682 51.6513C64.0774 52.6982 65.2388 53.8707 66.3721 55.1738L66.6553 55.5019L66.9766 55.8828C67.9966 57.1055 68.9378 58.3606 69.7998 59.6484C70.5332 59.4302 71.2828 59.1742 71.9424 58.9336L72.2276 58.8291L72.4522 58.7539C72.4913 58.7601 72.5409 58.7758 72.5742 58.7959C72.6152 58.9986 72.6762 59.1936 72.7402 59.3838L72.8682 59.7588L72.8984 59.8506L73.0557 60.3828C73.1893 60.8393 73.3289 61.3394 73.4209 61.8232L73.4658 62.084L73.5947 63.0508C75.0227 62.7399 76.3955 62.8195 77.6963 63.2949L77.8731 63.3623L77.2539 64.9414L77.1035 64.8847C75.8969 64.4477 74.6074 64.4549 73.2051 64.915C73.0361 64.9705 72.8539 64.9704 72.6846 64.916C72.3333 64.8029 72.0096 64.6788 71.7559 64.5547L71.6514 64.501L71.0557 64.209L70.8574 64.1084L70.7041 64.0254L70.668 64.0039C70.4537 63.8694 70.29 63.723 70.1719 63.5088C68.8444 61.0981 67.2417 58.8006 65.3711 56.6054C63.5312 54.4458 61.6287 52.6629 59.5742 51.2226L59.293 51.0283L58.9317 50.7754L58.8389 50.7168L58.666 50.6211C58.2739 50.3921 57.9546 50.0877 57.6416 49.6806L57.5479 49.5556L56.4541 48.0625L55.6211 46.9404L55.1113 46.2617L54.6299 45.6308L54.1709 45.039L53.7305 44.4814L53.5147 44.2129L53.1963 43.8193L52.8799 43.4365L52.669 43.1855L52.3516 42.8135L52.0313 42.4424L51.7051 42.0713C50.5099 40.7223 49.3094 39.5271 48.0693 38.4648L47.7588 38.2011L44.5459 35.541L41.8652 33.3144L40.8945 32.4961C40.0347 31.7396 39.6356 30.9791 39.3047 29.664L39.2676 29.5097L39.1953 29.1982L39.0274 28.4043L38.9668 28.1289L38.8799 27.7588L38.8242 27.5361L38.7676 27.3301L38.71 27.1367L38.6514 26.9551L38.6211 26.8672L38.5899 26.7812L38.5234 26.6133L38.4531 26.4482L38.416 26.3662L38.3369 26.1992L38.2949 26.1152L38.2041 25.9424C37.8858 25.3477 37.5159 24.715 37.085 24.0215L36.8135 23.5879L36.5918 23.2412L36.3584 22.8818L35.9815 22.3076L35.7061 21.8945L34.5586 20.1865L34.5166 20.1328C34.2987 19.9004 33.7198 19.9202 33.4375 20.1894L33.3906 20.2392L33.3574 20.2842C33.0152 20.8093 33.2872 22.3456 34.0147 23.4287L34.084 23.5283L34.1484 23.6152L34.2412 23.7324C34.9112 24.5967 33.676 25.6166 32.9619 24.8398L32.9219 24.7939L32.8408 24.6924L32.8135 24.6562L32.6846 24.498L32.5029 24.2793L32.2969 24.0371L31.9522 23.6396L31.5723 23.209L31.0322 22.6054L30.4756 21.9941L30.0635 21.5459L29.542 20.9863L29.1865 20.6093L28.8721 20.2832L28.6914 20.0986L28.5371 19.9453C28.0941 19.5109 27.2879 19.6717 26.4336 21.0136C25.3681 22.6875 25.3593 23.9581 26.7842 25.8779L26.876 25.999L27.0606 26.2363C27.1808 26.3867 27.3095 26.5413 27.4463 26.7002L27.7539 27.0547C28.0942 27.4521 28.453 27.9005 28.8067 28.3613L28.9824 28.5918L29.3037 29.0205L29.6846 29.539L30.0459 30.042L30.3809 30.5166L30.8955 31.2617L31.2608 31.8056L31.4375 32.081L31.4473 32.1006L31.4776 32.1338C31.4991 32.1564 31.5201 32.1769 31.5401 32.1953C31.9924 32.6134 32.4873 32.9822 33.0205 33.3056C33.8797 33.8268 34.7874 34.2063 35.7754 34.5019L36.0244 34.5742L36.166 34.6084L36.707 34.747L37.1123 34.8593L37.3584 34.9316L37.584 35.0049L37.6514 35.0283L37.7744 35.0742C37.849 35.1039 37.9086 35.1323 37.9483 35.1572L37.9746 35.1748L38.0811 35.2636L38.1846 35.3525L38.2901 35.4492L38.4688 35.6181L38.9229 36.0625L39.127 36.2549C39.5338 36.6466 39.7739 37.0361 40.0547 37.6953L40.1123 37.831L40.2168 38.0908L43.169 45.5498L44.0225 47.6572L44.3779 48.5215C45.0684 50.1879 46.2355 51.5444 47.8389 52.5849L48.1279 52.7666L48.8838 53.2324L49.5596 53.6435L50.5938 54.2636L52.2676 55.2588L52.5127 55.4072C52.8866 55.6542 53.1426 55.985 53.3125 56.416C54.8735 60.3711 56.7767 63.7626 59.1543 66.6894L59.4414 67.0381L59.6338 67.2627L59.9151 67.5791L60.3018 68.001L60.6113 68.334C61.5942 69.3912 62.5095 70.4464 63.3565 71.499L63.7744 72.0244C68.2396 77.7224 70.7075 83.3539 71.1553 88.915L71.1748 89.1718L71.4131 92.6474L69.7266 92.7627L69.4883 89.289C69.2943 86.4927 68.5459 83.6599 67.2393 80.791C66.9987 82.4934 66.865 84.2634 66.8389 86.1015L66.8359 86.4463L66.8379 86.8056C66.8392 86.9277 66.8409 87.0525 66.8438 87.1787L66.8584 87.6601L66.8838 88.2558L66.9131 88.7636L66.9258 88.9687L66.9551 89.3799L66.9971 89.8965L67.0547 90.5127L67.1094 91.0195L67.1553 91.4179L67.2061 91.8086L67.2725 92.2812L67.3574 92.8232L67.4336 93.249C67.4647 93.414 67.4965 93.5728 67.5293 93.7236L67.5957 94.0146C67.6635 94.2949 67.7351 94.542 67.8086 94.747L67.8457 94.8457C68.3586 96.1639 68.5706 97.8428 68.5635 99.8808C68.5624 100.181 68.5577 100.481 68.5479 100.787L68.5293 101.251C68.5187 101.486 68.5058 101.725 68.4902 101.972L68.4561 102.476L68.4151 103.003L68.3672 103.559L68.1807 105.566L68.1484 105.979L68.1377 106.15L68.1279 106.37L66.4385 106.318L66.4453 106.154L66.4609 105.877L66.4766 105.666L66.5068 105.302L66.6836 103.411L66.7295 102.873L66.7695 102.362L66.8027 101.876C66.8178 101.638 66.8306 101.408 66.8408 101.183L66.8574 100.738C66.8669 100.446 66.8721 100.16 66.8731 99.875C66.8792 98.1118 66.7073 96.6752 66.3242 95.6074L66.2705 95.4638C66.0789 94.9713 65.9053 94.2727 65.7549 93.458L65.6875 93.0742C65.6545 92.8785 65.6222 92.6773 65.5918 92.4717L65.5332 92.0547L65.4776 91.6279L65.4268 91.1933L65.3789 90.7529L65.335 90.3086L65.2959 89.8623L65.2608 89.416L65.2305 88.9717L65.2041 88.5312L65.1826 88.0957L65.166 87.6689L65.1592 87.459L65.1504 87.0468L65.1475 86.8457L65.1455 86.4531L65.1494 86.0761C65.1883 83.3386 65.4566 80.7376 65.9551 78.2744C64.3227 75.3834 62.1305 72.4558 59.376 69.4922L59.1318 69.2304L58.8818 68.959L58.5274 68.5683L58.3047 68.3144L58.0967 68.0693C55.4839 64.9289 53.4172 61.2876 51.7412 57.041C51.6982 56.9319 51.661 56.879 51.5938 56.832L51.5576 56.8086L50.3359 56.084L48.8047 55.1679L48.2246 54.8164L47.1289 54.1426C45.2051 52.9463 43.769 51.3468 42.9024 49.372L42.8174 49.1738L42.459 48.3047L41.9502 47.0537L41.2676 45.3496L38.8106 39.1396L38.6055 38.6162L38.5225 38.4131L38.4443 38.2343L38.3701 38.0781C38.2409 37.8171 38.1216 37.6448 37.9688 37.4922L37.7969 37.3301L37.3115 36.8554L37.1611 36.7119L37.0752 36.6338L37.0039 36.5713L36.9307 36.5517L35.9942 36.3232C35.8501 36.2862 35.7099 36.2488 35.5684 36.209C34.3472 35.8652 33.2226 35.4106 32.1465 34.7578C31.5192 34.3772 30.9335 33.9416 30.3955 33.4443C30.3493 33.4016 30.3029 33.3559 30.2578 33.3086L30.1904 33.2363L29.7627 32.6025L29.0488 31.5693L28.7139 31.0947L28.207 30.3916L27.8906 29.9619L27.7227 29.7363L27.4033 29.3164C27.0838 28.9009 26.7656 28.5032 26.4668 28.1543L26.1953 27.8418C23.6324 24.8697 23.3699 22.6757 25.0098 20.0996ZM70.8555 60.8916L70.6465 60.9638C70.8235 61.2515 70.9966 61.5412 71.166 61.832L71.418 62.2695L71.5918 62.5801L71.7901 62.6806L72.0469 62.8056L71.9932 62.3291C71.9242 61.6916 71.8428 61.4096 71.6709 61.0879L71.5977 60.956L71.4404 60.6943L70.8555 60.8916Z" fill="#FF6B8A"/>
<path d="M61.7952 99.0169C62.1989 99.1792 62.6066 99.332 63.0171 99.4763L63.814 99.7566L64.3745 98.1628L63.5773 97.8817C63.1904 97.7457 62.8064 97.6015 62.4259 97.4485L61.6417 97.1332L61.011 98.7015L61.7952 99.0169ZM46.5117 62.5538L46.8095 61.7633C46.9539 61.3793 47.1064 60.9978 47.2675 60.6204L47.5999 59.8439L46.0449 59.1799L45.7139 59.957C45.5431 60.357 45.3807 60.761 45.2275 61.1681L44.9297 61.9586L46.5117 62.5538ZM57.1425 96.6485C57.5112 96.8793 57.8855 97.1018 58.264 97.3161L58.999 97.733L59.8323 96.2621L59.0964 95.8456C58.7397 95.6436 58.3874 95.4338 58.0399 95.2162L57.3231 94.7672L56.427 96.2L57.1425 96.6485ZM45.3363 67.3027L45.4917 66.4718C45.5675 66.0688 45.6524 65.6675 45.7457 65.2681L45.9374 64.4452L44.2921 64.0604L44.0994 64.8837C44.0005 65.3072 43.9111 65.7331 43.8308 66.1605L43.675 66.9905L45.3363 67.3027ZM52.95 93.4673C53.2717 93.7604 53.6002 94.0463 53.9345 94.3246L54.5843 94.8657L55.6656 93.5665L55.0158 93.0254C54.7009 92.7632 54.3916 92.4942 54.0885 92.2181L53.4637 91.6484L52.3256 92.8985L52.95 93.4673ZM45.0059 72.2478L45.0121 71.4028C45.0154 70.9927 45.0279 70.5827 45.0493 70.1733L45.0932 69.3293L43.4057 69.2404L43.361 70.0847C43.3383 70.5191 43.3252 70.9543 43.3217 71.3893L43.3155 72.2344L45.0059 72.2478ZM49.4297 89.6327C49.6944 89.9783 49.9664 90.3178 50.2458 90.6506L50.7892 91.2984L52.0838 90.212L51.5404 89.5643C51.2771 89.2506 51.0209 88.9306 50.7714 88.6049L50.2575 87.934L48.9157 88.9618L49.4297 89.6327ZM45.5513 77.1393L45.4089 76.3065C45.3398 75.9021 45.279 75.4966 45.2279 75.0901L45.1222 74.2513L43.4453 74.4623L43.551 75.3011C43.6053 75.7323 43.669 76.1626 43.7424 76.5917L43.8848 77.4245L45.5513 77.1393ZM46.6087 85.1713C46.8077 85.5589 47.0153 85.9414 47.2304 86.3184L47.6489 87.0521L49.1171 86.2146L48.6985 85.4809C48.4958 85.1254 48.2998 84.765 48.1122 84.3995L47.7259 83.6468L46.2224 84.4187L46.6087 85.1713ZM46.9528 81.868L46.6662 81.0731C46.5268 80.6863 46.3958 80.2971 46.2738 79.9061L46.0226 79.0993L44.4085 79.603L44.6606 80.4094C44.7899 80.8239 44.9284 81.2362 45.0763 81.6461L45.3628 82.4411L46.9528 81.868Z" fill="#FF6B8A"/>
<path d="M47.8188 64.1124L49.4346 63.6162L49.1864 62.8083L48.0263 59.0307L47.7969 58.2839L47.0344 58.454L43.0407 59.3447L42.2158 59.5287L42.5838 61.1784L43.4087 60.9945L46.639 60.2747L47.5707 63.3045L47.8188 64.1124Z" fill="#FF6B8A"/>
</g>
</g>
<defs>
<linearGradient id="paint0_linear_847_32327" x1="122.425" y1="41.7407" x2="41.5841" y2="87.9396" gradientUnits="userSpaceOnUse">
<stop stop-color="#FF6B8A" stop-opacity="0.8"/>
<stop offset="1" stop-color="#FF6B8A" stop-opacity="0.01"/>
</linearGradient>
</defs>
</svg>
