<svg width="116" height="116" viewBox="0 0 116 116" fill="none" xmlns="http://www.w3.org/2000/svg">
<mask id="mask0_847_32350" style="mask-type:luminance" maskUnits="userSpaceOnUse" x="16" y="16" width="84" height="84">
<rect x="16.5713" y="16.5723" width="82.8571" height="82.8571" fill="white"/>
</mask>
<g mask="url(#mask0_847_32350)">
<mask id="mask1_847_32350" style="mask-type:luminance" maskUnits="userSpaceOnUse" x="16" y="16" width="84" height="86">
<path fill-rule="evenodd" clip-rule="evenodd" d="M99.4287 16.5723H16.5716V101.501H99.4287V16.5723Z" fill="white"/>
</mask>
<g mask="url(#mask1_847_32350)">
<path d="M84.5222 32.1338L84.5524 32.1006L84.5622 32.0811L84.7388 31.8064L85.1046 31.2617L85.619 30.5169L85.954 30.0424L86.3154 29.5397L86.6963 29.0207L87.0172 28.5925C87.4274 28.0512 87.8484 27.5188 88.2455 27.0551L88.4141 26.8607C88.6039 26.6449 88.7787 26.4373 88.939 26.2368L89.1243 25.9996C90.6405 24.0114 90.6541 22.723 89.5663 21.0141C88.712 19.6721 87.9057 19.511 87.4626 19.9454L87.3087 20.0988L87.128 20.2831L86.8138 20.6098L86.4575 20.9866L85.9359 21.5463L85.524 21.994L84.9677 22.6059L84.4273 23.2093L84.0479 23.6395L83.7028 24.0376L83.4971 24.2794L83.3149 24.4982L83.186 24.6569L83.1586 24.693L83.0777 24.794C82.3711 25.6555 81.0758 24.6138 81.7585 23.7331L81.8511 23.6155L81.9156 23.529C82.6951 22.4427 82.9949 20.8264 82.6419 20.2848L82.6091 20.2399C82.3495 19.9236 81.7132 19.887 81.4828 20.1334L81.4416 20.1871L80.2934 21.8948L80.0188 22.3075L79.6412 22.8819L79.408 23.2418L79.1864 23.5886C79.1503 23.6455 79.1145 23.7021 79.079 23.7585C78.5767 24.5563 78.1537 25.2736 77.7956 25.9427L77.7052 26.1157C77.6908 26.144 77.6767 26.1721 77.663 26.2L77.5837 26.3661C77.571 26.3936 77.5586 26.4211 77.5464 26.4485L77.476 26.6138L77.4103 26.7819C77.3891 26.8387 77.3686 26.8964 77.3485 26.9555L77.2894 27.1373C77.2701 27.1995 77.2511 27.2636 77.2323 27.33L77.1761 27.5363L77.1199 27.7589L77.0334 28.1292L76.9729 28.4043L76.8756 28.866C76.8519 28.9803 76.8283 29.0911 76.8045 29.1984L76.7326 29.5105C76.3939 30.9213 75.998 31.7104 75.105 32.496L74.135 33.3152L71.4536 35.5418L68.241 38.202C66.89 39.329 65.5898 40.61 64.2949 42.0714L63.9684 42.4429L63.6478 42.8135L63.3308 43.1862L63.1202 43.4374L62.8039 43.8201L62.4847 44.2128L62.2692 44.4815L61.8286 45.0396L61.3703 45.631L60.8887 46.2625L60.3783 46.9411L59.5461 48.0626L58.4516 49.5561C58.1078 50.0269 57.7653 50.3692 57.334 50.621L57.1606 50.7173L57.0682 50.7758L56.7065 51.0288C54.5439 52.502 52.5528 54.3482 50.6292 56.606C48.7585 58.8013 47.1553 61.0985 45.8277 63.5093C45.7096 63.7236 45.546 63.8699 45.3315 64.0044L45.296 64.0257L45.1423 64.1089L44.9442 64.2096L44.3483 64.5016C44.0821 64.6431 43.7169 64.7872 43.3154 64.9164C43.1461 64.9709 42.964 64.9704 42.795 64.9149C41.3926 64.4547 40.1027 64.4481 38.896 64.8853L38.7456 64.9422L44.5866 92.6481L44.8251 89.1719C45.2996 82.33 48.8357 75.3824 55.3886 68.3341L55.6982 68.0018L56.0844 67.5792L56.3663 67.2626L56.5584 67.0382L56.6059 66.9814C59.0958 63.9889 61.0744 60.5037 62.6875 56.4165C62.8575 55.9855 63.1133 55.6545 63.4874 55.4075L63.7321 55.2593L65.4066 54.2641L66.4401 53.6438L67.1159 53.2331L67.8716 52.7674L67.9811 52.6994C69.6774 51.6447 70.9054 50.2499 71.6215 48.5217L71.9778 47.6578L72.8311 45.5505L75.7286 38.2313L75.7833 38.0912L75.8879 37.831C76.1941 37.088 76.4393 36.6734 76.8732 36.2555L77.0772 36.0633L77.5311 35.6183L77.7094 35.4491L77.8153 35.3531L77.9185 35.2639L78.0254 35.1756C78.0618 35.1464 78.1324 35.112 78.2258 35.0748L78.3482 35.0289C78.3702 35.0211 78.393 35.0132 78.4163 35.0053L78.6418 34.9325L78.8876 34.8593L79.2928 34.7471L79.834 34.6083L79.9756 34.5747C81.0609 34.2692 82.0486 33.8704 82.9795 33.3056C83.5128 32.9821 84.0076 32.6136 84.46 32.1954C84.4799 32.177 84.5007 32.1565 84.5222 32.1338Z" fill="url(#paint0_linear_847_32350)"/>
<path d="M90.9902 20.0996C89.6169 17.9424 87.6168 17.5091 86.3506 18.666L86.2822 18.7304L86.1308 18.8808L85.8808 19.1367L85.5908 19.4385L85.1562 19.8984L84.4531 20.6552L84.4512 20.623C84.3994 20.0515 84.227 19.5416 83.9141 19.1601C82.9828 18.0254 81.0033 17.9359 80.1055 19.1445L80.0488 19.2256L79.2568 20.4013L78.6103 21.3691L78.2256 21.9541L77.9873 22.3222L77.6504 22.8515L77.3144 23.3926C76.9894 23.9233 76.6977 24.4229 76.4355 24.9013L76.25 25.2461L76.1435 25.4551L76.0469 25.6572C75.8706 26.0374 75.737 26.4016 75.6123 26.8408L75.5596 27.0342L75.4941 27.2871L75.4619 27.4199L75.3965 27.7031L75.2939 28.1728L75.1894 28.6718L75.126 28.956C74.8559 30.137 74.5933 30.6854 73.9922 31.2177L73.918 31.2822L73.2432 31.8506L72.0107 32.8808L68.5176 35.7685L67.1611 36.8965C65.8508 37.9896 64.5906 39.2153 63.3437 40.5947L62.9199 41.0703L62.5869 41.4502L62.2598 41.8301L61.9365 42.2129L61.6133 42.6015L61.2891 42.998L60.9599 43.4072L60.625 43.8301L60.2812 44.2715L59.9258 44.7324L59.5566 45.2168L59.0391 45.9052L58.1963 47.041L57.0889 48.5527C56.8537 48.8748 56.6569 49.064 56.4297 49.1836L56.375 49.2129L56.2715 49.2724L56.2197 49.3047L56.167 49.3388L56.0488 49.4189L55.9072 49.5185L55.459 49.8301C55.1583 50.0408 54.8607 50.2582 54.5664 50.4824C54.4948 50.0185 54.3656 49.5242 54.1748 48.9746L53.9873 48.4453L53.8779 48.123C53.8119 47.9262 53.7447 47.725 53.6728 47.5263L53.5615 47.2304C53.262 46.4737 53.2405 45.6854 53.4971 44.7617L53.543 44.6064C54.8932 40.2016 52.6461 35.2966 48.4277 33.4394C44.0413 31.5083 39.6182 31.3342 35.2803 32.9209C32.0791 34.0926 29.8283 36.312 28.5898 39.5176C27.1667 43.1996 27.1421 46.7501 28.5166 50.0703C28.8623 50.9056 29.3564 51.7003 29.8633 52.4697L30.3555 53.2099C31.5348 54.9864 31.9412 56.5667 31.6348 58.1816C31.3301 59.7844 30.7914 60.8032 29.8916 61.4677L29.8418 61.499L29.6553 61.6211L29.5566 61.6894L29.3867 61.8125L29.2588 61.9082L29.0478 62.0742L28.8945 62.2002L28.7334 62.3379L28.5644 62.4873L28.3887 62.6504C28.3588 62.6784 28.3282 62.7063 28.2978 62.7353L28.1123 62.917L27.9209 63.1113L27.7842 63.2549L27.6455 63.4052L27.5058 63.5625L27.3642 63.7256L27.1494 63.9824L27.0049 64.1631L26.8594 64.3496C26.8352 64.3813 26.8113 64.414 26.7871 64.4463L26.6416 64.6435L26.4961 64.8476C26.4478 64.9167 26.3997 64.9871 26.3516 65.0586L26.207 65.2773L26.0625 65.5029L25.9199 65.7353C25.8488 65.8535 25.7789 65.9749 25.709 66.0986L25.5693 66.3496C25.5464 66.3919 25.5237 66.4346 25.501 66.4775L25.3642 66.7402C25.3193 66.8288 25.2746 66.9186 25.2305 67.0097L25.0996 67.2881C25.0564 67.3817 25.013 67.477 24.9707 67.5732L24.8457 67.8662C24.8252 67.9154 24.8044 67.9648 24.7842 68.0146L24.6641 68.3193C23.6172 71.045 23.0019 74.6951 23.6025 79.4648L23.6943 80.1738L23.7402 80.5224L23.8349 81.206L23.9307 81.872L24.0273 82.5224L24.1514 83.3135L24.2764 84.0801L24.3769 84.6767L24.4785 85.2578L24.5801 85.8261L24.7344 86.6513L24.8877 87.4472L25.041 88.2148L25.2432 89.1963L25.4424 90.1328L25.7793 91.6718L26.1777 93.4824L26.3174 94.1318L26.4453 94.7529L26.5244 95.1523L26.6328 95.7295L26.6973 96.1006L26.7549 96.4619L26.8066 96.8135C27.0219 98.3752 27.0232 99.6625 26.6787 100.891L26.6387 101.026L28.0078 101.439C28.443 100.002 28.4745 98.5761 28.2607 96.8857L28.2119 96.5195C28.1942 96.396 28.1753 96.271 28.1553 96.1445L28.0918 95.7597L28.0215 95.3652L27.9453 94.9609L27.8203 94.332L27.6836 93.6767L27.4844 92.7578L26.9892 90.5107L26.7451 89.3838L26.5459 88.4345L26.3955 87.6924L26.2432 86.9238L26.0908 86.126L25.9892 85.5771L25.8887 85.0156L25.7881 84.4394L25.6885 83.8496L25.5889 83.2451L25.4912 82.625L25.3945 81.9902L25.2988 81.3388L25.1592 80.332L25.0674 79.6396L25.0224 79.2871C24.3825 74.2069 25.1955 70.5112 26.3857 67.914L26.5166 67.6347C26.6493 67.3601 26.7864 67.0987 26.9258 66.8496L27.0654 66.6045C27.1123 66.5244 27.1597 66.4455 27.207 66.3681L27.3496 66.1396L27.4941 65.9189L27.6533 65.6836L27.8135 65.459C27.8668 65.3855 27.9204 65.3134 27.9736 65.2431L28.1328 65.0371C28.1856 64.9701 28.2386 64.9046 28.291 64.8408L28.4473 64.6543L28.6025 64.4756L28.6787 64.3906L28.8301 64.2265L28.9775 64.0713L29.123 63.9248L29.2978 63.7539L29.4668 63.5967L29.6592 63.4248L29.8389 63.2724L30.0566 63.0967C31.838 62.19 32.8624 60.5465 33.1807 58.0801C33.4447 56.0361 32.9003 54.0684 31.6055 52.3779L31.4863 52.2246C28.0246 47.8997 28.6439 41.8238 31.0449 38.0556C32.2328 36.1908 33.9787 34.9113 36.3828 34.1445C40.4999 32.8317 44.5265 33.1557 48.3486 35.1074C51.014 36.469 52.776 39.8025 52.4473 42.8603C52.4117 43.1929 52.3144 43.5169 52.2109 43.832L52.0625 44.2842C51.7081 45.4087 51.7157 46.5032 52.0859 47.625L52.1406 47.7861C52.3135 48.267 52.4723 48.7588 52.624 49.2441L52.9531 50.3017L53.0459 50.5947C53.0564 50.6269 53.0657 50.6604 53.0723 50.6933C53.1432 51.0662 53.1634 51.3825 53.1318 51.6513C51.9226 52.6982 50.7612 53.8707 49.6279 55.1738L49.3447 55.5019L49.0234 55.8828C48.0034 57.1055 47.0622 58.3606 46.2002 59.6484C45.4668 59.4302 44.7172 59.1742 44.0576 58.9336L43.7724 58.8291L43.5478 58.7539C43.5087 58.7601 43.4591 58.7758 43.4258 58.7959C43.3848 58.9986 43.3238 59.1936 43.2598 59.3838L43.1318 59.7588L43.1016 59.8506L42.9443 60.3828C42.8107 60.8393 42.6711 61.3394 42.5791 61.8232L42.5342 62.084L42.4053 63.0508C40.9773 62.7399 39.6045 62.8195 38.3037 63.2949L38.1269 63.3623L38.7461 64.9414L38.8965 64.8847C40.1031 64.4477 41.3926 64.4549 42.7949 64.915C42.9639 64.9705 43.1461 64.9704 43.3154 64.916C43.6667 64.8029 43.9904 64.6788 44.2441 64.5547L44.3486 64.501L44.9443 64.209L45.1426 64.1084L45.2959 64.0254L45.332 64.0039C45.5463 63.8694 45.71 63.723 45.8281 63.5088C47.1556 61.0981 48.7583 58.8006 50.6289 56.6054C52.4688 54.4458 54.3713 52.6629 56.4258 51.2226L56.707 51.0283L57.0683 50.7754L57.1611 50.7168L57.334 50.6211C57.7261 50.3921 58.0454 50.0877 58.3584 49.6806L58.4521 49.5556L59.5459 48.0625L60.3789 46.9404L60.8887 46.2617L61.3701 45.6308L61.8291 45.039L62.2695 44.4814L62.4853 44.2129L62.8037 43.8193L63.1201 43.4365L63.331 43.1855L63.6484 42.8135L63.9687 42.4424L64.2949 42.0713C65.4901 40.7223 66.6906 39.5271 67.9307 38.4648L68.2412 38.2011L71.4541 35.541L74.1348 33.3144L75.1055 32.4961C75.9653 31.7396 76.3644 30.9791 76.6953 29.664L76.7324 29.5097L76.8047 29.1982L76.9726 28.4043L77.0332 28.1289L77.1201 27.7588L77.1758 27.5361L77.2324 27.3301L77.29 27.1367L77.3486 26.9551L77.3789 26.8672L77.4101 26.7812L77.4766 26.6133L77.5469 26.4482L77.584 26.3662L77.6631 26.1992L77.7051 26.1152L77.7959 25.9424C78.1142 25.3477 78.4841 24.715 78.915 24.0215L79.1865 23.5879L79.4082 23.2412L79.6416 22.8818L80.0185 22.3076L80.2939 21.8945L81.4414 20.1865L81.4834 20.1328C81.7013 19.9004 82.2802 19.9202 82.5625 20.1894L82.6094 20.2392L82.6426 20.2842C82.9848 20.8093 82.7128 22.3456 81.9853 23.4287L81.916 23.5283L81.8516 23.6152L81.7588 23.7324C81.0888 24.5967 82.324 25.6166 83.0381 24.8398L83.0781 24.7939L83.1592 24.6924L83.1865 24.6562L83.3154 24.498L83.4971 24.2793L83.7031 24.0371L84.0478 23.6396L84.4277 23.209L84.9678 22.6054L85.5244 21.9941L85.9365 21.5459L86.458 20.9863L86.8135 20.6093L87.1279 20.2832L87.3086 20.0986L87.4629 19.9453C87.9059 19.5109 88.7121 19.6717 89.5664 21.0136C90.6319 22.6875 90.6407 23.9581 89.2158 25.8779L89.124 25.999L88.9394 26.2363C88.8192 26.3867 88.6905 26.5413 88.5537 26.7002L88.2461 27.0547C87.9058 27.4521 87.547 27.9005 87.1933 28.3613L87.0176 28.5918L86.6963 29.0205L86.3154 29.539L85.9541 30.042L85.6191 30.5166L85.1045 31.2617L84.7392 31.8056L84.5625 32.081L84.5527 32.1006L84.5224 32.1338C84.5009 32.1564 84.4799 32.1769 84.4599 32.1953C84.0076 32.6134 83.5127 32.9822 82.9795 33.3056C82.1203 33.8268 81.2126 34.2063 80.2246 34.5019L79.9756 34.5742L79.834 34.6084L79.293 34.747L78.8877 34.8593L78.6416 34.9316L78.416 35.0049L78.3486 35.0283L78.2256 35.0742C78.151 35.1039 78.0914 35.1323 78.0517 35.1572L78.0254 35.1748L77.9189 35.2636L77.8154 35.3525L77.7099 35.4492L77.5312 35.6181L77.0771 36.0625L76.873 36.2549C76.4662 36.6466 76.2261 37.0361 75.9453 37.6953L75.8877 37.831L75.7832 38.0908L72.831 45.5498L71.9775 47.6572L71.6221 48.5215C70.9316 50.1879 69.7645 51.5444 68.1611 52.5849L67.8721 52.7666L67.1162 53.2324L66.4404 53.6435L65.4062 54.2636L63.7324 55.2588L63.4873 55.4072C63.1134 55.6542 62.8574 55.985 62.6875 56.416C61.1265 60.3711 59.2233 63.7626 56.8457 66.6894L56.5586 67.0381L56.3662 67.2627L56.0849 67.5791L55.6982 68.001L55.3887 68.334C54.4058 69.3912 53.4905 70.4464 52.6435 71.499L52.2256 72.0244C47.7604 77.7224 45.2925 83.3539 44.8447 88.915L44.8252 89.1718L44.5869 92.6474L46.2734 92.7627L46.5117 89.289C46.7057 86.4927 47.4541 83.6599 48.7607 80.791C49.0013 82.4934 49.135 84.2634 49.1611 86.1015L49.1641 86.4463L49.1621 86.8056C49.1608 86.9277 49.1591 87.0525 49.1562 87.1787L49.1416 87.6601L49.1162 88.2558L49.0869 88.7636L49.0742 88.9687L49.0449 89.3799L49.0029 89.8965L48.9453 90.5127L48.8906 91.0195L48.8447 91.4179L48.7939 91.8086L48.7275 92.2812L48.6426 92.8232L48.5664 93.249C48.5353 93.414 48.5035 93.5728 48.4707 93.7236L48.4043 94.0146C48.3365 94.2949 48.2649 94.542 48.1914 94.747L48.1543 94.8457C47.6414 96.1639 47.4294 97.8428 47.4365 99.8808C47.4376 100.181 47.4423 100.481 47.4521 100.787L47.4707 101.251C47.4813 101.486 47.4942 101.725 47.5098 101.972L47.5439 102.476L47.5849 103.003L47.6328 103.559L47.8193 105.566L47.8516 105.979L47.8623 106.15L47.8721 106.37L49.5615 106.318L49.5547 106.154L49.5391 105.877L49.5234 105.666L49.4932 105.302L49.3164 103.411L49.2705 102.873L49.2305 102.362L49.1973 101.876C49.1822 101.638 49.1694 101.408 49.1592 101.183L49.1426 100.738C49.1331 100.446 49.1279 100.16 49.1269 99.875C49.1208 98.1118 49.2927 96.6752 49.6758 95.6074L49.7295 95.4638C49.9211 94.9713 50.0947 94.2727 50.2451 93.458L50.3125 93.0742C50.3455 92.8785 50.3778 92.6773 50.4082 92.4717L50.4668 92.0547L50.5224 91.6279L50.5732 91.1933L50.6211 90.7529L50.665 90.3086L50.7041 89.8623L50.7392 89.416L50.7695 88.9717L50.7959 88.5312L50.8174 88.0957L50.834 87.6689L50.8408 87.459L50.8496 87.0468L50.8525 86.8457L50.8545 86.4531L50.8506 86.0761C50.8117 83.3386 50.5434 80.7376 50.0449 78.2744C51.6773 75.3834 53.8695 72.4558 56.624 69.4922L56.8682 69.2304L57.1182 68.959L57.4726 68.5683L57.6953 68.3144L57.9033 68.0693C60.5161 64.9289 62.5828 61.2876 64.2588 57.041C64.3018 56.9319 64.339 56.879 64.4062 56.832L64.4424 56.8086L65.6641 56.084L67.1953 55.1679L67.7754 54.8164L68.8711 54.1426C70.7949 52.9463 72.231 51.3468 73.0976 49.372L73.1826 49.1738L73.541 48.3047L74.0498 47.0537L74.7324 45.3496L77.1894 39.1396L77.3945 38.6162L77.4775 38.4131L77.5557 38.2343L77.6299 38.0781C77.7591 37.8171 77.8784 37.6448 78.0312 37.4922L78.2031 37.3301L78.6885 36.8554L78.8389 36.7119L78.9248 36.6338L78.9961 36.5713L79.0693 36.5517L80.0058 36.3232C80.1499 36.2862 80.2901 36.2488 80.4316 36.209C81.6528 35.8652 82.7774 35.4106 83.8535 34.7578C84.4808 34.3772 85.0665 33.9416 85.6045 33.4443C85.6507 33.4016 85.6971 33.3559 85.7422 33.3086L85.8096 33.2363L86.2373 32.6025L86.9512 31.5693L87.2861 31.0947L87.793 30.3916L88.1094 29.9619L88.2773 29.7363L88.5967 29.3164C88.9162 28.9009 89.2344 28.5032 89.5332 28.1543L89.8047 27.8418C92.3676 24.8697 92.6301 22.6757 90.9902 20.0996ZM45.1445 60.8916L45.3535 60.9638C45.1765 61.2515 45.0034 61.5412 44.834 61.832L44.582 62.2695L44.4082 62.5801L44.2099 62.6806L43.9531 62.8056L44.0068 62.3291C44.0758 61.6916 44.1572 61.4096 44.3291 61.0879L44.4023 60.956L44.5596 60.6943L45.1445 60.8916Z" fill="#FF6B8A"/>
<path d="M54.2053 99.0169C53.8016 99.1792 53.3939 99.332 52.9833 99.4763L52.1865 99.7566L51.626 98.1628L52.4232 97.8817C52.8101 97.7457 53.1941 97.6015 53.5746 97.4485L54.3588 97.1332L54.9895 98.7015L54.2053 99.0169ZM69.4888 62.5538L69.191 61.7633C69.0465 61.3793 68.8941 60.9978 68.733 60.6204L68.4006 59.8439L69.9555 59.1799L70.2866 59.957C70.4574 60.357 70.6198 60.761 70.773 61.1681L71.0708 61.9586L69.4888 62.5538ZM58.858 96.6485C58.4893 96.8793 58.115 97.1018 57.7365 97.3161L57.0015 97.733L56.1682 96.2621L56.9041 95.8456C57.2608 95.6436 57.6131 95.4338 57.9606 95.2162L58.6773 94.7672L59.5735 96.2L58.858 96.6485ZM70.6642 67.3027L70.5087 66.4718C70.433 66.0688 70.3481 65.6675 70.2548 65.2681L70.063 64.4452L71.7084 64.0604L71.9011 64.8837C72 65.3072 72.0894 65.7331 72.1696 66.1605L72.3255 66.9905L70.6642 67.3027ZM63.0505 93.4673C62.7288 93.7604 62.4002 94.0463 62.066 94.3246L61.4162 94.8657L60.3349 93.5665L60.9847 93.0254C61.2996 92.7632 61.6089 92.4942 61.912 92.2181L62.5368 91.6484L63.6749 92.8985L63.0505 93.4673ZM70.9946 72.2478L70.9884 71.4028C70.985 70.9927 70.9726 70.5827 70.9511 70.1733L70.9073 69.3293L72.5948 69.2404L72.6395 70.0847C72.6622 70.5191 72.6753 70.9543 72.6788 71.3893L72.685 72.2344L70.9946 72.2478ZM66.5708 89.6327C66.3061 89.9783 66.0341 90.3178 65.7547 90.6506L65.2113 91.2984L63.9167 90.212L64.46 89.5643C64.7234 89.2506 64.9796 88.9306 65.229 88.6049L65.743 87.934L67.0847 88.9618L66.5708 89.6327ZM70.4492 77.1393L70.5916 76.3065C70.6607 75.9021 70.7215 75.4966 70.7726 75.0901L70.8783 74.2513L72.5552 74.4623L72.4495 75.3011C72.3952 75.7323 72.3315 76.1626 72.2581 76.5917L72.1157 77.4245L70.4492 77.1393ZM69.3918 85.1713C69.1928 85.5589 68.9852 85.9414 68.7701 86.3184L68.3516 87.0521L66.8834 86.2146L67.3019 85.4809C67.5047 85.1254 67.7006 84.765 67.8883 84.3995L68.2746 83.6468L69.7781 84.4187L69.3918 85.1713ZM69.0477 81.868L69.3342 81.0731C69.4737 80.6863 69.6047 80.2971 69.7267 79.9061L69.9779 79.0993L71.592 79.603L71.3399 80.4094C71.2106 80.8239 71.072 81.2362 70.9242 81.6461L70.6377 82.4411L69.0477 81.868Z" fill="#FF6B8A"/>
<path d="M68.1817 64.1124L66.5659 63.6162L66.814 62.8083L67.9742 59.0307L68.2036 58.2839L68.9661 58.454L72.9598 59.3447L73.7847 59.5287L73.4167 61.1784L72.5918 60.9945L69.3615 60.2747L68.4298 63.3045L68.1817 64.1124Z" fill="#FF6B8A"/>
</g>
</g>
<defs>
<linearGradient id="paint0_linear_847_32350" x1="-14.1129" y1="41.5029" x2="73.6551" y2="91.5433" gradientUnits="userSpaceOnUse">
<stop stop-color="#FF6B8A" stop-opacity="0.8"/>
<stop offset="1" stop-color="#FF6B8A" stop-opacity="0.01"/>
</linearGradient>
</defs>
</svg>
